<?xml version="1.0" encoding="utf-8"?>
<!-- Generator: Adobe Illustrator 15.1.0, SVG Export Plug-In . SVG Version: 6.00 Build 0)  -->
<!DOCTYPE svg PUBLIC "-//W3C//DTD SVG 1.1//EN" "http://www.w3.org/Graphics/SVG/1.1/DTD/svg11.dtd">
<svg version="1.1" id="Layer_1" xmlns="http://www.w3.org/2000/svg" xmlns:xlink="http://www.w3.org/1999/xlink" x="0px" y="0px"
	 width="959.158px" height="699.818px" viewBox="0 0 959.158 699.818" enable-background="new 0 0 959.158 699.818"
	 xml:space="preserve">
<g>
	<path fill="#00BAD6" d="M840.228,60.493c-3.606-6.914-4.298-14.979-11.799-18.964c-5.042-2.681-13.762-5.063-18.842-1.46
		c-5.477,3.875-1.584,10.361,1.854,13.962c6.024,6.303,16.86,9.025,24.912,11.28c1.396,0.391,2.48-0.188,3.091-1.107
		C840.453,63.376,841,61.97,840.228,60.493z"/>
	<path fill="#00BAD6" d="M778.971,33.769c-9.325-2.25-30.08-0.264-32.143,11.764c-1.277,7.446,5.558,14.146,12.876,13.016
		c4.37-0.676,8.068-2.861,11.263-5.856c3.754-3.524,5.413-8.816,7.96-13.208C781.491,38.788,782.142,34.534,778.971,33.769z"/>
	<path fill="#00BAD6" d="M716.522,31.097c-0.341-1.064-1.155-1.876-2.309-1.859c-3.141-1.1-6.748,0.855-9.49,2.149
		c-4.205,1.996-8.156,4.286-11.853,7.105c-4.616,3.531-11.333,10.096-8.83,16.584c2.427,6.278,11.688,7.489,17.352,5.032
		c4.639-1.357,8.399-5.188,10.587-9.709c2.17-4.498,3.369-9.613,4.766-14.386C717.226,34.358,717.29,32.508,716.522,31.097z"/>
	<path fill="#00BAD6" d="M626.771,283.975c-0.925-11.145-9.562-24.526-19.281-30.042c-1.672-0.951-3.862-0.095-4.369,1.79
		c-2.562,9.559-5.066,19.125-7.105,28.81c-0.658,3.126,3.246,4.713,4.999,2.946c0.732-0.018,1.462-0.239,1.983-0.748
		c5.438-5.369,13.618-0.78,20.043,0.127C624.793,287.105,626.954,286.092,626.771,283.975z"/>
	<path fill="#00BAD6" d="M664.746,381.863c-0.257-0.648-0.521-1.309-0.782-1.969c1.207-12.189-1.125-25.404-3.131-37.236
		c-1.239-7.258-4.101-28.735-15.456-27.596c-9.406,0.957-3.935,22.036,2.715,40.69c0.751,2.887,1.739,5.689,3.115,8.375
		c2.705,7.029,5.258,13.092,6.75,16.688c-0.036,0.25-0.048,0.512-0.086,0.758c-0.333,2.16,1.424,3.58,3.093,3.693
		C663.063,385.933,665.741,384.431,664.746,381.863z"/>
	<path fill="#00BAD6" d="M156.78,662.98c-2.796-2.463-8.277-2.029-10.856-5.496c-6.078-8.178-6.354,3.197-10.431,12.062
		c-3.531,7.668-10.035,13.07-5.416,16.846c1.059,0.861,2.684,1.096,3.745,0.91c8.653-1.492,19.587-8.455,23.233-16.035
		C158.2,668.876,159.127,665.044,156.78,662.98z"/>
	<path fill="#00BAD6" d="M67.414,447.503c-0.495-0.533-1.197-0.906-2.124-0.926c-13.23-0.34-26.476-0.352-39.708-0.809
		c-3.338-0.119-4.028,5.127-0.745,5.834c12.584,2.717,25.249,5.018,37.711,8.258c1.411,0.365,2.496-0.297,3.331-1.367
		c1.851-2.375,3.741-4.721,5.589-7.104C73.499,448.783,69.916,446.222,67.414,447.503z"/>
	<path fill="#00BAD6" d="M172.758,587.605c25.98,9.975,32.883-44.043,35.582-71.58c0.364-3.711,1.891-14.953-0.87-15.154
		c-3.592-0.266-6.529,10.756-8.043,13.809c-8.102,16.328-20.687,30.324-28.368,46.873
		C167.886,568.384,162.427,583.642,172.758,587.605z"/>
	<path fill="#00BAD6" d="M142.375,503.138c-0.61,12.369,20.47,7.236,26.415,5.578c15.727-4.385,43.938-21.672,48.402-30.961
		c0.648-1.348,0.822-2.686,0.012-3.535c-0.827-1.76-3.39-1.246-5.408,0.096c-3.525,2.34-20.965,10.506-26.391,11.732
		c-5.589,1.26-11.153,2.617-16.731,3.928C162.639,491.394,142.816,494.244,142.375,503.138z"/>
	<path fill="#00BAD6" d="M373.254,329.506c-0.604,0.256-1.143,0.733-1.482,1.507c-0.964,2.197-1.734,4.473-2.593,6.705
		c-1.678,2.793-3.165,5.684-4.643,8.592c-0.178,0.249-0.343,0.504-0.524,0.746c-1.625,2.199-3.293,4.363-4.996,6.51
		c-0.201,0.252-0.328,0.506-0.436,0.762c-1.113,1.086-2.24,2.158-3.344,3.266c-4.742,4.76-8.765,9.982-14.055,14.199
		c-0.085,0.066-0.143,0.141-0.219,0.211c-4.003,3.289-7.953,6.643-11.133,10.826c-4.109,5.398-13.778,20.561-1.237,22.332
		c9.087,1.281,20.419-8.156,25.572-14.535c6.43-7.945,11.452-16.832,15.301-26.227c1.961-0.482,6.033-17.918,7.368-24.882
		c0.507-1.587,0.834-3.19,0.895-4.816c0.008-0.223-0.054-0.398-0.086-0.597c0.15-0.631,0.299-1.255,0.407-1.908
		C378.525,329.267,375.106,328.117,373.254,329.506z"/>
	<path fill="#00BAD6" d="M956.798,66.483c3.632-15.085-10.982-24.222-24.498-23.362c-5.21-0.185-10.416-0.556-15.637-0.508
		c-0.026-0.009-0.058-0.01-0.088-0.01c-9.633-0.803-19.089,1.523-28.528,3.085c-0.152-0.019-0.31-0.04-0.483-0.036
		c-8.415,0.17-16.805-1.394-25.067-2.876c-6.377-1.144-12.304-4.468-18.577-6.244c-0.318-0.292-0.701-0.548-1.201-0.704
		c-4.479-1.462-8.551-3.617-12.861-5.462c-3.874-1.648-8.148-2.286-12.213-3.354c-0.271-0.165-0.576-0.302-0.955-0.37
		c-21.451-4.203-42.718-9.884-64.731-8.722c-0.365-0.148-0.788-0.235-1.262-0.231c-20.787,0.417-44.344,0.034-64.459,6.071
		c-0.489,0.149-0.885,0.389-1.189,0.684c-2.808,0.634-5.52,1.668-8.261,2.646c-5.764,2.073-11.853,2.432-17.462,5.015
		c-0.287,0.134-0.518,0.294-0.714,0.47c-11.221,3.166-21.776,8.213-33.029,11.295c-3.766,1.036-7.199,3.122-10.57,5.008
		c-7.046,3.961-14.675,5.004-22.536,5.404c-0.124-0.02-0.253-0.037-0.381-0.036c-8.793,0.078-16.881-0.774-24.708-5.065
		c-5.617-3.086-14.396-7.575-18.455-12.636c-0.267-0.341-0.581-0.58-0.898-0.771c-0.062-0.062-0.108-0.131-0.183-0.202
		c-4.514-4.163-10.02-6.915-15.271-10c-0.388-0.228-0.769-0.347-1.129-0.392c-0.339-0.535-0.858-0.978-1.599-1.226
		c-2.503-0.84-4.705-2.376-7.088-3.494c-2.577-1.201-5.284-1.988-7.604-3.711c-0.596-0.442-1.239-0.625-1.869-0.626
		C486.406,3.27,449.462-4.597,420.12,2.943c-0.394,0.101-0.704,0.261-0.977,0.445c-5.403,1.787-8.535,6.645-6.991,12.63
		c2.11,8.188,9.175,13.73,15.509,18.896c0.084,0.139,0.165,0.274,0.275,0.404c8.762,10.332,20.645,17.504,29.641,27.943
		c10.782,12.512,20.709,27.729,16.387,44.438c-0.032,0.105-0.064,0.212-0.084,0.323c-0.164,0.623-0.309,1.238-0.519,1.861
		c-0.034,0.055-0.072,0.107-0.094,0.172c-5.838,12.676-13.453,22.143-24.485,30.834c-9.544,7.519-17.617,17.69-28.069,23.917
		c-0.818,0.48-1.237,1.154-1.36,1.864c-8.874,8.03-16.8,16.952-24.736,25.893c-0.602,0.198-1.157,0.588-1.582,1.239
		c-4.866,7.544-11.935,13.343-16.875,20.859c-0.227,0.345-0.347,0.673-0.425,0.994c-3.791,5.307-7.99,10.283-11.59,15.731
		c-0.16,0.251-0.271,0.493-0.345,0.732c-5.62,8.792-8.898,18.918-15.056,27.352c-0.116,0.13-0.214,0.274-0.304,0.431
		c-0.181,0.235-0.335,0.485-0.518,0.72c-0.583,0.756-0.753,1.569-0.64,2.334c-1.638,3.84-4.356,6.885-6.297,10.655
		c-1.944,3.784-2.888,7.928-6.148,10.891c-0.85,0.767-1.044,1.675-0.854,2.499c-3.444,6.299-6.759,12.679-9.953,19.125
		c-3.793,7.66-9.505,14.033-12.822,22.006l-0.006,0.003c-5.094,8.524-11.448,16.241-15.844,25.184
		c-0.124,0.242-0.197,0.49-0.244,0.725c-4,6.764-8.775,12.982-13.242,19.434c-4.018,5.816-7.796,13.789-13.046,18.627
		c-0.745,0.682-0.983,1.459-0.9,2.201c-2.564,3.863-5.203,7.775-8.425,11.092c-3.051,3.133-6.498,5.943-8.277,10.047
		c0,0.008-0.002,0.01,0,0.023c-2.458,4.51-5.461,8.508-8.859,12.09c-4.899,1.92-9.542,6.912-13.676,11.1
		c-13.939,8.883-30.758,14.078-46.047,18.277c-0.422,0.121-0.755,0.299-1.045,0.521c-2.652,0.678-5.318,1.096-7.973,1.289
		c-0.465-0.154-1.001-0.195-1.591-0.074c-0.375,0.086-0.74,0.15-1.113,0.234c-17.684,0.322-35.343-8.592-52.209-13.148
		c-19.953-5.379-40.439-9.029-60.953-11.412c-4.418-0.514-70.173-6.037-55.673,15.398c5.634,8.324,17.678,9.354,26.735,11.074
		c18.519,3.521,36.447,11.098,53.147,19.609c8.675,4.412,17.952,9.379,25.103,16.016c4.354,4.041,7.804,9.02,11.678,13.562
		c0.006,0.027,0.001,0.051,0.008,0.08c0.093,1.656,1.287,2.594,2.569,2.803c0.085,0.082,0.163,0.174,0.241,0.258
		c3.548,3.648,7.871,6.008,12.792,7.098c7.437,1.664,19.931-0.965,23.751,8.033c0.124,0.279,0.28,0.512,0.447,0.729
		c1.339,5.182-0.402,9.152-2.733,13.717c-7.854,5.877-9.174,14.504-11.306,23.426c-0.441,0.477-0.746,1.104-0.793,1.9
		c-0.609,10.602-2.847,20.914-3.312,31.631c-0.521,12.006,0.581,24.568-4.196,35.898c-0.197,0.457-0.272,0.91-0.255,1.336
		c-3.92,11.633-6.567,22.562-13.366,33.18c-4.101,6.402-9.704,15.551-5.061,23.059c10.315,16.699,34.966-2.342,43.561-9.666
		c0.555-0.477,10.805-11.824,15.099-17.484c5.975-7.885,14.104-25.555,14.116-25.574c3.893-5.566,6.806-14.885,8.589-21.021
		c2.874-9.902,13.49-37.186,14.692-40.42c6.316-16.975,31.21-63.244,44.369-71.586c0.259-0.166,0.43-0.367,0.608-0.561
		c0.117-0.064,0.233-0.119,0.351-0.199c11.444-7.889,21.716-16.715,33.918-23.404c0.441-0.045,0.902-0.201,1.372-0.549
		c9.222-6.898,20.057-11.271,29.748-17.307c0.435-0.035,0.888-0.186,1.348-0.52c6.357-4.617,14.68-6.832,21.762-10.307
		c8.443-4.152,17.078-8.035,25.892-11.328c0.463-0.178,0.832-0.426,1.131-0.727c15.996-5.545,31.75-11.656,47.713-17.268
		c0.243-0.078,0.455-0.186,0.654-0.309c4.731-1.229,9.339-2.84,13.804-4.838c3.666-0.279,6.783-1.836,10.128-3.441
		c4.887-2.342,10.641-3.51,15.805-5.148c0.68-0.219,1.179-0.588,1.519-1.051c5.682-1.664,11.425-2.984,16.661-5.873
		c0.04-0.02,0.066-0.053,0.097-0.07c11.578-4.266,23.25-8.252,34.539-13.262c7.418-1.43,13.813-5.654,20.945-8
		c0.319-0.107,0.584-0.26,0.826-0.424c8.392-2.498,15.655-7.416,23.72-10.748c0.553-0.225,0.971-0.57,1.281-0.973
		c3.696-1.811,7.511-3.092,11.329-4.693c4.823-2.021,8.91-5.234,13.477-7.721c0.289-0.16,0.518-0.361,0.721-0.557
		c6.01-3.01,11.479-6.904,17.036-10.682c13.792,37.771-1.452,82.471-10.22,119.488c-6.422,27.117,22.811,27.666,35.373,11.797
		c0.654,8.303,4.26,16.375,14.763,15.008c11.552-1.504,19.94-12.229,26.8-20.934c0.179-0.135,0.351-0.297,0.52-0.49
		c5.571-6.617,11.353-13.512,14.612-21.623c0.288-0.191,0.543-0.436,0.77-0.773c3.612-5.25,6.662-10.893,10.076-16.287
		c3.032-4.818,4.554-10.357,8.132-14.873c0.457-0.582,0.644-1.164,0.626-1.717c4.437-8.193,7.358-18.467,10.284-27.207
		c3.654-10.875,7.063-22.531,7.825-34.012c0.013-0.229,0.002-0.428-0.023-0.637c1.209-6.352,2.741-12.632,3.439-19.078
		c0.044-0.176,0.088-0.355,0.108-0.555c0.994-9.652,0.948-19.293,0.741-28.975c0.271-0.423,0.447-0.935,0.453-1.559
		c0.087-7.197-1.801-13.803-4.599-20.247c13.602-1.28,24.512-10.998,35.171-18.99c0.403-0.297,0.69-0.649,0.895-1.031
		c19.955-12.376,48.582-50.097,48.686-50.54c3.755-4.118,10.581-13.723,10.806-14.008c12.699-16.338,39.741-39.139,44.314-42.123
		c0.194-0.125,9.82-6.358,14.407-8.554c5.756-2.76,11.004-5.875,17.045-8.006c7.412-2.618,26.292-10.569,26.751-10.715
		c15.054-4.785,28.477-16.399,31.118-19.891c9.275-12.279,8.354-28.429-7.503-30.792C951.411,76.905,956.618,67.25,956.798,66.483z
		 M65.97,466.078c-0.056,0.086-0.095,0.166-0.143,0.252c-11.461-4.832-23.462-8.795-35.564-11.271
		c-5.295-1.08-10.555-2.02-15.736-3.604c-5.159-1.574-9.905-8.326-2.773-10.545c3.165-0.99,6.616-1.062,9.891-1.428
		c20.296-2.246,41.01,1.098,60.979,4.436c5.796,0.969,11.562,2.109,17.301,3.365C87.05,451.244,74.658,454.169,65.97,466.078z
		 M90.283,477.71c-5.62-2.904-11.355-5.473-16.65-7.938c-0.753-0.354-1.528-0.686-2.293-1.041
		c9.176-12.332,24.519-13.355,37.978-18.301c0.448-0.164,0.813-0.4,1.107-0.689c9.511,2.383,18.927,5.105,28.225,8.117
		c4.671,1.51,9.166,2.984,13.614,4.186c-7.879,1.07-15.776,1.973-23.698,3.16c-13.017,1.973-25.267,7.146-37.416,11.979
		C90.812,477.326,90.529,477.505,90.283,477.71z M119.3,502.089c-2.042-2.643-3.982-5.33-5.966-7.641
		c-4.479-5.195-10.266-9.461-16.522-13.145c11.699-4.609,23.336-8.873,35.889-10.762c13.062-1.973,25.926-3.076,38.865-5.74
		c4.27-0.084,8.632-0.689,13.205-2.059c0.412-0.121,0.745-0.305,1.021-0.535c9.881-2.742,20.229-5.941,30.05-10.209
		c0.198,0.057,0.412,0.109,0.642,0.125c1.512,0.133,3.034,0.412,4.533,0.775c0.048,0.055,0.088,0.121,0.139,0.18
		c-21.625,16.115-47.552,24.756-73.925,28.92C133.431,484.179,121.962,489.507,119.3,502.089z M171.943,661.447
		c-4.263,6.643-15.74,18.154-15.867,18.559c-6.343,5.424-13.192,11.432-21.587,12.732c-5.11,0.793-14.235,0.377-12.228-9.102
		c0.74-3.465,3.715-7.598,5.523-10.662c6.443-10.896,9.511-21.402,13.416-33.082c2.191,5.852,5.877,11.158,12.255,13.008
		c7.082,2.066,15.991,2.848,23.655,0.895C175.273,656.542,173.418,659.146,171.943,661.447z M181.998,645.671
		c-0.412,0.037-0.834,0.166-1.268,0.41c-6.695,3.875-16.403,3.148-23.662,1.701c-7.915-1.582-10.533-9.059-12.015-15.984
		c-0.162-0.771-0.539-1.293-1.028-1.633c0.809-3.441,1.279-6.936,1.575-10.473c2.879,4.838,7.095,8.801,12.533,11.832
		c10.235,5.725,20.114,2.912,30.089-0.553C187.444,633.359,183.149,643.414,181.998,645.671z M194.93,611.06
		c-1.269,4.385-2.733,8.572-4.369,12.824c-8.598,3.023-15.997,6.281-25.46,4.111c-9.963-2.295-16.94-11.885-17.714-21.66
		c-0.073-0.922-0.48-1.611-1.053-2.072c0.435-7.305,1.269-14.514,2.022-21.736c2.361,8.193,6.54,15.711,13.766,20.387
		c10.209,6.596,23.99,6.76,34.994,1.557C196.33,606.658,195.582,608.843,194.93,611.06z M219.887,550.23
		c-0.432-6.678-0.657-13.361-0.48-20.053c0.386-15.078,10.132-34.713,24.755-18.418C237.178,520.998,221.297,546.07,219.887,550.23z
		 M253.024,503.597c-1.689,1.195-3.249,2.502-4.744,3.891c-9.017-9.951-20.591-11.607-29.226,0.186
		c-9.708,13.262-6.239,36.344-4.385,52.445c-0.507,1.303-12.311,29.789-12.309,30.008c-0.615,1.838-1.279,3.658-1.957,5.477
		c-0.114,0.076-0.234,0.127-0.353,0.221c-8.964,6.705-22.372,8.654-32.534,3.529c-12.554-6.334-15.467-22.902-15.977-35.453
		c-0.017-0.426-0.117-0.803-0.268-1.135c1.245-5.74,2.861-11.312,7.743-15.047c0.641-0.186,1.232-0.621,1.637-1.408
		c3.348-6.508,5.64-12.205,3.47-19.549c-0.197-0.664-0.547-1.146-0.977-1.484c-3.494-6.803-9.49-8.771-17.191-9.699
		c-5.701-0.689-11.089-0.555-16.244-3.432c-1.83-1.021-3.506-2.371-5.072-3.904c0.043-21.148,24.896-20.021,40.835-23.223
		c21.343-4.285,43.874-15.418,61.117-28.646c3.738,1.973,6.868,3.994,9.39,7.977c0.02,0.047,0.045,0.096,0.065,0.143
		c2.374,6.057-3.369,10.953-2.98,16.785c0.13,1.912,2.223,3.838,4.167,3.832c4.208-0.006,9.884-0.752,13.238,1.887
		C255.282,490.767,254.237,498.482,253.024,503.597z M915.392,48.465c0.232,0.051,0.47,0.081,0.736,0.08
		c3.573-0.058,7.149,0.094,10.726,0.266c1.911,1.64,3.267,3.552,4.189,5.614c0.088,0.333,0.227,0.66,0.405,0.979
		c2.878,7.792-0.022,18.225-5.56,24.61c-0.371-0.026-2.862-0.003-3.483,0.299c-2,0.138-3.997,0.27-5.995,0.435
		c7.716-11.446,3.479-25.28-8.088-32.16C910.667,48.41,913.022,48.346,915.392,48.465z M898.467,49.863
		c4.979,1.27,13.291,8.126,15.134,13.417c1.96,5.59,0.688,12.077-4.892,17.544c-0.208,0.203-0.364,0.423-0.495,0.645
		c-0.329,0.031-2.084-0.005-2.68,0.236c-1.717,0.154-3.429,0.316-5.134,0.455c-1.654,0.143-3.307,0.331-4.966,0.51
		c6.825-9.729,7.449-23.871-1.005-32.102C895.768,50.326,897.118,50.086,898.467,49.863z M885.619,51.562
		c0.187,0.17,0.396,0.324,0.655,0.458c12.037,6.094,10.214,22.344,1.437,30.572c-0.365,0.347-0.612,0.722-0.755,1.107
		c-5.646,0.768-11.301,1.6-16.934,2.3c8.916-10.328,10.151-25.426,1.668-35.67C876.311,51.021,880.961,51.512,885.619,51.562z
		 M859.396,47.962c0.223,0.281,0.525,0.532,0.919,0.744c15.673,8.243,14.313,28.599,0.311,37.852
		c-0.206,0.137-0.341,0.312-0.503,0.48c-1.803,0.139-3.612,0.262-5.413,0.334c-0.082-0.001-0.154,0.038-0.236,0.046
		c-0.281-0.092-0.563-0.183-0.873-0.201c-0.164-0.016-0.328,0.032-0.491,0.043c0.75-3.691,1.354-7.226,1.646-10.504
		c0.985-10.859-3.141-24.284-10.454-33.961C849.403,44.353,854.276,46.494,859.396,47.962z M687.917,31.099
		c0.433-0.383,0.689-0.811,0.826-1.249c0.653-0.061,1.312-0.095,1.987-0.076c1.432,0.051,2.307-0.744,2.64-1.765
		c17.729-4.203,37.764-4.027,55.715-4.359c0.413,0.21,0.882,0.316,1.458,0.275c21.992-1.486,43.173,4.25,64.553,8.444
		c0.227,0.13,0.468,0.238,0.746,0.318c4.802,1.283,9.693,2.022,14.191,4.284c0.316,0.17,0.655,0.294,0.977,0.449
		c0.15,0.685,0.546,1.333,1.283,1.814c8.53,5.627,15.604,20.433,16.853,30.332c0.607,4.829,0.062,10.135-0.944,15.518
		c-3.277-4.472-6.867-8.823-11.767-11.44c-0.084-0.042-0.152-0.072-0.238-0.101c-4.821-3.234-11.344-5.06-16.771-6.89
		c-4.932-1.671-9.61-3.305-14.223-5.813c-7.276-3.975-7.448-9.958-9.3-16.868c-0.651-2.456-3.413-2.59-4.894-1.307
		c-0.672,0.31-1.237,0.905-1.492,1.851c-1.941,7.137-3.495,13.228-10.09,17.834c-5.98,4.184-15.109,4.433-21.825,2.802
		c-11.53-2.795-17.741-11.323-22.39-21.264c-0.055-0.111-0.112-0.229-0.171-0.342c-0.058-0.12-0.108-0.234-0.17-0.354
		c-0.606-1.323-1.717-1.711-2.776-1.497c-0.659,0.026-1.293,0.317-1.753,0.981c-0.487,0.494-0.81,1.128-0.886,1.844
		c-6.213,13.94-16.881,29.677-34.216,26.615c-9.366-1.656-18.136-8.832-18.984-18.587C675.507,43.951,681.958,36.359,687.917,31.099
		z M822.252,123.677c3.765,1.809,7.679,2.41,11.698,2.349c-23.054,6.734-37.649,29.567-50.246,48.593
		c-13.571,20.497-27.793,46.061-47.649,62.577c9.288-12.042,16.63-26.379,20.829-33.911c22.104-39.599,45.223-78.88,85.333-101.863
		c-6.765,6.411-16.329,9.705-21.01,18.188C820.479,120.931,820.766,122.962,822.252,123.677z M826.496,148.493
		c2.914-0.447,6.14-0.901,9.067-1.729c-13.933,11.524-26.485,24.414-38.009,38.43c-14.464,17.597-32.102,32.463-45.95,50.486
		c-4.397,2.593-8.851,4.94-13.339,7.213c16.317-13.448,27.893-32.577,40.034-49.767c14.637-20.718,29.303-52.139,55.113-60.814
		c-3.666,3.705-7.972,6.938-10.246,11.809C822.009,146.601,823.84,148.901,826.496,148.493z M677.79,364.244
		c11.227-0.121,21.004-8.436,27.126-17.584c0.818,2.537,1.494,5.115,2.098,7.713c-1.101-0.227-2.258,0.152-2.899,1.486
		c-4.206,8.758-13.657,22.775-25.073,19.357C678.791,371.585,678.377,367.91,677.79,364.244z M701.699,340.621
		c-5.039,8.851-14.139,17.906-24.979,17.682c-0.916-4.479-2.062-8.872-3.391-13.059c0.023,0,0.042,0.006,0.063,0.007
		c10.311,0.171,19.957-5.244,25.105-14.029c1.378,2.81,2.669,5.671,3.878,8.585C702.126,340.021,701.894,340.281,701.699,340.621z
		 M694.772,325.512c-3.824,8.684-12.067,13.964-21.56,13.808c-0.739-0.013-1.329,0.204-1.771,0.559
		c-1.226-3.72-2.493-7.421-3.792-11.102c9.095-0.44,16.898-7.034,22.818-13.759c0.018,0.039,0.036,0.083,0.056,0.126
		c1.515,3.255,3.129,6.434,4.743,9.604C695.081,324.961,694.913,325.204,694.772,325.512z M665.798,322.872
		c-0.104-0.002-0.188,0.011-0.289,0.018c-1.371-3.691-2.773-7.37-4.268-11.014c8.497-1.298,17.091-5.903,23.23-12.049
		c0.906,3.145,2.089,6.23,3.333,9.19C682.372,315.581,674.9,323.194,665.798,322.872z M682.952,292.772
		c-0.194,0.146-0.373,0.316-0.544,0.526c-5.511,6.834-14.774,12.002-23.546,12.936c-1.186-2.728-2.367-5.452-3.65-8.144
		c-0.333-0.702-0.676-1.428-1.022-2.165c19.36-4.631,33.866-21.411,37.589-40.775c5.333,1.785,10.924,2.825,16.503,3.07
		c-7.233,3.861-13.928,7.956-19.463,14.781c-0.11,0.13-0.181,0.267-0.261,0.399C683.216,278.908,682.035,285.738,682.952,292.772z
		 M575.332,339.662c-0.322,0.186-0.644,0.369-0.969,0.557c-1.308,0.752-2.667,1.587-4.053,2.448c-1.901-3.812-3.129-7.598-5.8-10.96
		c0-0.167,0.004-0.34-0.03-0.524c-1.182-7.65,1.39-17.287,10.398-18.188c9.013-0.903,15.214,8.197,17.848,15.47
		c0.116,0.338,0.282,0.614,0.482,0.861c-1.54,0.974-3.096,1.916-4.662,2.832c-0.419-1.386-1.34-2.652-2.543-3.729
		c-3.399-3.048-9.372-4.953-12.204-0.155C571.794,331.687,572.929,336.582,575.332,339.662z M582.664,308.532
		c-2.84-1.133-5.992-1.655-9.458-1.307c-6.349,0.634-10.412,4.677-12.643,9.847c1.312-13.731,10.141-26.396,16.959-38.08
		c6.301-10.794,10.29-21.771,12.073-33.564c1.207,5.362,1.979,10.732,1.348,16.539c-0.809,7.41-3.989,14.696-5.838,21.892
		C583.103,291.64,581.112,300.62,582.664,308.532z M546.005,340.382c-5.255,0.051-7.553,5.132-8.666,9.484
		c-0.579,2.236-0.742,6.699,1.027,8.676c-1.655,0.707-3.315,1.412-4.968,2.131c-0.527-0.24-1.151-0.334-1.852-0.201
		c-1.492,0.281-2.775-10.236-2.838-11.075c-0.44-5.63,1.33-12.235,4.908-16.585c4.961-6.002,13.737-4.372,19.838-1.79
		c7.149,3.026,8.69,8.698,11.827,14.83c-2.331,1.469-4.716,2.948-7.118,4.342c0.118-0.412,0.15-0.866,0.072-1.369
		C557.346,343.515,550.969,340.33,546.005,340.382z M498.968,374.177c-0.243,0.141-0.459,0.297-0.65,0.482
		c-1.955,0.578-3.908,1.172-5.863,1.768c-0.643-0.568-1.519-0.873-2.604-0.621c0.885-0.209-1.021-7.508-1.197-9.016
		c-0.569-4.861,0.64-9.709,2.87-14.023c3.438-6.632,13.294-6.698,19.175-4.182c2.825,1.217,5.138,3.346,7.029,5.852
		c0.75,1.832,1.652,3.633,2.869,5.367c0.203,0.289,0.428,0.504,0.666,0.684c0.694,1.555,1.273,3.129,1.73,4.641
		c0.002,0.014,0.013,0.023,0.019,0.027c-2.316,0.959-4.669,1.83-7.037,2.682c-0.083-0.926-0.396-1.926-0.945-2.963
		c-1.864-3.523-4.645-7.092-8.76-7.879c-2.952-0.559-5.773,0.732-7.456,3.176C496.112,364.093,496.108,370.24,498.968,374.177z
		 M515.629,345.451c-8.276-5.85-18.759-7.016-27.563,2.061c-0.048,0.052-0.082,0.113-0.132,0.162
		c2.625-10.73,8.52-20.537,14.64-30.229c10.856-17.203,25.176-32.007,39.992-45.801c13.435-12.51,27.387-24.803,42.075-35.839
		c-0.08,1.176-0.172,2.35-0.295,3.495c-6.19,12.895-16.954,22.492-27.027,33.011c-8.973,9.362-17.238,19.413-24.662,30.048
		C524.564,313.955,514.681,330.345,515.629,345.451z M548.444,291.293c10.074-12.429,22.807-23.136,32.501-35.75
		c-3.286,10.508-8.421,20.259-14.495,30.681c-6.97,11.965-13.47,24.908-11.732,38.926c-1.394-0.564-2.813-1.062-4.159-1.523
		c-7.686-2.613-18.583-0.02-22.966,7.249c-3.979,6.61-5.204,14.008-4.436,21.512C514.384,332.556,537.153,305.226,548.444,291.293z
		 M579.456,232.223c-17.663,13.077-34.274,28.426-50.002,43.759c-21.646,21.088-50.77,53.337-48.777,86.187
		c-5.758-5.361-13.865-8.42-21.714-7.59c-8.068,0.854-13.88,7.643-16.596,15.619c1.486-9.986,4.779-19.248,9.197-28.029
		c0.299-0.336,0.517-0.731,0.618-1.183c3.259-6.295,7.082-12.347,11.239-18.236c0.933-0.357,1.634-1.137,1.612-2.29
		c8.676-11.969,18.573-23.309,27.582-34.738c1.296-0.061,2.553-0.853,2.794-2.503c0.038-0.244,0.056-0.496,0.092-0.739
		c20.019-21.327,43.506-38.507,69.477-51.943c0.239-0.126,0.432-0.263,0.608-0.413c15.606-7.959,31.41-15.312,47.637-21.506
		C601.987,216.51,590.498,224.049,579.456,232.223z M455.142,386.492c0.012,0.018,0.03,0.041,0.042,0.062
		c-2.304,0.699-4.574,1.479-6.834,2.316c-0.01-0.432-0.104-0.887-0.343-1.355c-4.835-9.396,1.767-26.031,12.855-27.203
		c10.591-1.115,21.553,8.572,21.798,19.008c-2.537,0.703-5.094,1.342-7.662,1.926c-0.198-3.967-4.237-8.318-7.562-9.594
		C458.541,368.263,450.838,378.539,455.142,386.492z M420.035,384.306c-6.855,1.174-7.107,9.959-6.115,15.23
		c0.084,0.457,0.323,0.832,0.628,1.168c-3.149,1.223-6.279,2.498-9.41,3.752c-0.596-9.48,0.271-20.432,8.592-26.467
		c7.942-5.764,24.676,0.26,28.005,9.686c0.054,0.16,0.088,0.326,0.14,0.486c0.165,0.523,0.309,1.049,0.375,1.598
		c0.058,0.418,0.188,0.791,0.367,1.119c-3.317,1.094-6.745,1.898-10.027,3.209c-0.006-0.045-0.002-0.082-0.002-0.135
		C432.119,388.642,425.328,383.402,420.035,384.306z M366.648,296.222c2.272-4.019,4.497-8.077,6.893-11.907
		c0.221,0.761,0.461,1.514,0.748,2.244c2.082,5.293,6.987,8.805,9.081,14.126c0.311,0.787,0.842,1.313,1.46,1.629
		c-3.155,3.078-6.287,6.177-9.406,9.298C370,307.201,367.61,302.145,366.648,296.222z M371.239,315.805
		c-3.105,3.125-6.212,6.252-9.334,9.387c-0.082-0.081-0.163-0.169-0.27-0.242c-3.449-2.485-4.392-7.003-4.595-11.524
		c1.478-2.844,2.945-5.685,4.368-8.54c0.313-0.477,0.642-0.943,0.949-1.427C364.019,308.069,366.788,312.208,371.239,315.805z
		 M380.629,285.994c-1.576-2.394-2.296-5.432-2.686-8.605c3.311-5.237,6.478-10.521,9.153-16.106
		c0.058-0.045,0.118-0.091,0.174-0.135c1.153,2.86,1.557,9.76,1.956,11.306c1.616,6.174,6.752,11.01,9.556,16.633
		c-3.365,3.096-6.69,6.228-9.981,9.4C386.77,293.775,383.438,290.281,380.629,285.994z M394.03,266.211
		c-0.431-2.669-0.786-5.988-2.13-8.521c3.171-2.391,6.379-4.731,9.623-7.004c3.104,9.274,6.889,17.783,11.363,25.783
		c-0.17,0.138-0.335,0.307-0.488,0.496c-0.301,0.38-0.627,0.744-0.954,1.097c-0.281,0.121-0.56,0.283-0.822,0.509
		c-2.485,2.112-4.878,4.285-7.294,6.45C399.898,278.644,395.239,273.658,394.03,266.211z M457.428,185.377
		c3.179,1.665,6.037,3.094,9.675,3.211c1.189,0.035,2.688-0.893,2.882-2.16c1.623-10.343,6.111-19.992,6.897-30.44
		c2.775-2.12,5.63-4.182,8.544-6.196c0.09,0.055,0.182,0.109,0.272,0.164c-2.404,15.855-2.307,32.641-9.643,47.221
		c-2.226,4.416-28.296-0.765-42.657-4.226c0.724-0.879,1.432-1.768,2.17-2.637c0.283-0.331,0.461-0.673,0.569-1.013
		c2.746-2.903,5.698-5.587,8.762-8.15C449.191,182.25,453.411,183.268,457.428,185.377z M450.675,176.519
		c6.568-5.078,13.369-9.9,19.568-15.35c-1.364,7.108-4.015,13.961-5.473,21.079c-2.804-0.805-5.325-2.643-8.02-3.742
		C454.759,177.686,452.721,177.077,450.675,176.519z M675.565,86.805c5.012,8.584,17.348,9.725,26.904,8.656
		c8.244-0.92,14.386-5.314,19.055-11.223c-5.377,11.723-12.994,22.34-23.269,29.878c-0.554-0.263-1.229-0.335-1.991-0.111
		c-11.215,3.369-23.416-1.71-25.845-13.899c-0.596-2.992-4.956-2.706-5.726,0.003c-2.784,9.875-26.014,14.066-24.195,0.812
		c0.273-2.014-1.259-3.396-2.808-3.663c0.664-7.731,2.651-15.331,6.283-23.172c1.168-2.517,2.469-5.022,3.873-7.499
		C647.636,81.469,663.678,97.088,675.565,86.805z M749.632,141.269c-4.576-12.953,0.312-28.932,16.826-26.472
		c0.811,0.125,1.501-0.073,2.076-0.422c4.583,0.793,9.235,0.855,13.888,0.988c0.317,0.007,0.616-0.044,0.895-0.107
		c-10.467,5.049-17.249,16.727-15.161,28.549c-18.669-2.523-26.775,15.689-22.226,32.895c-11.36,0.249-19.672,6.719-27.788,15.025
		c-8.204,8.392-7.109,17.702-3.736,27.543c-12.799,2.987-29.695,16.986-24.86,28.705c-3.618-1.666-7.017-3.755-10.098-6.259
		c-0.02-0.07-0.018-0.142-0.042-0.217c-1.69-6.324-5.689-11.69-2.623-18.633c2.83-6.412,12.288-6.706,17.985-8.043
		c1.57-0.368,2.497-2.121,2.088-3.638c-3.259-12.026-5.653-25.662,6.712-33.906c5.095-3.394,14.085-1.995,20.077-3.198
		c1.195-0.228,2.331-1.629,2.194-2.867c-1.482-13.096,2.826-32.598,20.151-26.302C748.046,145.65,750.359,143.311,749.632,141.269z
		 M757.685,73.401c13.29,21.72,47.055,30.998,72.48,24.585c-10.212,6.49-20.508,12.502-33.333,12.865
		c-15.829,0.446-39.838-7.799-37.443-27.065c0.169-1.348-1.055-2.471-2.189-2.859c-6.559-2.223-12.356-6.972-10.389-14.161
		c3.145,1.908,6.634,3.387,10.559,4.323C757.131,71.779,757.177,72.583,757.685,73.401z M764.018,72.138
		c6.215,0.514,11.413-0.706,15.728-3.165c0.066,0.1,0.11,0.192,0.181,0.29c12.009,15.265,33.137,18.504,52.312,21.944
		C809.876,98.526,777.291,91.226,764.018,72.138z M669.839,230.926c-1.776-2.79-3.299-5.786-4.442-9.03
		c-0.754-2.143-1.299-4.281-1.672-6.406c0.002-0.243-0.049-0.471-0.119-0.687c-3.443-22.004,12.691-42.596,29.942-54.719
		c0.055-0.034,0.097-0.076,0.141-0.119c3.626,0.303,7.266,0.11,10.864-0.798c0.539-0.135,0.948-0.376,1.268-0.675
		c5.521-1.059,10.882-2.732,15.875-5.339c-1.63,4.963-2.312,10.531-2.046,15.817c-0.016-0.164-11.992,0.956-13.595,1.193
		c-4.14,0.632-8.43,3.27-10.928,6.609c-8.043,10.738-7.724,20.934-4.77,32.974c-7.625,1.711-13.71,3.093-18.686,10.089
		C669.139,223.4,669.045,227.158,669.839,230.926z M592.114,209.801c0.076,0.388,0.232,0.714,0.413,1.001
		c-9.344,4.11-18.573,8.535-27.734,13.152c1.033-4.342,1.697-8.739,2.575-13.147c1.859-9.35,7.988-17.073,13.702-24.424
		c3.613,3.332,7.416,6.426,11.898,8.718c0.038,0.018,0.084,0.03,0.126,0.05C591.544,199.937,591.037,204.931,592.114,209.801z
		 M484.835,229.606c-3.405,4.791-6.237,9.753-8.698,14.846c-7.288-7.639-13.026-15.939-15.035-26.321
		c4.294-2.352,8.585-4.664,12.938-6.854C477.22,217.452,480.667,223.846,484.835,229.606z M479.375,208.672
		c4.896-2.329,9.879-4.507,15.067-6.452c1.713,8.311,7.226,14.861,14.183,19.852c-3.205,4.84-6.195,9.735-8.798,14.833
		C490.561,230.003,484.605,218.916,479.375,208.672z M472.762,249.518c0.256,0.259,0.525,0.438,0.802,0.584
		c-2.673,6.242-4.966,12.666-7.198,19.229c-12.803-9.101-20.627-25.716-25.139-40.287c4.883-2.631,9.652-5.287,14.392-7.91
		C458.16,232.22,464.74,241.337,472.762,249.518z M469.589,278.283c5.1-15.462,9.867-30.323,19.104-43.8
		c2.567,2.942,5.391,5.611,8.562,7.853c-1.298,2.978-2.461,6.031-3.417,9.206c-2.708,9.004-2.826,18.703-3.947,28.044
		c-8.391,10.839-17.65,21.558-26.108,32.734C462.833,300.725,465.881,289.511,469.589,278.283z M498.683,256.76
		c1.985-11.509,8.531-21.926,14.923-31.495c5.227,2.983,10.895,5.236,16.239,6.787c-0.893,4.543-1.366,9.195-1.391,13.933
		c-11.286,8.051-21.926,16.97-31.795,26.812C497.225,267.44,497.76,262.077,498.683,256.76z M500.071,200.262
		c1.583-0.527,3.135-1.092,4.751-1.563c0.576-0.175,1.005-0.468,1.344-0.827c4.631-1.74,9.266-3.468,13.893-5.191
		c4.031,7.639,9.765,13.812,16.457,19.307c0.042,0.033,0.09,0.051,0.131,0.085c-2.255,4.557-4.082,9.3-5.436,14.191
		C518.833,222.59,502.029,214.323,500.071,200.262z M551.318,190.926c-4.521,4.898-8.495,10.226-11.82,15.889
		c-5.609-4.637-10.364-9.898-13.847-16.222c7.276-2.687,14.564-5.331,21.879-7.891c0.004,0.005,0.004,0.011,0.002,0.018
		C548.055,185.83,549.447,188.53,551.318,190.926z M555.411,195.208c2.445,2.166,5.139,4.091,7.638,5.897
		c0.429,0.312,0.854,0.469,1.273,0.531c-3.361,7.889-3.668,16.354-6.239,24.483c-0.171,0.538-0.177,1.032-0.09,1.495
		c-8.121,4.356-15.958,9.119-23.549,14.224C535.502,224.293,543.675,208.16,555.411,195.208z M553.137,180.734
		c5.408-1.853,10.825-3.64,16.269-5.342c0.136,0.196,0.305,0.388,0.518,0.567c2.364,2.016,4.595,4.167,6.826,6.317
		c-3.622,4.677-7.115,9.25-9.959,14.338c-0.154-0.184-0.335-0.355-0.56-0.517c-5.139-3.713-11.797-8.002-12.928-14.739
		C553.263,181.134,553.208,180.924,553.137,180.734z M575.914,173.389c8.691-2.604,17.441-4.996,26.29-7.053
		c0.794,3.233,2.449,6.098,4.627,8.582c-4.448,3.938-8.594,9.059-11.458,14.735C587.798,185.542,582.249,179.078,575.914,173.389z
		 M611.224,178.937c3.919,2.92,8.612,5.039,13.213,6.289c-3.772,4.94-6.656,10.512-8.455,16.048
		c-6.095,2.226-12.1,4.67-18.082,7.205C595.792,197.5,603.121,185.793,611.224,178.937z M647.49,169.145
		c-0.465,0.112-0.922,0.261-1.382,0.388c-3.836-2.382-7.097-5.365-9.078-9.29c15.658-1.446,31.091-0.493,46.883-0.199
		c-6.342,5.303-11.957,11.41-16.354,18.116c-5.044-1.698-11.034-3.456-16.509-5.993C651.052,170.433,649.684,168.643,647.49,169.145
		z M639.625,172.074c-3.957,2.05-7.587,4.846-10.81,8.112c-8.064-1.646-18.832-6.545-20.876-15.139
		c7.24-1.555,14.53-2.903,21.906-3.961c0.337-0.049,0.658-0.077,0.987-0.117C632.702,165.572,635.83,169.16,639.625,172.074z
		 M645.615,175.92c5.973,3.204,12.711,5.4,18.84,7.454c-0.878,1.644-1.688,3.313-2.41,5.013c-0.157,0.007-0.317,0.012-0.479,0.043
		c-9.717,1.865-19.241,4.283-28.603,7.141c-0.826-0.329-1.787-0.263-2.699,0.453c-0.299,0.237-0.603,0.464-0.898,0.702
		c-2.03,0.643-4.05,1.271-6.053,1.952C627.654,188.927,635.684,179.568,645.615,175.92z M742.61,137.899
		c-6.703-1.035-11.843,1.349-15.567,5.545c-0.571-0.084-1.205,0.053-1.847,0.536c-9.681,7.248-21.012,9.481-32.626,9.995
		c-6.045-0.74-12.135-3.026-17.896-5.543c11.149-2.521,23.044-2.116,33.865-5.867c13.977-4.846,26.491-14.747,37.518-24.641
		C742.493,123.293,741.179,130.448,742.61,137.899z M703.697,137.737c-11.907,3.073-24.536,2.715-36.271,6.563
		c-0.348,0.116-0.62,0.273-0.865,0.456c-0.604-0.273-1.197-0.546-1.788-0.805c-1.886-0.836-3.814-1.803-5.74-2.88
		c9.897,0.575,19.481,0.505,29.253-2.924c14.479-5.083,28.283-15.503,37.691-27.521c4.721,2.032,9.638,3.458,14.714,4.191
		C729.909,124.408,717.43,134.185,703.697,137.737z M650.268,134.538c-0.27-0.022-0.516-0.003-0.757,0.036
		c-1.377-1.146-2.687-2.362-3.916-3.638c18.009-0.68,35.096,0.204,51.467-8.674c7.396-4.015,13.689-10.064,18.92-16.979
		c1.465,0.959,2.975,1.832,4.501,2.671c-9.17,11.258-21.213,18.836-34.453,24.699C674.923,137.576,661.936,135.352,650.268,134.538z
		 M666.929,107.942c3.853,7.418,11.363,11.929,19.596,12.83c-13.182,5.347-28.562,3.752-42.442,4.306
		c-1.157,0.046-1.883,0.62-2.231,1.391c-0.905-1.258-1.711-2.562-2.407-3.91c0.057-0.321,0.061-0.667-0.02-1.031
		c-0.769-3.775-1.288-7.431-1.625-11.035C644.419,117.527,659.597,116.172,666.929,107.942z M661.89,149.141
		c3.353,1.498,6.853,3.133,10.442,4.674c-8.544-0.218-16.942-0.319-25.372,0.013c-1.54-9.841-10.659-17.453-17.889-23.424
		c-1.147-0.941-3.089-1.383-4.2-0.047c-6.506,7.787-10.372,16.801-14.8,25.833c-0.378,0.766-0.401,1.52-0.205,2.181
		c-1.526,0.306-3.036,0.652-4.547,0.976c-1.002-0.264-2.113-0.063-2.854,0.612c-1.321,0.295-2.637,0.634-3.959,0.94
		c5.097-11.019,9.741-22.295,15.882-32.769c3.417-5.837,6.61-11.552,8.411-17.927c3.61,3.363,6.658,7.188,9.604,11.176
		C637.055,134.099,649.997,143.823,661.89,149.141z M631.857,111.102c-2.724-3.167-5.665-6.11-9.093-8.697
		c-1.819-1.376-4.416-0.226-4.741,1.994c-1.452,9.944-7.248,18.019-12.055,26.6c-5.552,9.897-9.65,20.712-14.512,30.974
		c-4.684-5.705-8.725-11.891-13.394-17.578c-5.509-6.728-11.876-12.682-16.402-20.162c3.828-2.239,7.191-5.986,9.632-10.736
		c2.358,7.396,5.975,14.087,10.77,20.341c1.083,1.404,3.963,1.08,4.661-0.575c8.602-20.296,18.419-39.96,31.21-57.931
		c6.327,4.737,10.119,12.295,13.96,19.072C631.286,99.888,631.31,105.45,631.857,111.102z M571.367,145.55
		c5.156,5.786,9.452,12.417,14.256,18.57c-2.397,0.652-4.8,1.328-7.19,2.024c-2.471-6.464-8.52-11.012-13.29-15.778
		c-1.574-1.573-4.344-0.917-4.974,1.25c-2.297,7.929-6.943,14.783-8.15,23.023c-3.512,1.222-6.993,2.498-10.481,3.76
		c3.506-8.875,6.077-18.091,10.251-26.699c3.112-6.43,6.247-12.524,8.387-19.173C563.616,137.087,567.514,141.228,571.367,145.55z
		 M544.981,152.187c-3.899,8.03-6.119,16.817-9.395,25.142c-8.276-3.171-13.83-9.951-20.945-15.136
		c-7.731-5.64-15.677-11.037-23.842-16.045c2.773-1.792,5.59-3.522,8.432-5.175c4.572,3.733,9.397,7.048,14.399,10.212
		c5.483,3.476,9.73,7.833,16.07,9.843c1.524,0.485,3.265-0.495,3.68-2.023c3.137-11.663,6.881-23.427,13.546-33.593
		c0.063-0.108,0.102-0.208,0.16-0.311c2.904,1.3,5.824,1.693,8.632,1.274C553.528,135.567,549.096,143.691,544.981,152.187z
		 M516.013,171.034c4.968,4.301,9.666,8.384,15.44,11.031c-4.601,1.701-9.195,3.413-13.78,5.151
		c-5.305-5.475-11.359-10.076-17.976-13.866c-1.306-0.758-3.341-0.46-4.062,1.01c-3.103,6.324-3.017,13.443-4.347,20.229
		c-0.17,0.858-0.002,1.696,0.397,2.365c-3.98,1.506-7.829,3.193-11.63,4.926c9.953-11.248,9.426-34.109,11.137-48.613
		C499.869,158.616,508.404,164.437,516.013,171.034z M455.837,202.425c2.92,0.531,10.347,3.191,15.846,3.469
		c-3.724,1.869-7.42,3.785-11.101,5.779c-0.183-0.099-0.385-0.193-0.614-0.255c-4.861-1.474-11.084-7.908-16.411-5.152
		c-4.809,2.487-3.269,11.412-2.952,15.661c0.016,0.229,0.07,0.433,0.122,0.64c-1.418,0.765-2.813,1.536-4.242,2.293
		c-0.467,0.25-0.798,0.567-1.043,0.916c-1.855,0.65-3.712,1.46-5.567,2.342c1.444-3.323,1.434-8.189,1.825-11.03
		c0.818-6.027,1.049-12.126,1.166-18.213C440.458,200.354,448.237,201.044,455.837,202.425z M435.933,231.906
		c5.186,16.139,13.996,33.799,28.452,43.258c-0.099,0.301-0.199,0.603-0.303,0.901c-1.692,4.988-3.239,10.039-4.392,15.126
		c-22.301-6.105-31.903-31.052-41.494-49.802c0.744-0.387,1.514-0.761,2.226-1.166C424.887,237.673,430.752,234.028,435.933,231.906
		z M458.773,319.153c-3.21,4.526-6.233,9.154-8.979,13.902c-4.017-13.513-3.417-27.66-4.069-41.743
		c3.821,2.539,8.056,4.514,12.826,5.726C457.39,304.325,457.225,311.707,458.773,319.153z M439.994,286.82
		c-0.249,0.46-0.385,1-0.349,1.639c0.319,4.894,0.449,9.791,0.602,14.671c-15.328-15.838-26.073-33-33.155-54.406
		c-0.165-0.51-0.438-0.913-0.76-1.23c2.088-1.248,4.292-2.396,6.556-3.478c0.016,0.035,0.02,0.058,0.034,0.089
		C420.258,258.435,427.712,275.67,439.994,286.82z M424.471,224.768c-0.624,2.905-4.019,0.583-6.151-0.125
		c-2.599-0.858-5.18-1.783-7.765-2.686c0.604-0.866,1.215-1.732,1.835-2.587c5.116-5.785,9.759-11.953,14.46-18.103
		C426.637,209.16,426.13,217.05,424.471,224.768z M419.869,231.394c0.878,0.287,1.731,0.503,2.573,0.631
		c-4.839,2.77-9.597,5.76-14.163,8.204c-4.801,2.576-9.315,5.512-13.733,8.585c4.129-7.303,8.114-14.689,12.612-21.761
		C411.403,228.477,415.609,230.016,419.869,231.394z M417.821,284.66c2.266,3.48,4.757,6.837,7.35,10.144
		c-0.036,0.061-0.078,0.109-0.112,0.177c-8.01,16.052-10.615,32.676-11.566,49.756c-4.476-7.041-7.585-14.734-10.238-22.699
		c-0.104-0.311-0.247-0.562-0.403-0.787C406.416,308.598,411.524,296.301,417.821,284.66z M411.676,352.58
		c0.425,0.559,0.924,0.896,1.454,1.053c-0.17,5.91-0.223,11.865-0.301,17.881c-6.981,2.885-10.673,9.953-12.386,17.658
		c-4.497-19.219-4.087-38.76-0.098-57.689C403.247,338.958,406.799,346.101,411.676,352.58z M435.941,373.818
		c-5.305-2.805-11.554-4.105-17.201-3.65c0.287-24.312,0.263-47.832,10.575-70.279c3.365,3.937,6.945,7.786,10.842,11.553
		c0.15,0.138,0.299,0.249,0.451,0.352c0.543,9.626,1.761,19.127,5.365,28.337C440.746,350.576,437.052,361.679,435.941,373.818z
		 M593.917,229.95c0.087-0.351,0.095-0.66,0.072-0.954c12.756-8.997,25.913-17.408,38.251-26.998
		c7.158-2.256,14.422-4.233,21.796-5.93c-9.927,18.778-29.296,34.362-49.881,38.945c-0.469,0.104-0.864,0.291-1.197,0.536
		c-2.916-1.861-5.992-3.506-9.247-4.88C593.771,230.426,593.857,230.194,593.917,229.95z M658.489,200.197
		c-0.833,4.62-1.033,9.385-0.506,14.252c-0.044,0.059-0.088,0.107-0.126,0.174c-8.706,15.68-21.708,26.104-37.179,34.676
		c-0.25,0.137-0.463,0.305-0.657,0.484c-3.488-3.54-7.132-6.905-11.001-9.94C629.483,233.988,648.098,218.855,658.489,200.197z
		 M659.62,222.949c0.318,1.136,0.67,2.273,1.07,3.418c0.558,1.582,1.212,3.102,1.93,4.572c-0.196,0.239-0.373,0.51-0.508,0.847
		c-5.06,12.762-15.629,27.635-29.412,31.665c-2.826-3.116-5.664-6.27-8.554-9.368C638.568,245.951,650.586,236.433,659.62,222.949z
		 M666.322,237.03c2.238,3.111,4.833,5.919,7.751,8.37c-0.01,0.059-0.04,0.112-0.05,0.177
		c-2.848,13.488-16.626,26.264-29.069,32.329c-2.188-3.623-4.585-7.027-7.227-9.912C650.588,262.917,660.718,249.489,666.322,237.03
		z M679.185,249.129c2.221,1.435,4.545,2.712,6.965,3.813c-3,17.898-16.431,33.894-34.561,37.511
		c-1.159-2.421-2.395-4.908-3.718-7.381C661.242,276.463,674.866,263.493,679.185,249.129z M698.544,249.482
		c-0.243-0.128-0.478-0.208-0.708-0.263c-12.155-9.19,12.017-24.28,20.587-24.595c1.757-0.065,3.562-1.879,2.85-3.744
		c-4.21-11.101-5.156-18.596,3.858-27.824c7.023-7.182,14.683-11.346,24.925-10.263c1.807,0.187,3.497-2.067,2.852-3.747
		c-5.691-14.835-1.107-34.38,18.595-28.453c2.724,0.823,4.278-2.129,3.348-4.338c-6.077-14.412,7.735-28.888,22.119-27.592
		c1.648,0.148,2.572-0.893,2.783-2.136c2.699-0.147,5.383-0.442,7.988-0.947c2.561-0.495,5.023-1.242,7.432-2.164
		c-17.86,15.246-32.559,34.039-44.991,54.346c-11.078,18.094-20.26,37.27-31.777,55.105
		C731.176,234.048,714.703,258.044,698.544,249.482z M784.51,65.488c3.359-3.108,5.982-7.127,7.984-11.638
		c1.603,4.748,3.858,8.289,9.694,12.093c9.681,6.314,22.881,6.472,32.082,13.451c0.321,0.247,0.638,0.383,0.947,0.479
		c2.793,1.914,5.069,4.524,7.155,7.266C822.417,83.129,797.626,81.656,784.51,65.488z M687.919,74.944
		c15.412,7.021,28.308-0.626,37.419-12.095c-0.034,0.592-0.068,1.174-0.104,1.765c-3.797,10.614-9.473,21.702-21.349,24.628
		c-8.221,2.031-22.357,1.213-24.432-8.816c-0.562-2.688-4.087-2.719-5.419-0.741c-8.729,12.933-21.655-4.082-20.315-13.91
		c0.295-2.167-1.5-3.609-3.171-3.704c6.945-10.929,16.12-20.92,26.627-27.879C666.944,48.565,668.919,66.28,687.919,74.944z
		 M626.912,50.22c0.476-0.278,0.809-0.629,1.041-1.01c4.953-1.788,10.242-3.083,15.015-4.922c6.31-2.42,12.524-4.806,19.064-6.529
		c0.769-0.194,1.282-0.605,1.617-1.108c0.354-0.14,0.724-0.228,1.085-0.35c-10.229,9.132-18.213,20.754-24.803,32.714
		c-2.941,5.348-5.04,10.773-6.413,16.274c-3.841-6.507-8.23-12.771-14.819-16.612c-1.496-0.875-3.101-0.257-4.057,1.042
		c-12.731,17.346-22.526,36.352-31.065,56.014c-3.474-5.359-5.999-11.101-7.595-17.432c-0.181-0.699-0.529-1.208-0.963-1.558
		c5.511-9.084,12.564-16.703,19.357-25.216C603.917,69.591,613.553,58.042,626.912,50.22z M498.81,16.367
		c0.105,0.324,0.261,0.64,0.503,0.952c7.585,9.728,16.084,18.585,24.505,27.568c7.023,7.495,12.086,16.192,18.812,23.831
		c4.239,4.796,8.267,5.702,12.011,4.512c7.218,2.044,13.874-10.963,16.335-15.852c4.296,1.522,8.796,2.262,13.373,2.587
		c-9.623,6.026-15.244,14.297-21.019,25.646c-10.589,20.803-26.914-11.43-34.488-19.905c-25.437-28.434-61.439-47.296-97.811-58.824
		C452.863,3.833,477.878,8.405,498.81,16.367z M420.192,17.791c-0.307-0.084-0.592-0.106-0.865-0.114
		c-2.082-3.318-2.657-6.368,0.289-8.07c0.11,0.045,0.196,0.09,0.299,0.125c43.038,12.13,86.96,34.389,113.389,71.432
		c4.389,6.155,14.685,21.966,24.481,18.164c5.221-2.03,7.914-5.926,10.651-10.694c7.268-12.604,12.131-21.812,26.615-27.517
		c0.708-0.269,1.193-0.729,1.52-1.258c3.743-0.393,7.299-1.044,10.798-1.986c-11.72,11.242-21.188,24.938-32.09,37.017
		c-6.972,7.736-8.307,21.634-18.792,25.802c-10.414,4.141-20.759-15.644-25.038-22.242
		C506.683,60.284,463.701,30.205,420.192,17.791z M256.809,432.738c-1.53-1.613-3.252-3.066-5.12-4.299
		c-0.525-0.346-1.053-0.619-1.577-0.854c2.176-2.67,4.177-5.512,5.907-8.604c0.133-0.162,0.235-0.352,0.335-0.559
		c0.023-0.033,0.045-0.068,0.066-0.102c0.014-0.018,0.021-0.031,0.025-0.057c1.715-3.912,5.239-6.607,8.151-9.604
		c3.698-3.805,6.664-8.689,9.587-13.088c0.184-0.285,0.299-0.551,0.371-0.818c3.896-4.104,7.196-9.631,10.164-14.252
		c5.17-8.037,11.015-15.73,15.843-24.006c0.21-0.355,0.316-0.699,0.369-1.035c4.246-8.363,10.124-15.691,14.987-23.675
		c0.178-0.211,0.344-0.451,0.476-0.767c0.002,0,0-0.01,0.007-0.009c0.055-0.09,0.089-0.186,0.129-0.276
		c2.936-6.93,7.223-13.004,11.247-19.331c4.709-7.396,8.17-15.754,12.429-23.438c0.159-0.274,0.245-0.542,0.303-0.813
		c2.636-3.089,3.965-6.961,5.671-10.667c2.246-4.893,5.865-8.556,7.486-13.799c6.345-9.013,9.841-19.582,15.97-28.748
		c0.112-0.167,0.189-0.322,0.26-0.487c3.715-5.466,7.989-10.508,11.757-15.92c0.269-0.378,0.425-0.746,0.483-1.107
		c4.438-6.335,10.252-11.543,14.75-17.825c0.319-0.15,0.618-0.373,0.908-0.692c8.456-9.517,16.838-19.078,26.327-27.596
		c0.417-0.37,0.666-0.77,0.808-1.178c11.098-6.959,19.953-17.667,30.223-25.757c9.688-7.63,16.202-16.243,21.509-26.771
		c0.369-0.26,0.688-0.632,0.915-1.17c0.596-1.396,1.071-2.783,1.488-4.17c8.108-1.091,17.536,6.246,24.959,2.145
		c5.651-3.12,5.396-7.871,2.368-13.025c-4.403-7.521-13.084-13.101-19.543-18.668c-12.896-11.116-25.184-22.918-36.5-35.65
		c-0.566-0.636-1.217-0.918-1.859-0.947c-4.835-4.065-10.148-7.533-14.56-12.05c-0.118-0.51-0.417-1.006-0.946-1.444
		c-1.188-0.977-3.712-3.048-6.38-5.578c25.576,8.778,47.721,23.533,68.848,40.527c10.715,8.623,20.045,19.698,28.135,30.776
		c5.594,7.657,10.036,15.898,16.658,22.793c0.634,0.659,1.275,1.261,1.923,1.808c-0.108,0.126-0.229,0.247-0.318,0.402
		c-6.332,9.663-10.187,20.764-13.299,31.857c-3.602-1.687-6.645-4.148-9.841-6.618c-4.486-3.471-9.315-6.333-13.838-9.728
		c0.9-0.485,1.793-1.021,2.697-1.485c5.052-2.62,10.063-4.219,10.924-10.385c0.185-1.298-0.6-2.649-1.823-3.123
		c-6.337-2.452-14.734,4.222-19.874,7.384c-11.894,7.312-25.087,14.29-35.935,23.228c-0.148,0.068-0.301,0.135-0.449,0.23
		c-16.624,10.738-34.403,24.677-47.417,39.936c-4.065,4.15-8.074,8.347-11.945,12.688c-10.533,11.809-19.943,24.514-27.918,38.144
		c-0.339,0.493-0.674,0.992-1.011,1.481c-2.396,3.447-4.458,7.048-6.464,10.674c-18.1,26.665-29.533,57.688-45.098,86.008
		c-2.486,3.961-5.017,7.889-7.817,11.641c-0.384,0.516-0.556,1.045-0.59,1.555c-0.282,0.4-0.559,0.803-0.846,1.197
		c-0.034,0.047-0.076,0.074-0.112,0.123c-1.042,1.355-2.035,2.752-3.01,4.164c-0.115,0.154-0.232,0.32-0.348,0.477
		c-0.072,0.098-0.12,0.197-0.178,0.297c-4.919,7.244-9.126,15.049-13.88,22.453c-5.113,6.098-9.749,12.562-14.885,18.664
		c-6.18,7.332-14.738,12.426-21.159,19.617c-1.484,1.662-0.502,3.564,1.074,4.316c0.892,1.086,2.437,1.645,3.896,0.605
		c0.516,0.004,1.05-0.121,1.58-0.426c3.021-1.75,5.755-3.975,8.308-6.457c5.499-3.133,9.808-7.633,13.991-12.318
		c4.32-3.873,8.456-7.938,12.364-12.232c3.687-3.457,7.363-6.955,11.039-10.535c13.851-13.498,28.268-25.762,40.533-40.806
		c3.068-3.013,6.116-6.048,9.125-9.128c16.399-16.801,32.64-33.378,50.244-48.795c-16.569,32.713-23.519,69.747-14.608,105.698
		c-7.338-4.908-17.103-7.393-24.058-5.9c-13.908,2.988-20.551,17.09-20.078,30.373c-8.031-5.672-19.036-6.939-28.311-3.355
		c-9.807,3.787-17.178,15.859-16.697,26.799c-6.499-2.965-14.154-4.141-19.216-2.742c-6.648,1.842-13.749,11.875-14.181,19.926
		c-4.393-1.865-8.519-2.82-7.918-9.555C265.391,441.929,261.845,436.244,256.809,432.738z M357.742,329.358
		c-0.752,0.749-1.498,1.499-2.252,2.249c-2.777,2.763-5.583,5.483-8.386,8.213c-0.631-1.51-1.294-3.008-1.929-4.516
		c2.551-4.512,5.048-9.048,7.499-13.608C353.648,324.613,355.217,327.262,357.742,329.358z M342.745,344.085
		c-1.958,1.883-3.93,3.748-5.896,5.618c1.57-2.66,3.124-5.322,4.672-8.006c0.188,0.447,0.383,0.893,0.561,1.346
		C342.245,343.457,342.479,343.804,342.745,344.085z M366.236,417.736c0.635,1.305,1.474,2.189,2.423,2.773
		c-3.342,1.6-6.661,3.232-9.908,5.01c-0.212-0.361-0.447-0.688-0.673-1.031c0.02-0.324,0.004-0.652-0.092-1.012
		c-2.848-10.676,0.65-26.5,12.501-30.398c8.943-2.941,26.04,3.547,28.857,13.602c-1.502,0.549-3.004,1.084-4.534,1.568
		c-0.243,0.076-0.47,0.18-0.668,0.301c-2.644,0.578-5.196,1.668-7.693,2.932c-1.554-7.77-11.73-10.98-18.026-6.211
		C364.547,408.216,364.212,413.578,366.236,417.736z M340.204,434.08c-0.682-3.779-4.195-6.885-7.864-7.629
		c-3.469-0.719-6.477,1.061-8.358,3.885c-2.999,4.49-2.355,11.42,1.918,14.59c-2.942,1.631-5.86,3.301-8.702,5.105
		c-0.97-1.91-2.493-3.643-4.333-5.186c-2.038-4.74,0.533-10.574,1.936-15.131c2.049-6.668,7.831-9.82,14.022-11.6
		c8.967-2.588,20.326,2.539,24.883,10.533c-3.858,2.688-8.515,4.705-12.584,7.084c-0.264,0.152-0.516,0.316-0.774,0.473
		C340.353,435.488,340.327,434.777,340.204,434.08z M288.914,468.71c-0.549,0.4-1.096,0.805-1.634,1.219
		c-2.738-2.904-5.405-5.742-8.462-8.271c0.116-0.578,0.08-1.215-0.202-1.873c-0.567-1.34,1.408-5.047,1.835-6.43
		c1.245-3.963,3.566-7.164,7.134-9.301c3.999-2.387,14.598,0.232,20.568,4.465c0.25,0.324,0.549,0.541,0.883,0.684
		c1.509,1.227,2.641,2.545,3.113,3.908c0.021,0.076,0.054,0.139,0.091,0.209c-0.954,0.521-2.009,0.91-2.935,1.457
		c-0.965,0.568-1.821,1.41-2.721,2.09c-0.702,0.523-1.638,0.805-2.395,1.26c-0.491,0.299-0.825,0.676-1.056,1.08
		c-0.228,0.182-0.473,0.334-0.695,0.51c-0.851-5.213-8.434-8.6-13.012-6.506c-3.038,1.4-4.028,4.873-4.202,7.955
		C285.055,464.205,287.113,466.515,288.914,468.71z M605.365,339.14c-0.483,0.326-0.805,0.738-1.027,1.175
		c-7.013,4.63-13.716,9.762-21.356,13.349c-0.504,0.24-0.86,0.547-1.105,0.898c-3.441,2.051-6.716,4.373-10.344,6.119
		c-4.787,2.303-9.875,3.588-14.584,6.213c-0.355,0.201-0.63,0.445-0.853,0.705c-7.296,3.379-14.167,7.738-21.973,9.834
		c-0.491,0.127-0.885,0.348-1.201,0.615c-6.829,2.523-13.134,6.518-20.412,7.66c-0.758,0.117-1.285,0.447-1.639,0.875
		c-11.377,4.955-23.161,8.877-34.771,13.227c-0.538,0.201-0.949,0.508-1.259,0.869c-4.709,2.064-9.775,3.094-14.692,4.643
		c-0.694,0.219-1.197,0.605-1.541,1.09l-12.085,3.822c-3.903,1.23-7.166,3.959-11.411,3.969c-0.895,0.002-1.557,0.338-2.034,0.824
		c-4.111,1.836-8.415,3.23-12.783,4.34c-0.443,0.107-0.806,0.291-1.109,0.525c-15.91,5.611-31.615,11.691-47.565,17.199
		c-0.498,0.176-0.89,0.445-1.2,0.754c-8.125,3.031-16.502,6.094-24.415,9.566c-27.133,11.908-67.928,36.801-77.147,44.703
		c2.587-3.076,6.088-5.559,9.219-7.902c0.059-0.041,0.088-0.08,0.144-0.129c2.961-2.371,5.984-4.645,9.095-6.83
		c2.491-1.744,4.782-3.758,7.399-5.307c0.453-0.107,0.906-0.326,1.33-0.719c3.635-3.328,8.394-5.098,12.042-8.451
		c0.056-0.043,0.079-0.088,0.122-0.131c1.386-0.84,2.717-1.648,4.024-2.709c1.405-1.131,3.168-1.629,4.657-2.674
		c0.103-0.053,0.208-0.1,0.312-0.176c5.527-3.783,11.425-6.924,17.316-10.121c0.555-0.305,0.922-0.693,1.17-1.131
		c1.144-0.986,2.793-1.375,4.038-2.225c1.768-1.211,3.565-2.275,5.413-3.354c3.8-2.215,8.147-4.057,11.708-6.588
		c0.304-0.215,0.539-0.467,0.732-0.734c0.13-0.061,0.275-0.109,0.408-0.188c6.065-3.6,12.397-6.623,18.816-9.531
		c6.073-2.756,12.336-7.523,18.86-8.928c0.403-0.086,0.73-0.24,1.013-0.434c7.34-2.346,14.342-5.586,21.553-8.262
		c0.261-0.102,0.49-0.238,0.696-0.371c4.723-1.531,9.678-3.176,14.265-5.037c4.284-1.744,8.72-2.799,13.005-4.352
		c0.259-0.027,0.514-0.072,0.798-0.172c4.218-1.531,8.305-3.301,12.699-4.24c4.515-0.977,9.105-1.758,13.447-3.334
		c0.379-0.139,0.7-0.336,0.967-0.566c9.113-1.855,17.939-4.848,26.857-7.469c0.642-0.188,1.115-0.527,1.458-0.938
		c7.147-2.887,14.235-5.326,21.552-7.801c7.452-2.514,14.588-6.299,21.901-9.422c0.331,0.033,0.688,0.008,1.067-0.096
		c9.584-2.721,18.065-9.992,26.94-14.48c10.06-5.095,20.191-10.859,29.264-17.654c0.413-0.027,0.841-0.147,1.277-0.399
		c3.131-1.761,5.375-4.3,7.619-6.929c1.115,3.162,2.063,6.362,2.965,9.59c-0.917-0.343-1.97-0.207-2.845,0.765
		C610.091,335.002,607.939,337.369,605.365,339.14z M611.716,351.224c-0.692-2.453-1.469-4.885-2.415-7.289
		c0.181-0.226,0.318-0.457,0.415-0.706c2.417-1.868,4.564-4.026,6.61-6.31c0.008-0.01,0.018-0.023,0.026-0.035
		c0.065,0.23,0.13,0.467,0.192,0.697c0.742,2.839,1.27,5.75,1.851,8.635C616.565,348.393,614.269,350.013,611.716,351.224z
		 M620.169,352.851c0.373,1.15,0.714,2.301,0.964,3.475c-0.665,0.314-1.205,0.916-1.434,1.867c-0.734,3.053-2.902,5.473-5.236,7.666
		c-0.305-2.951-0.728-5.895-1.321-8.795C615.663,355.957,618.083,354.609,620.169,352.851z M614.913,386.314
		c0.523-0.08,1.049-0.328,1.53-0.785c3.026-2.885,6.434-5.189,9.396-8.045c0.449,2.984,0.824,5.988,1.163,9.004
		c-3.01,4.082-7.797,6.369-12.622,7.83C614.598,391.654,614.791,388.982,614.913,386.314z M623.777,371.029
		c-2.322,3.174-5.604,5.408-8.67,7.844c0-1.83-0.021-3.656-0.1-5.48c0.008-0.004,0.018-0.01,0.025-0.012
		c2.908-2.758,6.153-5.523,8.321-8.934c0.463,1.906,0.874,3.844,1.264,5.799C624.31,370.443,624.024,370.689,623.777,371.029z
		 M619.542,326.069c-0.782-2.525-1.659-5.01-2.598-7.474c0.612-0.684,1.117-1.458,1.469-2.235c1.179-2.597,1.566-5.199,0.337-7.833
		c-2.28-4.902-8.341-4.462-11.704-1.103c-3.504,3.498-3.193,8.427,0.1,11.594c-1.081,1.255-2.18,2.473-3.461,3.533
		c-0.618,0.03-1.246,0.237-1.815,0.694c-1.224,0.979-2.48,1.91-3.756,2.812c-0.308-0.792-0.645-1.573-0.991-2.351
		c0.057-0.549-0.044-1.139-0.373-1.753c-7.117-12.899,10.619-24.954,21.938-18.88c8.377,4.489,8.331,14.371,3.285,20.602
		c-0.363,0.263-0.662,0.604-0.9,0.989C620.592,325.164,620.088,325.638,619.542,326.069z M613.793,400.63
		c5.07-1.318,9.972-3.361,13.975-6.621c0.215,2.209,0.403,4.391,0.592,6.578c-4.471,4.527-9.739,6.996-15.557,8.895
		C613.16,406.541,613.491,403.599,613.793,400.63z M612.002,415.935c6.205-1.842,11.987-4.152,17.009-8.025
		c0.097,1.064,0.19,2.154,0.287,3.209c0.15,1.65,0.242,3.299,0.305,4.951c-0.392,0.213-0.748,0.52-1.053,0.963
		c-3.879,5.617-11.378,10.123-18.481,10.227C610.835,423.505,611.513,419.732,612.002,415.935z M599.556,478.607
		c-0.523-1.447-0.712-3.066-0.712-4.746c3.887,3.084,9.452,4.471,14.141,4.668c5.325,0.209,9.888-3.152,13.985-6.959
		C622.433,479.005,604.919,493.22,599.556,478.607z M629.837,460.58c-4.147,3.625-7.721,7.854-12.522,10.666
		c-4.161,2.422-14.738,1.092-16.735-4.115c-0.146-0.391-0.357-0.707-0.592-0.982c0.251-1.02,0.531-2.047,0.83-3.049
		c10.834,2.246,21.082,0.213,28.442-7.609c0.158,1.568,0.367,3.133,0.632,4.693C629.868,460.31,629.864,460.447,629.837,460.58z
		 M628.849,447.011c-0.478,0.215-0.933,0.568-1.284,1.115c-5.896,9.076-15.144,11.221-25.04,9.271
		c0.206-0.682,0.402-1.363,0.556-1.98c0.638-2.471,1.293-4.938,1.94-7.402c8.596,0.715,17.675-1.365,23.898-7.039
		C628.853,442.988,628.839,444.992,628.849,447.011z M629.384,430.214c-0.062,0.113-0.126,0.201-0.185,0.324
		c-4.097,9.043-13.429,12.045-22.678,11.643c0.779-3.037,1.56-6.072,2.278-9.121c7.637,0.207,15.241-3.033,20.803-8.303
		C629.548,426.578,629.472,428.396,629.384,430.214z M657.997,477.369c-0.469,0.658-0.593,1.301-0.499,1.879
		c-1.597,1.588-3.243,3.127-5.027,4.543c-3.071,2.459-6.641,4.129-10.615,4.053c-6.703-0.121-6.863-7.24-6.589-12.408
		c0.139-0.346,0.217-0.729,0.217-1.162c-0.006-3.635-0.375-7.344-0.046-10.98c0.28-0.531,0.325-1.096,0.198-1.621
		c0.055-0.32,0.091-0.637,0.159-0.955c0.12-0.645,0.046-1.213-0.145-1.697c-0.015-0.076-0.013-0.141-0.022-0.219
		c-3.008-16.924,0.841-34.75-0.776-51.904c-1.504-16.061-2.471-33.504-7.031-49.016c-0.12-0.432-0.322-0.789-0.562-1.078
		c-0.59-5.567-3-11.172-4.104-16.629c-0.527-2.6-1.152-5.198-1.818-7.783c6.145,7.336,8.922,21.811,11.634,30.861
		c3.396,11.332,4.894,23.201,6.538,34.877c1.572,11.135,3.048,22.057,3.099,33.322c0.016,3.27,0.114,6.646,0.214,10.08
		c-0.16,2.334-0.332,4.674-0.455,7.033c-0.06,1.203,0.209,2.236,0.666,3.119c0.022,6.871-0.305,13.705-1.681,20.023
		c-0.816,3.734,4.952,5.137,5.764,1.395c0.076-0.35,0.116-0.701,0.185-1.055c9.121-9.42,12.753-23.02,14.434-35.691
		c0.975-7.326,0.394-14.084-0.806-20.68c-0.339-6.922-1.58-13.789-3.424-20.736c-2.144-8.064-4.486-16.016-6.369-24.158
		c-1.561-6.758-6.478-12.09-8.487-18.744c-0.396-1.305-1.366-1.918-2.413-2.014c-2.737-8.554-6.546-16.552-12.61-23.699
		c6.632-9.542,3.837-24.198-8.341-29.542c-12.147-5.33-26.349,3.559-29.329,15.205c-5.97-10.851,1.362-28.629,4.402-38.953
		c3.877-13.158,2.104-23.636-0.851-36.081c14.867,6.812,25.717,20.553,36.522,32.357c0.464,0.506,0.975,0.77,1.486,0.867
		c7.302,7.015,12.452,19.025,16.923,27.566c7.574,14.492,12.869,30.104,17.913,45.615c0.08,0.252,0.192,0.471,0.311,0.672
		c4.454,12.877,7.134,27.887,6.685,41.402c-0.044,1.305,0.624,2.129,1.522,2.516C677.55,418.412,676.229,451.763,657.997,477.369z
		 M682.428,446.029c-0.592,0.301-1.093,0.814-1.374,1.6c-1.677,4.592-4.346,8.777-7.336,12.73
		c2.644-6.883,4.494-14.066,5.771-21.402c0.145-0.008,0.287-0.008,0.438-0.037c3.407-0.609,6.436-1.98,9.302-3.684
		C687.051,438.904,684.796,442.554,682.428,446.029z M700.235,414.914c-0.21,0.357-0.316,0.711-0.373,1.061
		c-1.818,2.393-3.185,5.041-4.482,7.732c-4.736,3.486-9.287,7.32-14.946,8.986c0.489-3.809,0.848-7.641,1.066-11.486
		c7.354,0.662,14.095-3.576,19.945-8.561C701.045,413.421,700.648,414.189,700.235,414.914z M709.755,390.271
		c-0.953,3.176-2.016,6.594-3.201,9.998c-0.435,0.127-0.864,0.352-1.266,0.729c-5.743,5.457-14.656,15.557-23.534,14.295
		c0.108-4.369,0.098-8.738-0.057-13.078c0.211-0.027,0.426-0.08,0.646-0.154c10.354-3.611,20.104-8.697,27.092-16.717
		c-0.068,1.029-0.092,2.061-0.187,3.086C709.184,389.22,709.388,389.824,709.755,390.271z M709.641,374.576
		c-5.908,11.164-16.504,17.334-28.233,21.523c-0.27-4.541-0.638-9.035-1.096-13.449c-0.04-0.422-0.16-0.783-0.326-1.102
		c12.401,1.994,22.843-10.488,28.299-20.803C709.04,365.318,709.48,369.943,709.641,374.576z M781.23,235.604
		c-10.682,8.072-25.34,11.359-35.498,20.249c-5.324,4.659-9.104,11.306-3.569,15.362c-6.793,4.582-14.129,8.105-22.538,7.765
		c-2.4-0.089-3.228,2.21-2.573,3.973c-0.008,0.46,0.078,0.934,0.309,1.417c2.924,6.012,4.979,12.066,5.278,18.677
		c-0.284,0.453-0.453,0.982-0.44,1.641c0.046,1.735,0.067,3.458,0.094,5.192c-1.797-5.406-3.828-11.896-6.971-16.277
		c-1.313-3.432-3.586-6.168-7.335-6.678c-0.431-0.062-0.836-0.028-1.201,0.063c-2.438-0.64-4.669,0.565-6.097,5.188
		c-1.022,3.314-0.217,6.647,0.795,9.795c2.015,6.283,4.793,12.098,6.485,18.594c1.41,5.38,4.568,10.553,6.436,15.862
		c2.551,7.258,3.183,14.75,2.878,22.391c-0.02,0.455,0.05,0.848,0.185,1.193c-0.489,3.674-1.247,7.316-2.146,10.934
		c-0.997-14.703-4.861-29.062-11.359-42.497c-6.512-13.479-24.809-38.818-10.016-52.078c0.361-0.322,0.605-0.67,0.756-1.026
		c8.247-9.233,20.233-13.417,31.206-18.866c9.755-4.845,30.221-15.281,30.712-15.859c5.959-2.156,34.309-22.28,49.172-32.817
		C801.704,214.833,788.044,228.772,781.23,235.604z M852.271,159.542c-0.622,0.045-22.089,20.68-25.062,23.204
		c-0.014,0.011-45.595,39.477-57.79,41.759c9.279-9.484,19.15-18.417,27.449-28.826c12.171-15.273,25.103-29.439,39.825-42.055
		c-1.534,2.776-3.185,5.483-4.812,8.231c-1.552,2.603,1.454,5.483,4.027,4.081c5.21-2.818,17.027-7.213,17.277-6.987
		C852.88,159.137,852.589,159.358,852.271,159.542z M857.995,155.3c-18.314-14.438-11.059-40.324-6.131-62.223
		c0.208,0.049,0.405,0.134,0.621,0.144c0.35,0.036,0.698,0.008,1.035-0.091c0.093-0.02,0.108-0.011,0.154-0.025
		c0.015,0.004,0.022,0.008,0.036,0.014c-0.038,0.01-0.02,0.01-0.09,0.039c0.05-0.005,0.096-0.015,0.148-0.011
		c0.32,0.108,0.668,0.175,1.075,0.156c5.707-0.24,11.423-0.814,17.148-1.509c-12.414,13.928-12.137,41.513,1.765,53.521
		C869.945,147.358,859.788,153.633,857.995,155.3z M893.636,135.835c-4.959,1.747-9.759,3.766-14.352,6.256
		c-15.69-10.511-13.446-46.358,5.732-51.931c0.105-0.031,0.194-0.079,0.29-0.117c3.357-0.458,6.719-0.909,10.084-1.317
		c-5.166,4.991-7.697,11.123-8.297,20.447c-0.642,10.048,3.981,18.803,11.308,25.093
		C896.845,134.853,895.259,135.394,893.636,135.835z M904.446,131.725c-0.183-0.238-0.393-0.472-0.668-0.677
		c-7.506-5.512-10.657-12.722-10.751-21.893c-0.118-11.134,5.551-16.757,14.091-21.58c2.492-0.191,4.993-0.371,7.49-0.532
		c-3.026,4.326-4.727,9.736-5.771,15.138c-1.813,9.43,1.231,17.613,7.733,24.066C912.446,127.89,908.485,129.883,904.446,131.725z
		 M922.871,124.115c-0.11-0.124-0.204-0.241-0.335-0.349c-5.918-5.12-8.569-10.566-8.154-18.453
		c0.331-6.492,3.156-14.927,8.866-18.75c2.505-0.12,5.006-0.258,7.505-0.357c0.397-0.009,0.788-0.029,1.177-0.046
		c0.249,0.029,0.518,0.015,0.803-0.027c1.502-0.05,3.004-0.126,4.5-0.181c-7.989,9.288-13.271,24.458-6.422,34.475
		C928.263,121.784,925.614,123.002,922.871,124.115z"/>
</g>
</svg>
