<?xml version="1.0" encoding="utf-8"?>
<!-- Generator: Adobe Illustrator 25.2.0, SVG Export Plug-In . SVG Version: 6.00 Build 0)  -->
<svg version="1.1" id="Layer_1" xmlns="http://www.w3.org/2000/svg" xmlns:xlink="http://www.w3.org/1999/xlink" x="0px" y="0px"
	 width="635.5px" height="745.7px" viewBox="0 0 635.5 745.7" style="enable-background:new 0 0 635.5 745.7;" xml:space="preserve"
	>
<style type="text/css">
	.st0{fill:#00BAD6;}
</style>
<path class="st0" d="M633,250.7c-4.7-25.1-19.9-45.8-40-60.8c-6.2-46.3-17.9-92.8-55.8-123.7C502.4,38.1,455,37.9,412.5,39.8
	c-0.2-0.2-0.3-0.4-0.5-0.6c-0.7-0.7-1.5-1.4-2.2-2C383.6,7,341-3.4,299.3,1c-39.9,1.3-78.4,16.2-100.4,47c-1,1.1-2,2.2-3,3.4
	c-0.2,0.2-0.3,0.4-0.4,0.6c-42.4,3-89.5,8.5-120.8,40.5C40.5,127.4,34.2,175,33.2,221.7c-18.4,17.1-31.1,39.5-32.9,64.9
	c-1.7,23.7,2.9,46.9,9.1,69.7c3.6,13.3,7,26.9,11,40.4c-0.2,1.1,0,2.4,1,3.7c0.1,0.1,0.1,0.1,0.2,0.2c4.1,13.6,8.8,27,14.8,39.6
	c12.1,25.1,30.4,45.5,51.1,63.9c22.8,20.2,48.2,36.5,72.5,54.8c14.9,11.3,29.4,23.1,43.3,35.6c-18.9,13.4-34,33.3-44.5,53.7
	c-10.7,20.8-18.5,46-8.5,68.6c11.6,26,44.3,30.7,69.3,28.5c35.6-3.1,67.6-21.5,101-32.5c1.1-0.4,2-1,2.7-1.8
	c6.2,1.6,12.8,2.8,13.7,2.7c2.1-0.1,7.9-0.4,8.8-0.7c0.3,0,0.7,0,1,0c0.9-0.1,6.2-1.4,8.1-1.9c15.8,0.9,31.7,0.9,47.4,3.3
	c19.6,3,34.5,15.4,52,23.5c28.6,13.3,59.6-2.9,70.5-31.3c9.3-24.2,0.3-52.5-9.8-74.9c-9.9-22-24-43.2-40.5-61
	c9.9-10.7,20.2-21.1,30.8-31.2c22-21,45.4-40,65.8-62.7c18.5-20.6,34.4-43,43.5-69.3c4.6-13.2,7.7-27.1,10.2-41.1
	c0-0.1,0.1-0.1,0.1-0.2c0.8-1.4,0.9-2.6,0.6-3.8c2.4-13.8,4.2-27.8,6.3-41.4C635.4,297.7,637.3,274.1,633,250.7z M623,258.8
	c0.4,2.8,0.8,5.6,1,8.3c-31.7,30.7-57.7,66.2-84.2,101.3c-11.8,15.6-25.3,29.8-38.8,44c4.7-7.1,9.5-14.2,14.3-21.2
	c18.4-26.6,35.3-53.8,51.6-81.8c15.2-26.1,29.5-53.7,47-78.5C618.3,239.4,621.4,248.7,623,258.8z M607.4,220.5
	c-18,24.6-32.4,52.4-47.7,78.8c-17,29.2-34.5,57.6-53.8,85.4c-13.7,19.8-26.9,40.3-39.5,61.1c1-2.3,1.9-4.6,2.9-6.8
	c0.1-0.2,0.2-0.4,0.3-0.7c2.1-3.8,17.1-37.5,18.5-40.3c13.9-29.1,28.9-57.7,43.9-86.3c11.6-22.1,35.2-72,38.1-76
	c6.4-11.3,13.5-22.2,21.7-32.3C597.8,208.7,603,214.4,607.4,220.5z M317.2,618.6c-1.2-7.3-2.4-14.6-3.7-21.8
	c8.6-6.9,16.1-14.4,21.4-23.5c0.3,7.3,0.6,14.7,0.9,22c-0.6,0.6-1.1,1.3-1.4,2.4C331.6,606.9,324.7,613.2,317.2,618.6z M116,273.7
	c-4.5-7.6-7.8-15.6-11.7-23.5c-0.2-0.5-0.5-0.9-0.9-1.3c1.2-3.3,2.2-6.7,2.8-10.2c0.6-3.3,1.5-8,2-13c14.1,19,25.7,43.6,32.3,65.6
	c3.7,12.1,5.3,24.9,8.5,37.2c1,4,1.4,8,1.8,12c-6.9-2.5-14.2-9.1-19.7-12.2c-3.9-2.2-7.3-5.4-10.9-8c-4.5-3.2-9.9-4.8-14.6-7.7
	c0,0-0.1,0-0.1,0c-8.1-12.4-15.9-25.2-24-37.6c0.4-0.2,0.8-0.5,1.2-0.7c0.2,0.3,0.5,0.5,0.8,0.7c10.4,8,18.9,17.5,32.3,20
	c2.8,0.5,6.2-2.3,6.1-5.2C121.8,283.8,118.9,278.7,116,273.7z M185.7,240.4c-4.2-19.2-17.7-33.8-24.3-52c-0.5-1.3-1.5-2.1-2.6-2.6
	c1.8-4.7,2.9-9.6,3.4-14.4c11.7,18.6,20.2,38.9,31.6,57.6c5.9,9.6,10.9,19.8,15.2,30.2c2.3,5.5,4,11.1,5.5,16.8
	c0.8,2.9,1.9,16.8,3.6,16.8c-6.2,0.2-16.2-8-21.4-10.9c-10.8-6.2-21.3-12.6-31.4-19.9c-17.4-12.5-28.6-30-43.5-44.5
	c4.4-1.1,8.8-2.8,12.8-4.9c0.4,0.7,0.9,1.3,1.7,1.9c14.3,10.5,23.9,27.4,41.8,32.5C182.1,247.9,186.7,244.9,185.7,240.4z
	 M131.8,341.8c8.4,5.4,16.5,11.6,26.9,10.8c3-0.2,5.1-3.9,4.5-6.6c-1.7-7.4-2-15.6-3.9-23.3c-3.3-12.7-4.8-25.9-9.1-38.4
	c-3.6-10.5-8-21.5-13.1-32.1c0.1,0.1,0.2,0.2,0.3,0.3c9.4,9.9,20.4,18.1,31.6,25.7c10.8,7.2,22.3,13.4,33.5,19.9
	c6.4,3.7,13.3,7.5,20.7,4.9c7.8-2.8,4.8-16.2,4-21.8c-1.9-14.3-8-28.1-14.3-40.9c-5.9-12-13.5-22.8-20.1-34.4
	c-1.6-2.7-3.1-5.5-4.5-8.4c2.2,1.8,4.4,3.5,6.5,5.1c11.2,8.7,22.7,17.3,35.5,23.5c7.7,39.2,15.6,78.3,23.5,117.5
	c-14.6-6.8-27.5-15.3-40.6-24.8c-8.5-6.2-21.2-10.1-26.5,1.7c-2.3,5.1,0.5,14.4,0.7,19.5c0.4,9-0.5,18.1-0.6,27.1
	c0,2.7,0.3,6.7-1.1,9.2c-1.2,0.7-2.4,1.5-3.6,2.3c-0.3,0-0.5,0.1-0.8,0.1c-3.6,0-7.5-1.2-11-1.7c-9.3-1.4-18.8-2.4-26.2-8.7
	c-0.6-0.5-1.1-0.8-1.7-1c-7.3-10.9-14.6-21.7-21.9-32.6C124.2,337.1,128,339.4,131.8,341.8z M265.3,184.3c-0.5-5.1-2.6-9.4-5.7-12.9
	c1.6,0.3,3.2,0.5,4.9,0.6c7.4,0.6,14.5-0.5,21.3-2.7c0.1,0.5,0.2,1,0.5,1.5c14.9,31.1-5.7,75.5-38.2,86.4c-2.5-12.4-5-24.8-7.4-37.2
	C252.9,213.4,266.9,199.4,265.3,184.3z M399.7,94.4c-0.3,2.5-0.6,5-0.8,7.6c-7.7-1.2-14.4,1.2-21.1,5.8c-8.2,5.7-18.1,15-26.2,4.1
	c-4.7-6.2-6.6-14.5-13.6-18.8c-6.3-3.8-12.8-0.5-17.9,3.8c-0.1-2.9-0.2-5.8-0.6-8.7c0-13.5-0.9-27.1-2-40.6
	c8.4-3.8,11.5-0.3,15.6,7.9c3,6.1,5.9,11.8,11.2,16.1c5.9,4.8,14.2,3.9,20.7,1.1c6-2.6,9.7-8,17.1-6.1c6.8,1.7,12.1,8.6,17,13.1
	c0.6,0.6,1.3,1,2,1.2c-0.3,3.5-0.7,7.1-1,10.6C399.7,92.5,399.6,93.4,399.7,94.4z M444.3,174.4c3.8-4.4,7.6-8.9,11.3-13.4
	c1.1,1.9,2.5,3.8,4.1,5.6c-1.1,0.6-1.9,1.6-2.3,3.2c-4.7,21.4-20.5,38.5-19.9,61.3c0.1,4,4,7.8,8.1,5.6
	c18.8-10.1,31.9-32.7,39.6-51.9c2.2,0.5,4.5,0.9,6.9,1c0.8,0,1.6,0.1,2.4,0.1c-2.8,4.9-5.7,9.8-8.7,14.7c-0.6,0.5-1,1.2-1.4,2.1
	c0,0.1-0.1,0.2-0.1,0.3c-6,9.8-12.3,19.4-18.8,28.9c-7,10.1-14.4,19.9-22.5,29.1c-6.1,7-14.1,16-23.3,18.7
	c-7.2,2.1-5.2-6.8-4.7-11.8c1.1-11.2,4.5-22.3,7.8-33c5.9-19.5,12.9-38.8,21.2-57.4C444.3,176.4,444.4,175.3,444.3,174.4z
	 M462.6,204.4c1.7-3.2,3.5-6.3,5.3-9C466.2,198.4,464.5,201.4,462.6,204.4z M491.5,276.6c9.8,1.5,20-9.3,26.3-15.2
	c7.7-7.3,16-15.6,21.4-24.9c4.1,1.6,8.3,3,12.5,4.2c-0.6,0.3-1.2,0.8-1.8,1.4c-17.5,19.4-35.4,37.6-55.5,54.2
	c-12.5,10.3-24.7,22.8-39.9,28.9c-14.5,5.8,4.7-41.7,7.1-46.9c10.4-23.3,23.2-45.8,32.5-69.5c3-5,6-10,8.9-15c0.1,1,0.1,1.9,0.2,2.8
	c0.7,8,2.3,13.2,6.6,19c-0.8,0.6-1.4,1.5-1.8,2.8C505.8,226.8,466.9,272.8,491.5,276.6z M408.6,242.7c-3.5,12.7-14.1,45.5,6.9,48.7
	c13.8,2.1,27.6-11.6,38.2-24.6c-14.5,34-24.7,68.8-4.5,70.2c17.3,1.2,34.8-17.1,46.8-27.3c16.2-13.7,31.4-27.9,46-42.9
	c-4.9,10.2-9.7,20.3-14.9,30.3c-12.3,23.7-24.7,47.3-36.7,71.1c0.6-10.4-0.6-20.4-7.8-24.8c-6.5-4-15.2-2.8-20.4,3
	c-3.7,4.2-5.8,9.3-8.7,14.1c-7.4,12.1-16.9-0.1-20.5-7.7c-5.5-11.6-3.1-45.3-22.1-45.3c-11.2,0-18.3,10.8-22.8,23.5
	c3-35.8,6.1-71.7,9-107.5c0.2-0.2,0.5-0.3,0.7-0.5c8.8-8,17.3-16.5,25.4-25.1C417.6,212.6,412.7,227.6,408.6,242.7z M478.2,370
	c-0.3,5.6-1.1,11.1-1.8,16.6c-6-4.8-12.5-9.5-19.4-13.8c6.1-4.8,8.6-12,13.1-18.4C477.8,343.4,478.3,367.4,478.2,370z M423.8,358.4
	c-3.1-0.7-6.2-1.2-9.2-1.5c-0.1-1.7-0.4-3.3-1-4.9c-0.3-0.8-0.6-1.5-1-2.3c-0.1-0.3-0.3-0.6-0.4-0.9c-0.1-0.2-0.1-0.3-0.2-0.3
	c0-0.1,0-0.1-0.1-0.2c-1.5-5.3-8.7-6.3-10.9-0.9c-1.3,3.2-1.8,6.6-2.1,10c-1.8,0.3-3.7,0.7-5.5,1.2c1.1-7.5,3-14.8,5.4-22
	c2-5.7,4.6-11.4,8.8-15.8c3.9-4.1,5.1-0.1,6.5,3.5C418.8,336,419.4,347.6,423.8,358.4z M335.3,371.5c-0.2-2.2-0.4-4.4-0.5-6.6
	c4.1,1.1,8.3,1.2,12.9,0.6c7.3-1,17.9-6.7,23.9-0.1c0.6,0.7,1.4,1.2,2.1,1.5c-0.4,5.1-0.9,10.3-1.3,15.4c-2.6-2.4-6.1-3.8-10.4-4.2
	c-6.7-0.6-20.2,5.2-25.6,0.2c-0.3-0.3-0.6-0.5-0.9-0.7c0-1.4-0.1-2.8,0-4.2C335.6,372.7,335.5,372.1,335.3,371.5z M361.5,351.1
	c-8.8,0.5-18.7,6.7-27,1.4c-0.2-0.1-0.4-0.2-0.5-0.3c-0.3-6.6-0.5-13.3-0.6-19.9c4.4,0.4,8.7-0.4,12.6-3.4c3-2.3,5.7-5,9-6.9
	c6.8-4,15.5-0.2,22.2,3.1c-0.8,9.5-1.6,19-2.4,28.4C370.9,351.5,366.6,350.8,361.5,351.1z M281.2,320.9c10.9,2.6,22.2,2.4,32.4-1.7
	c-6.7,23.4-21,45.5-41.3,59.1c-0.5-2.7-1.1-5.4-1.6-8.1c-1.2-5.7-2.3-11.5-3.4-17.2c0.2-0.2,0.4-0.4,0.6-0.6
	c6-7.1,14-15.8,14.5-25.6C282.4,324.4,282,322.5,281.2,320.9z M280.6,386.1c4.5-3.2,8.7-6.8,12.7-10.7c7.2,10.9,16,19.8,29.2,23.7
	c0.8,0.2,1.7,0.3,2.5,0.2c0.5,12.5,1.3,24.9,1.4,37.4c-21.6-5.2-47.5-26.4-45.7-49.8C280.6,386.6,280.6,386.3,280.6,386.1z
	 M322.3,125.8c-0.4-5.2-1.2-10.4-1.7-15.7c1.2,0,2.4-0.4,3.5-1.6c2.4-2.4,6.4-7.8,9.7-4.2c2.6,2.9,4.2,6.9,6.2,10.3
	c3.5,6.1,7.6,10.7,14.2,13.1c17.7,6.4,27.7-18.3,43.4-14.6c-1.6,13.7-3.4,27.5-5.1,41.2c-1.1-0.8-2.5-1.1-4.3-0.6
	c-5.5,1.5-10.3,4.6-15.7,6.1c-5.7,1.6-15.6-7.1-21.3-8.9c-9.3-2.9-18.5,4.1-26.8,8.6c-1-10.8-2.4-21.5-2.1-32.3
	C322.5,126.7,322.4,126.3,322.3,125.8z M304.4,441.9c0-0.8-0.1-1.6-0.3-2.3c6,3.4,12.4,6.1,18.6,7.7c-0.1,0.2-0.2,0.3-0.2,0.5
	c-3.1,8.7-5.8,17.8-10.4,25.9c-4.2,7.4-10.8,12.6-17.8,17.2c-2.4-12.9-4.9-25.8-7.4-38.7C294,453,304.6,451.3,304.4,441.9z
	 M332.2,522.9c0.7,10.2,1.2,20.5,1.8,30.7c-10.8-1.9-19.8-4.5-25.4-15c-1.3-2.5-3.7-3.3-5.9-2.9c-1.8-9.9-3.7-19.9-5.5-29.8
	C307.5,514.4,318.1,521.3,332.2,522.9z M353.7,310.4c-7.9,2-12.5,11.3-20.6,10.5c-0.1-4.9-0.3-9.8-0.6-14.7c0-0.1,0-0.1,0-0.2
	c0-3.1,0-6.1-0.1-9.2c7.2-0.6,12.6-4.9,18.3-10.6c10.3-10.4,18.8,0.6,29.4,4c-0.6,7.7-1.3,15.4-1.9,23.1
	C370.4,309.9,362.4,308.2,353.7,310.4z M353,270.9c-8.1,3.5-12.8,12.6-20.9,14.2c-0.2-5.4-0.5-10.8-1.1-16.1c0-1.9,0-3.8-0.1-5.8
	c0.4-0.3,0.7-0.7,1-1.2c3.2-5.4,7.2-12.3,14.2-12.7c4.9-0.2,9.9,2.2,14.4,3.6c7.8,2.5,15.3,3,22.6,0.7c-0.7,8.4-1.4,16.8-2.1,25.2
	C371.6,275.6,364.9,265.8,353,270.9z M351,238.5c-8.4-1.8-15.2,1.6-20.6,7c-0.3-6.4-0.8-12.8-1.4-19c0.1-0.6,0.1-1.2,0-1.8
	c-0.3-1.7-0.5-3.4-0.7-5.1c5.7,2.6,12.1,2.1,19.2-2.4c6.9-4.5,11.9-10.9,20.9-7.6c6.3,2.4,11.5,5.3,18,6.4c-0.7,8.3-1.4,16.7-2.1,25
	C372.7,246.8,362.9,241,351,238.5z M356.4,197.9c-12.4,3.7-18.3,19.5-29.6,5.7c-0.6-8.8-1-17.7-1-26c0-2-0.1-3.9-0.2-5.9
	c5.6-2.3,10.8-5.1,16-8.3c6.4-3.9,11.3,0.3,17.3,3.4c5.4,2.7,9.9,4.6,15.9,4.1c5.2-0.4,10.6-4.7,15.7-6.1c0.3-0.1,0.6-0.2,0.9-0.3
	c-1.5,12.5-2.8,25.1-3.9,37.7c-0.1,0.8-0.1,1.6-0.2,2.4C376.6,202.4,368,194.4,356.4,197.9z M319.6,256.7c0.1,3.6,0.1,7.2,0.1,10.8
	c-0.1,0.5-0.1,1,0,1.5c1.1,10.4,1.4,21.2,1.5,31.8c-19.2,18.5-49.7,10.6-66.1-8.2c-1.6-8.1-3.3-16.2-4.9-24.4
	c0.3-0.1,0.6-0.2,0.8-0.3C273.2,289.2,303.3,280.4,319.6,256.7z M207.9,369c-2.1,0.5-4.2,0.9-6.2,1.5c-1.3,0.3-2.6,0.7-4,1.1
	c0.2-2.1,0.3-4.2,0.3-6.2c0.1-9.5,0.8-18.9,0.4-28.4c-0.2-3.5-0.5-7-1-10.4c-0.8-5.7,7.7,0.6,9.2,1.6c16.2,10.7,31.3,21.3,49.4,28.9
	c0.1,0.1,0.3,0.1,0.4,0.1c0.5,2.3,0.9,4.6,1.4,6.9c-5.6-0.2-11.3,0-16.9,0.3c-0.2-0.7-0.5-1.3-1.1-1.8c-6.2-6.5-11-18.6-22-16.7
	c-11.5,1.9-9.6,13.2-10.1,21.9C207.8,368.2,207.8,368.6,207.9,369z M171,389c-2.9,2.9-6,5.5-9.6,7.5c-2.2-3.5-4.4-7-6.7-10.4
	C160,387.5,165.6,388.3,171,389z M181.5,394.2c1.7-1.7,3.4-3.3,5.1-4.6c2.6-0.7,4.6-2.1,6.1-3.9c3.3-1.7,7-3.1,11-4.1
	c18.4-4.9,37.4-7,56.4-6.1c0.1,0.4,0.2,0.8,0.3,1.3c1.2,5.8,2.3,11.6,3.4,17.4c-31.9-6.3-63.1,10.7-79.8,38.4
	c-5.4-8.9-10.9-17.7-16.5-26.5C173,402.9,177.2,398.8,181.5,394.2z M191.2,442.8c14.6-27.2,44.2-45.4,75.1-36.4
	c1.4,7.3,2.9,14.6,4.3,21.9c-4.7,1-10.5,0.2-15.2,0.4c-6.6,0.3-12.4,1.5-18.6,3.7c-14.4,5.1-25.9,16.4-37,26.8
	c-3-5.2-6-10.4-9.1-15.5C190.8,443.3,191,443.1,191.2,442.8z M241.7,442.5c10.1-4.3,20.9-0.8,31.1-3.1c1.5,7.9,3.1,15.8,4.6,23.7
	c-8.9-0.9-17.7-2-26.6-0.2c-14.2,3-25.4,13.4-35.6,23.2c-3.2-5.6-6.4-11.3-9.7-16.9C216.7,458.9,227.5,448.5,241.7,442.5z
	 M252.9,474c8.4-2.4,17.9-0.3,26.7,0.6c1,5.1,2,10.2,2.9,15.2c-0.9,0.5-1.7,1.2-2.3,2c-18.6,0.7-37.5,9.3-47.6,25.1
	c-3.9-6.9-7.8-13.8-11.7-20.7C230.5,487.1,240,477.8,252.9,474z M240.6,525.6c8.8-15.6,27-23.2,44.4-22.4c1.7,9.2,3.5,18.5,5.2,27.7
	c-16.6-0.9-30.8,1.4-41.4,14.9c-3.4-6.1-6.7-12.1-10.1-18.2C239.4,527.2,240.1,526.6,240.6,525.6z M255.6,555.6
	c9.2-13.9,21.5-14.3,36.6-13.2c0.9,5.1,1.9,10.2,2.8,15.3c-13.4-0.7-21.7,7.9-30.1,17.6c-3.4-6.2-6.9-12.5-10.3-18.7
	C255.1,556.4,255.4,556,255.6,555.6z M272.3,584.2c7.1-8.3,12.9-16.6,24.9-14.9c1.5,8.4,3,16.8,4.4,25.2c-8.2,0.9-15.5,3.4-20.9,9.3
	c-3.3-6.1-6.7-12.2-10-18.2C271.2,585.2,271.8,584.8,272.3,584.2z M303.5,605.6c0.8,4.5,1.6,9,2.3,13.5c-4.9,0.8-9.3,3.1-13.1,6.6
	c-2-3.7-4.1-7.4-6.1-11.1C290.7,608.1,296.4,606.4,303.5,605.6z M299.1,635.2c2.4-2.4,4.9-4.2,8-4.8c0.2,0.4,0.4,0.7,0.7,1.1
	c1.7,10.2,3.3,20.5,5,30.8c-4.9-8.8-9.7-17.6-14.5-26.4C298.6,635.7,298.9,635.5,299.1,635.2z M311.3,583.9
	c-1.8-10.2-3.6-20.3-5.4-30.5c5.8,5.4,13,8.3,21.2,10.2C323.3,571.6,317.8,578,311.3,583.9z M336.5,616.6c0.3,9.8,0.5,19.6,0.7,29.4
	c-4.4-5.9-10.1-11.2-15.6-16.6C327,625.6,332.2,621.5,336.5,616.6z M336.7,411.2c-0.3-7-0.7-14-0.9-21c3.4,0.9,7,1,10.9,0.7
	c6.5-0.5,18-5.2,20.1,3.7c0.6,2.4,2.3,3.8,4.2,4.2c-0.1,1.4-1.3,16.1-1.6,19.8c-2.9-1.5-6.1-2.5-9.8-3.1c-8.1-1.2-15.2,0.8-22.5-4.1
	C337,411.3,336.9,411.2,336.7,411.2z M348.4,426.5c7.6,0.4,14-0.4,19.9,5c-0.5,6.9-1.1,13.8-1.6,20.6c-1.5-1.6-2.8-3.5-3.8-4.6
	c-3.4-3.9-6.8-7.9-10.9-11.1c-5.5-4.2-10.4-3.8-14.4-1.1c-0.1-3.8-0.2-7.5-0.3-11.3C340.8,425.5,344.4,426.2,348.4,426.5z
	 M366.8,624.8c3.6-0.3,6.7,0.5,9.8,3.1c0.4,0.3,0.8,0.6,1.2,0.8c-4.2,10.2-8.4,20.5-12.6,30.7C365.7,647.9,366.2,636.4,366.8,624.8z
	 M367.4,613.4c0.3-5,0.5-10.1,0.8-15.1c0.1,0,0.2,0,0.4,0c8.4-0.7,13.5,5.3,16.5,12.4c0,0.1,0.1,0.1,0.1,0.2c-1,2.4-2,4.8-2.9,7.2
	C377.8,614.7,372.7,613.3,367.4,613.4z M368.9,587.1c0.3-5.3,0.6-10.6,0.9-15.8c9.1,0.3,20.2,2.4,22.5,12.5c0.4,1.7,1.3,2.8,2.5,3.5
	c-1.4,3.5-2.8,6.9-4.2,10.4C385.3,591,377.9,587,368.9,587.1z M370.5,560c0.3-5.3,0.7-10.7,1-16c0.9,0.1,1.8,0.1,2.8-0.3
	c7.2-2.5,13.3-2.9,19.4,2c4.8,3.8,8.4,9.6,12.2,14.4c-1.9,4.6-3.8,9.2-5.7,13.8C394.3,564.1,382.3,560.4,370.5,560z M397.4,534.3
	c-7.7-5.2-16.7-4.3-25.1-1.8c0.4-6.2,0.8-12.5,1.3-18.7c1,0.1,2.1,0,3.2-0.6c18.4-9.7,31.8,0.1,42,15.9c-2.6,6.3-5.2,12.7-7.8,19
	C406.9,543,402.8,537.9,397.4,534.3z M374.4,501.7c0.5-6.6,0.9-13.3,1.4-19.9c20.9-8.9,41.9,1.8,54.6,19c-2.3,5.4-4.5,10.7-6.7,16.1
	C411.3,501.1,394.7,492.5,374.4,501.7z M376.8,469.4c0.5-6.1,0.9-12.2,1.4-18.2c0.8-0.2,1.7-0.5,2.5-1.1c21.4-16.8,50-2.4,63.9,17.5
	c-3.1,7.1-6.1,14.3-9.1,21.4C420.8,472,398.5,463,376.8,469.4z M379.3,437.5c0.8-9.6,1.5-19.2,2.3-28.9c12.3-7.8,29.3-5.2,42.5-1.3
	c12.7,3.7,30.2,11.6,36,24.7c-3.5,7.9-7,15.9-10.4,23.9C432.1,435.5,403.4,423.6,379.3,437.5z M382.7,395.6
	c0.5-6.7,1.1-13.4,1.7-20.1c15.1-11.2,33-9.4,50-2.2c1.8,1.3,3.9,2.3,6.1,2.8c12.8,6.4,24.8,15.5,34.4,23.7
	c-3.1,6.6-6.2,13.2-9.2,19.8C448.5,397.2,408.8,385.6,382.7,395.6z M414.5,51.8c0.3-0.2,0.5-0.5,0.8-0.7
	c38.3-1.6,79.1-1.5,111.6,21.6c38.4,27.3,49.2,75.5,55,119.3c0.1,1,0.5,1.9,1,2.6c0,0.5,0.2,1,0.4,1.5c-0.1,0.1-0.2,0.2-0.2,0.3
	c-0.2,0-0.4-0.1-0.6-0.1c-7.8-0.8-15.1-2.6-22-6.5c-8.4-4.8-10.2-12.4-11.6-21.2c-0.9-5.7-4.6-15.6-11.2-16.6
	c-10.4-1.6-22.1-1.4-32.1-5c-17.2-6.2-17.8-27.4-21.7-41.9c-0.9-3.2-4.7-6.1-8-4c-21.3,13.2-47.5,8.6-64.3-9.3
	C412.8,78.4,413.9,65.1,414.5,51.8z M409.9,105.7c18.2,14.6,43.1,18.8,64.5,8.8c2.9,12.4,5,23.8,14.5,34
	c11.9,12.6,26.2,10.6,41.8,14.4c1.3,0.3,2.6,0.6,4,0.6c0.1,0.1,0.1,0.2,0.2,0.3c4.3,6.4,3.5,15,6.4,22c5.4,12.7,20.6,18.6,33.8,20.9
	c-5.5,7.9-10.5,16.1-15.2,24.5c-17.4-4.1-42.2-13-45.1-31.2c-1.1-6.6-0.1-14.2-3.6-20.2c-2.9-5-10.7-4.8-15.7-5
	c-10.4-0.5-16.4-4.1-23.3-11.8c-3-3.4-6.9-10.6-11-13c-17.3-10.2-38.7-4.7-54.5-17.7C407.9,123.3,409,114.5,409.9,105.7z
	 M405.2,145.1c5.9,3.8,12.1,6,19.5,7.3c5.4,1,10.9,1.2,16.3,2.1c0.9,0.1,2.6,0.5,4.6,0.9c-14.9,17.9-30.3,35.3-47.1,51.4
	C400.2,186.2,402.7,165.6,405.2,145.1z M402.2,45.6c0.4,0.5,0.8,1,1.2,1.5c-0.3,6.7-0.7,13.3-1.2,20c-7.1-6.8-15.4-13.8-25.5-12.2
	c-10,1.6-21.7,15.5-29.4,3.4c-4.2-6.5-6.2-14.4-12.1-19.8c-5.6-5.1-12.4-5-18.9-2.8c-0.7-7.8-1.5-15.6-2.3-23.4
	C347.4,14.4,380.3,26.1,402.2,45.6z M315.8,207.5c0.4,5.8,1,11.6,1.8,17.3c0,0.3,0,0.6,0,0.9c0.6,5.8,1,11.8,1.4,17.7
	c-1.9-0.5-4.2,0-5.8,2.2c-5.9,7.9-18.1,2.2-23.8-3.1c-0.9-0.8-1.9-1.4-2.9-1.6c5.5-7.6,9.8-16.2,12.5-25.1
	C307.7,217.1,312.9,213.5,315.8,207.5z M264.5,52.1c7.7,6.6,18.1,8.4,29.1,2.6c3.9-2.1,8.6-5.7,12.2-10.2c1,10.7,1.8,21.3,2.1,32
	c-0.6,0.1-1.3,0.2-2,0.5c-11.1,5-36.1,10.2-41.2-5.6c-0.3-0.8-0.6-1.5-1.1-2C264.3,63.7,264.6,57.9,264.5,52.1z M283.3,123.5
	c9.9-3.8,18.9-10.6,25.7-19.4c0,1.4,0.1,2.8,0.2,4.3c0.5,6.5,1.4,12.9,2,19.3c0,3.6,0.1,7.3,0.3,10.9c-0.5,0.3-0.9,0.6-1.4,1.1
	c-12,12.8-26.7,21.5-44.7,21c-18-0.5-32.8-12.4-43.5-25.8c-0.1-0.1-0.2-0.2-0.2-0.2c6.2-2.9,11.7-6.6,16.4-10.9
	C252.8,137.2,268.7,133.1,283.3,123.5z M214,102.5c11.3-14.5,24-45.3,9.9-61.6c7.8-5.7,16.5-10.7,25.8-14.9
	c8.3,34.9,3.3,79.6-31.1,97.5c-1.6-7-3.3-13.9-4.8-20.9C213.9,102.5,213.9,102.5,214,102.5z M214.8,156.6
	c4.4,18.4,8.8,36.7,12.5,55.2c-9.2-5.4-17.6-12.1-26.1-18.5c-8.7-6.6-14.7-16.3-23.2-22.8C192,170.8,206.2,166.4,214.8,156.6z
	 M202.4,103.6c2.7,12.3,5.6,24.6,8.5,36.8c-6.2,19.5-34.9,23.6-51.4,14.8c-4.2-2.3-9.7,0.4-8.8,5.7c2.1,12.7-3.3,26.3-12.2,35.3
	c-8.5,8.6-26.2,15.6-36.5,6.9c-6.4-3.8-12,4.6-6.5,9.3c4.3,2.6,0,21.2-0.7,25.4c-2,11.8-9.1,22.4-19.7,27.6
	c-5.4-7.8-11-15.5-17-22.8c12.4-17.5,15.2-38.2,9.8-58.3c18,2.3,36.4-0.2,50.9-12.2c14.2-11.8,20.8-32.9,21.1-51.8
	C161.6,129.2,189.3,122.1,202.4,103.6z M43.8,225c0.4-0.8,0.7-1.7,0.7-2.7c0.4-24.3,2.2-50,9.6-73.5c10.9,10.3,33.6,2.8,44.1-4.4
	c19.5-13.5,15.9-42,5.2-59.6c10.1-5.8,21-9.9,32.2-13C143,86,158.9,90.3,174,89.2c8-0.6,17.7-5,23.2-11.8c0.5,1.6,0,11.6-0.7,13.3
	c-8.4,21.7-40.4,28.8-59.4,15c-4.3-3.1-9.4,1-8.8,5.7c2.2,18.2-3.6,39.1-16.8,51.9c-13.2,12.9-34.8,11.5-51.3,8.1
	c-4.6-1-7,4.6-5.6,8.1c7.4,18.5,6.4,37.7-4.1,54.2c-2.2-2.4-4.5-4.8-6.9-7.1C43.8,226.1,43.8,225.5,43.8,225z M35.9,235
	c29.4,28.9,48.7,67,71.7,100.8c26.6,39.1,53.1,78.3,76.6,119.3c21.5,37.4,42.5,75.1,63.4,112.8c-2.5-3.3-5.1-6.6-7.6-9.9
	c-1.1-2.5-2.6-4.8-3.8-7.2c-3.8-7.2-7.9-14.2-12-21.2c-7.8-13.2-16.4-26-25.1-38.7c-19.5-28-41.1-54.5-62.8-80.8
	C95,360.3,64.1,303,22.2,253.8C25.9,247.2,30.5,240.9,35.9,235z M16.9,265.2c37.5,45.2,65.4,97.6,102.8,142.9
	c20,24.2,40,48.4,58.7,73.7c3.6,4.8,7.1,9.7,10.5,14.6c-14.2-15.9-28.9-31.4-44-46.4c-25.3-25-49.8-51.9-71.9-79.8
	c-18.8-23.8-31.1-51.6-55.4-70.8c-2.4-1.9-6.5-3.9-6.4-6C11.6,283.4,13.6,274,16.9,265.2z M20.3,353.2c-4-14.4-7.5-29.2-8.8-44.1
	c23.8,19,36.3,47.6,55,71.1c23.1,29.2,49.3,56.7,75.7,82.9c25.5,25.5,49.4,52.6,72.2,80.6c5.4,6.7,28.9,37.1,32.9,42.5
	c5.7,7.6,11.4,15.3,16.9,23c0,0,0,0.1,0.1,0.1c-29.9-33.6-59.7-67.3-92.1-98.6c-18.8-18.1-38.2-35-59.2-50.1
	C91,418.9,56.1,383.4,20.3,353.2z M32.6,396.4c-2.4-7.8-4.6-15.7-6.7-23.5C50,394.4,73.2,418.7,91,445.8
	C69.7,431.6,48.3,416.9,32.6,396.4z M103.1,502.7c-21.9-18.7-44-39.6-56-66.2c-2.1-4.6-4-9.4-5.8-14.1
	c14.3,13.3,30.5,24.3,46.9,35.2c5.4,3.6,10.8,7.3,16,11.1c0,0,0,0.1,0.1,0.1c1,2,2.6,2.9,4.3,3c19.6,14.4,37.9,30,55.5,47.1
	c49.2,47.9,92.8,101,139.7,151.1c0.2,0.2,0.5,0.4,0.7,0.6c4.4,7.9,8.8,15.9,13.3,23.8c0.1,0.9,0.3,1.9,0.4,2.8
	c0,0.3,0.1,0.6,0.2,0.9c-0.4-0.2-0.7-0.4-1.1-0.6c-11.2-7.2-19.6-19-27.8-29.2c-17.6-21.8-36.5-42.4-56.7-61.9
	c-20.7-19.9-42.3-38.9-65.3-56C146,534.4,123.5,520,103.1,502.7z M237.6,630.2c1-0.8,0.1-0.2,1.1-0.8c0,0,0.5-0.2,0.9-0.4
	c7.6,7.6,15.2,15.4,22.3,23.5c-14.4,1.7-27,8.2-41.1,12c0.1-9.5,4.3-18.1,9.5-26.1c0.3-0.2,0.5-0.5,0.7-0.8c1.2-1.7,2.5-3.4,4-4.9
	C235.8,631.8,236.7,630.9,237.6,630.2z M209.9,614.9c0-0.1,0.1-0.3,0.1-0.4c0.4-4,1.4-7.7,2.8-11.4c6.2,5.8,12.4,11.6,18.4,17.6
	c0.1,0.1,0.1,0.1,0.2,0.2c-2.3,1.6-4.3,3.6-6.2,5.7c-0.7,0.4-1.3,0.9-1.9,1.7c-9.1,13.2-16.1,27.9-13.2,44.2c0.5,3,3.6,5.1,6.6,4.5
	c18.6-3.6,34.6-14.6,54.2-13.6c0,0,0.1,0,0.1,0c4.7,5.8,9.3,11.6,14,17.3c-12.8,0.3-25.6,5.1-37.5,9.2c-12.5,4.2-34.7,15.3-47.8,8.2
	c-12.7-6.9-3.5-33.9-0.7-43.8C202.7,641.3,208.3,628.3,209.9,614.9z M195.7,733.9c-0.1-0.3-0.3-0.6-0.5-1c-3.1-4.9-6.1-10-10.4-13.9
	c-5-4.5-11.2-6.4-17.8-7.1c-2.1-0.2-5.9,0.7-6.4-0.1c-9.7-18.9,0.3-43.7,9.5-60.7c7.4-13.8,17.1-27.2,28.8-38.2c0,0.1,0,0.2,0,0.3
	c0,0.1,0,0.1,0,0.2c-1.8,17-9.9,33.4-13.6,50c-2.9,13-6,31.7,5.4,41.8c12.1,10.8,30.8,5,44.4,0.8c17.7-5.5,37.4-16,56.4-13.6
	c1.3,0.2,2.4-0.1,3.3-0.6c0.8,0.9,1.7,1.9,2.5,2.8c4,4.3,7.9,7.6,12,10.3c-23.8,8.6-46.8,19.4-71.4,25.7
	C225.3,733.7,209.9,735.8,195.7,733.9z M334.4,702c-0.1-0.7-0.3-1.4-0.7-2.2c-1.7-3.1-3.4-6.1-5.1-9.2c-2.3-15.4-4.7-30.8-7.2-46.2
	c7.1,7,14.9,26.2,16.3,30.7c0.1,9,0.2,17.9,0.2,26.9C336.7,702,335.6,702,334.4,702z M339.1,452.2c0-0.1,0.1-0.2,0.1-0.3
	c1-2.7,2.6-7.9,4.9-7.1c3.3,1.2,6.1,5.4,8.3,8c3.8,4.3,7.9,9.8,13.2,12.5c-0.4,5.8-0.9,11.6-1.3,17.4c-5.1-2.6-8.4-9.4-12.7-12.9
	c-3.8-3.1-8-4.1-12.1-3.4C339.7,461.6,339.5,456.9,339.1,452.2z M352.7,689.4c-1.2,2.8-2.4,5.7-3.6,8.5c-0.1-8.9-0.1-17.8-0.3-26.7
	c1.4,0.8,2.9,1.4,4.4,1.9C353.1,678.6,352.9,684,352.7,689.4z M353.8,661.1c-1.7-1.3-3-3.3-4-5.6c-0.3-0.8-0.8-1.4-1.3-1.9
	c-0.1-4-0.1-8.1-0.2-12.1c1.9,1,4,1.6,6.2,1.8C354.3,649.2,354.1,655.1,353.8,661.1z M355.2,632c-0.1,0-0.1,0-0.2,0
	c-0.1,0-0.1,0-0.2,0c-0.1,0-0.2-0.1-0.4-0.1c-0.3-0.1-0.6-0.2-0.9-0.3c-0.1,0-0.1,0-0.1,0c-0.1,0-0.1-0.1-0.3-0.2
	c-0.2-0.1-0.3-0.2-0.5-0.3c0.2,0.1-0.1-0.1-0.3-0.4c-0.1-0.2-0.5-0.7-0.5-0.8c-0.3-0.5-0.4-1-0.6-1.6c-0.5-1.5-1.7-2.4-3.2-2.9
	c-0.1-5.4-0.3-10.8-0.5-16.3c2.7,1.3,5.7,2.3,8.6,3C355.8,618.6,355.5,625.3,355.2,632z M356.8,600.6c-4.3-1.1-8.3-2.9-8.6-8
	c-0.1-1.1-0.6-2.1-1.4-2.8c-0.2-4.7-0.3-9.4-0.5-14.1c3.2,2.5,7,4.2,11.7,4.8C357.5,587.1,357.1,593.8,356.8,600.6z M358.6,569
	c-5.3-0.8-8.4-4.5-11.1-9c-0.6-0.9-1.3-1.6-2.1-2c-0.3-4.9-0.5-9.8-0.8-14.7c0.7,1,1.3,2,2.1,2.9c3.4,4.2,7.9,6.1,12.9,6.3
	C359.3,558,358.9,563.5,358.6,569z M360.3,541.2c-3.9-0.1-5.7-3-8-6.3c-2.6-3.7-5.2-6.9-8.8-9.3c-0.3-4.9-0.6-9.9-1-14.8
	c1.7,1.7,3.2,4.1,4.7,5.9c3.9,4.6,8.6,6.9,14.2,7.3C361.1,529.6,360.7,535.4,360.3,541.2z M362.2,512.7L362.2,512.7
	c-5.6,0.3-9.2-7.5-12.6-10.8c-2.5-2.4-5.2-3.8-8-4.4c-0.5-6.5-1-13-1.5-19.5c4.1-1,6.2,2.1,9.8,6.4c3.9,4.7,8.1,8.2,13.7,9.9
	C363.1,500.4,362.7,506.6,362.2,512.7z M501.1,628.8c7.5,14.5,14.4,31.4,15.8,48.2c0.2,1.9,0.3,3.9,0.3,5.8c0,0.5-4,0.6-6.2,1.2
	c-19.1,4.7-24.7,26.1-16.4,42c-1.4,0.9-2.9,1.8-4.4,2.5c-17.8,9.4-37.2-3.7-52.1-12.5c-20.1-11.9-41.5-14.2-63.6-15.4
	c3.5-3,6.8-6.6,10-10.9c1.1-1.5,2.2-3,3.2-4.5c0.3,0.1,0.5,0.1,0.8,0.1c14.7,1.1,29.4,1.4,44,3.5c10.7,1.5,20.6,5.9,31.6,6.5
	c13.7,0.7,21.2-8.3,22.9-21c2.1-15.5-3.3-32.4-7.3-47.2c-3.8-14.1-10.8-30.2-10.2-45.1C481.9,596.3,492.4,612.2,501.1,628.8z
	 M439,670.3c7.7,1.3,18.3,3.3,24.1-3.3c6-6.9-1-21.8-3.8-28.5c-4.4-10.7-10.8-20.4-15.3-31c-0.1-0.3-0.3-0.6-0.5-0.9
	c4.9-6.1,10-12,15.1-17.9c0.9,8.9,3.7,17.7,6,26.1c4,14.5,8.3,29,10.6,43.9c0.9,6,1.5,12.5,0,18.5c-2,7.8-9.2,7.4-16,6.6
	c-8.7-1-17.1-4.1-25.7-6c-12.4-2.7-25.7-2.6-38.5-3.2c2.5-3.8,4.9-7.6,7.3-11.4c0.7,0.5,1.6,0.9,2.7,1
	C416.4,665.2,427.7,668.4,439,670.3z M408.7,653c0.6-0.9,1.2-1.9,1.8-2.8c7.7-11.7,16.4-23,25.2-34c6.8,13.5,18.6,28.8,17.9,43.7
	c-0.3,0.1-0.7,0.1-1.3,0.1c-1.9,0.1-3.8-0.1-5.7-0.3c-4.7-0.4-9.3-1.3-13.9-2.1C424.7,656.2,416.7,654.1,408.7,653z M603.5,404.9
	c-9,27.8-28.5,51.1-48.2,72.2c-18.3,19.6-39,36.4-58.5,54.7c-10.8,10.1-21.1,20.7-31.2,31.6c-2.5,1.3-20.5,23.2-27.4,31.4
	c-17.9,21.6-34.3,44.2-49.3,67.9c-7,11.1-14,23.8-24.3,32.2c-0.3,0.3-0.7,0.5-1,0.7c0.1-0.3,0.1-0.6,0.1-0.9c0-0.9,0.1-1.9,0.1-2.8
	c3.5-8.4,7-16.8,10.5-25.1c0.2-0.2,0.4-0.4,0.6-0.7c40.9-55.1,78.2-112.8,121.6-166c20.9-25.5,43.2-48.4,68.4-69.6
	c15-12.7,29.9-25.5,42.6-40.3C606.5,395.2,605.1,400.1,603.5,404.9z M613.4,363.5c-15.2,25.3-38.6,44-60.8,62.8
	c-23.9,20.2-44.8,42.6-64.8,66.8c-10.2,12.4-20.1,25.1-29.7,38c16.5-22.6,33.9-44.6,51.9-66.1c19.5-23.3,35.4-49.5,56.6-71.4
	c16.2-16.8,34-31.9,50-48.7C615.6,351.1,614.5,357.3,613.4,363.5z M619.9,324.4c-0.1,0.1-0.3,0.3-0.4,0.4
	c-18.9,22.9-42.3,41.6-62.9,62.9c-20,20.8-35.4,45.4-53.4,67.8c-34.3,42.6-67.8,85.1-95.9,131.8c3.2-7.8,6.4-15.6,9.7-23.5
	c0.2-0.3,0.3-0.5,0.5-0.8c13.2-29.2,28-58,44-86.1c0.9-0.4,1.7-1,2.3-2.1c22.3-35,54.8-61.8,80.7-94c26.6-33.1,50.3-67.8,80-98.2
	C624.1,296.6,622.1,310.7,619.9,324.4z"/>
</svg>
