<?xml version="1.0" encoding="utf-8"?>
<!-- Generator: Adobe Illustrator 15.1.0, SVG Export Plug-In . SVG Version: 6.00 Build 0)  -->
<!DOCTYPE svg PUBLIC "-//W3C//DTD SVG 1.1//EN" "http://www.w3.org/Graphics/SVG/1.1/DTD/svg11.dtd">
<svg version="1.1" id="Layer_1" xmlns="http://www.w3.org/2000/svg" xmlns:xlink="http://www.w3.org/1999/xlink" x="0px" y="0px"
	 width="546.326px" height="746.967px" viewBox="0 0 546.326 746.967" enable-background="new 0 0 546.326 746.967"
	 xml:space="preserve">
<g>
	<path fill="#00BAD6" d="M154.138,545.254c0.014,0.02,0.037,0.053,0.046,0.07C154.36,545.262,154.239,545.249,154.138,545.254z"/>
	<path fill="#00BAD6" d="M544.681,496.214c-0.562-0.17-1.09-0.408-1.622-0.621c-0.31-0.262-0.679-0.462-1.136-0.573
		c-0.129-0.03-0.261-0.073-0.391-0.109c-12.213-6.23-16.986-24.992-20.944-37.047c-3.325-10.137-7.805-23.567-19.971-25.19
		c-0.226-0.035-0.434-0.03-0.639-0.013c-1.817-7.519-4.307-15.192-10.518-20.176c-6.287-5.04-15.913-8.842-23.966-9.232
		c-0.896-0.046-1.849-0.314-2.338,0.218c-3.039-10.184-12.271-18.668-22.539-23.008c-21.353-10.538-47.377-5.283-67.943-18.319
		c-0.319-0.204-0.629-0.311-0.926-0.364c-18.206-10.17-33.637-27.289-45.592-43.942c-12.473-17.382-25.503-36.289-29.155-57.763
		c4.216,0.59,8.688,0.542,13.362-0.11c0.108-0.001,0.202,0.007,0.309-0.002c14.638-1.667,26.486-11.865,35.244-23.874
		c7.223-9.915,13.548-28.675,15.52-39.22c1.75-9.316,0.419-29.617-0.007-33.955c-0.427-4.439-0.796-9.267-1.907-13.698
		c-2.56-23.696-8.699-46.83-19.423-68.232c-13.151-26.244-48.926-54.731-50.26-56.027c-0.228-0.227-0.486-0.396-0.75-0.535
		c-0.233-0.256-0.527-0.484-0.885-0.659c-1.468-0.698-2.68-1.92-3.914-2.951c-1.387-1.161-3.166-1.94-4.758-2.765
		c-3.41-1.783-6.874-3.398-10.323-5.099c-0.154-0.124-0.329-0.243-0.532-0.341c-4.747-2.313-9.647-4.634-14.675-6.293
		c-5.362-1.758-18.137-5.098-18.733-5.186c-25.577-3.559-57.585,1.453-84.169,13.072c-0.313,0.028-0.639,0.116-0.966,0.289
		c-8.02,4.225-16.298,7.932-23.981,12.759c-0.087,0.048-0.17,0.083-0.253,0.141c-11.976,8.151-24.078,14.86-34.631,24.966
		C79.754,63.382,70.775,76.926,62.43,90.411c-0.2,0.318-0.302,0.625-0.354,0.921c-7.151,13.697-14.185,26.368-18.375,41.492
		c-4.451,16.041-5.489,32.921-4.282,49.466c0.739,10.144,2.278,20.853,5.045,31.199c-0.057,0.987,0.178,1.971,0.792,2.828
		c5.961,20.423,16.972,39.067,36.568,48.599c0.194,0.095,0.38,0.133,0.565,0.18c0.038,0.019,0.068,0.048,0.108,0.067
		c2.34,1.089,4.723,1.506,7.195,1.658c-8.547,11.881-13.57,26.808-17.358,40.6c-0.649,1.735-1.097,3.502-1.413,5.293
		c-4.379,16.731-8.064,34.944-7.551,51.984c0.001,0.017,0.001,0.021,0.001,0.033c-0.003,0.09-0.027,0.176-0.019,0.27
		c0.114,8.528-1.486,16.805-1.055,25.35c0.351,7.07,0.317,14.064,0.516,21.107c-0.101,0.276-0.162,0.596-0.148,0.96
		c0.555,16.919,1.217,33.808,4.176,50.508c-0.094,0.376-0.093,0.791,0.038,1.263c0.223,0.761,0.409,1.552,0.62,2.332
		c0.057,0.289,0.099,0.583,0.157,0.867c0.056,0.269,0.151,0.513,0.266,0.72c3.713,14.356,5.978,30.479,6.63,44.987
		c0.014,0.299,0.082,0.562,0.165,0.811c0.135,6.629,1.432,17.016,0.118,24.022c-0.234,1.257-0.508,2.494-0.796,3.721
		c-0.958,2.019-1.53,4.292-1.829,6.662c-3.852,12.409-9.696,23.875-13.295,36.489c-2.125,7.479-3.147,17.19,2.294,22.727
		c-9.359,5.636-13.297,19.413-11.822,30.38c-6.346-1.676-12.849,1.298-18.125,5.98c-3.913,3.468-7.066,7.075-9.807,11.504
		c-4.871,7.863-7.942,12.934-18.378,10.434c-2.408-0.572-3.636,2.019-2.834,3.752c-0.079,0.807,0.268,1.615,1.234,2.132
		c7.76,4.165,14.293,10.439,23.377,11.588c2.496,0.316,4.952,0.405,7.394,0.36c1.03,0.745,2.595,0.771,3.51-0.178
		c6.999-0.535,13.878-2.145,20.873-3.666c0.046-0.008,0.068-0.025,0.109-0.035c0.053-0.011,0.098-0.005,0.147-0.016
		c5.951-1.376,11.438-3.965,17.116-6.114c14.059-3.935,20.614-18.146,27.927-29.401c0.056-0.076,0.083-0.162,0.124-0.238
		c10.149-16.041,11.72-34.491,15.486-52.695c0.065-0.299,0.067-0.578,0.041-0.854c2.565-13.806,0.213-30.055,0.17-44.049
		c-0.029-8.535-4.128-32.729-8.061-53.955c-2.503-13.56-6.153-37.219-8.358-54.399c0.687,2.941,1.581,5.809,2.01,8.69
		c4.884,32.755,39.814,101.616,74.052,141.792c0.144,0.162,0.263,0.319,0.403,0.451c12.578,17.385,36.229,47.247,44.893,65.111
		c0.171,0.348,6.851,15.462,8.974,23.097c5.522,19.842,9.755,59.427-17.771,64.232c-2.529,0.441-2.502,3.496-0.889,4.688
		c0.612,0.756,1.604,1.133,2.777,0.604c0.696-0.324,1.41-0.575,2.119-0.842c0.936-0.251,1.831-0.545,2.695-0.875
		c6.259-1.764,12.798-2.172,18.858-5.199c5.983-2.991,11.203-7.534,15.835-12.282c10.197-10.47,14.169-25.807,16.72-39.86
		c0.205-0.31,0.354-0.682,0.404-1.141c1.076-9.694,1.258-17.656-2.073-26.922c-4.222-11.75-11.053-21.796-16.631-32.869
		c-0.017-0.036-0.024-0.066-0.041-0.097c-6.823-12.295-12.105-22.25-19.85-36.661c-1.069-1.987-19.617-34.588-20.133-34.743
		c-6.199-8.662-11.277-19.235-16.431-28.321c-3.516-6.205-5.741-13.118-8.806-19.55c-3.514-7.374-7.164-14.249-9.818-21.969
		c-0.029-0.347-0.133-0.712-0.33-1.074c-0.048-0.094-0.087-0.186-0.133-0.281c-0.016-0.041-0.033-0.087-0.044-0.127
		c-0.096-0.294-0.23-0.532-0.381-0.745c-2.67-5.542-3.496-11.661-4.818-17.634c-1.732-7.866-5.373-14.997-6.303-23.089
		c-0.048-0.391-0.164-0.726-0.325-1.02c-1.034-6.041-1.809-12.082-2.315-18.12c7.646,20.559,18.125,40.051,28.449,59.375
		c7.384,13.826,15.706,27.143,22.815,41.113c7.378,14.493,9.639,30.892,18.215,44.85c1.033,1.678,3.853,1.11,4.474-0.611
		c6.051-16.733,0.072-32.547-6.785-48.038c-9.716-21.946-18.744-44.239-27.146-66.722c-8.583-22.965-16.366-46.368-18.736-70.89
		c-1.24-12.853-2.077-30.58,3.349-43.845c-0.073,6.871-0.219,13.739,0.07,20.615c0.908,21.376,8.282,42.635,16.871,61.998
		c0.085,0.193,0.185,0.365,0.295,0.518c3.551,7.768,6.858,15.639,10.211,23.489c-0.077,0.875,0.327,1.815,1.038,2.424
		c4.217,9.82,8.556,19.583,13.612,29.031c10.868,20.287,25.599,38.286,36.963,58.311c0.422,0.74,1.014,1.112,1.644,1.212
		c10.854,15.747,19.924,32.479,27.015,50.305c4.043,10.155,7.047,20.684,9.366,31.358c1.858,8.568,1.701,17.226,3.271,25.758
		c0.157,0.834,0.596,1.412,1.169,1.768c0.885,1.439,3.034,2.094,4.241,0.291c8.011-11.887,11.42-24.982,11.823-38.383
		c0.426-0.816,0.491-1.876,0.04-2.753c0.005-18.967-5.765-38.429-12.888-55.928c-0.03-0.084-0.043-0.159-0.081-0.243
		c-0.079-0.183-0.165-0.36-0.249-0.543c-0.137-0.357-0.289-0.715-0.434-1.064c-0.07-0.18-0.159-0.337-0.256-0.479
		c-6.429-14.445-14.201-28.183-21.847-42.009c-0.243-0.433-0.562-0.75-0.912-0.983c-5.887-9.866-11.55-19.854-16.128-30.399
		c-0.108-0.249-0.241-0.454-0.386-0.634c-12.012-25.487-25.251-50.412-32.202-77.851c-0.012-0.249-0.043-0.497-0.124-0.756
		c-3.334-10.459-4.263-21.402-4.905-32.321c5.915,13.968,15.287,26.615,19.106,41.458c2.877,11.229,4.474,32.04,17.323,36.732
		c-4.37,10.221,1.416,22.05,12.889,22.452c-0.806,17.682,18.064,28.517,31.257,37.02c11.013,7.101,18.684,14.503,26.132,25.393
		c8.918,13.051,15.96,27.381,22.557,41.707c0.248,0.534,0.593,0.902,0.993,1.148c0.054,0.466,0.116,0.925,0.167,1.396
		c0.33,3.364,5.517,2.692,5.188-0.654c-3.029-30.474-19.231-55.357-35.187-80.632c-7.499-11.871-14.771-23.91-21.958-36.007
		c-0.857-1.615-1.744-3.189-2.652-4.695c-0.146-0.243-0.35-0.44-0.537-0.653c-10.028-16.99-19.859-34.106-29.624-51.2
		c-0.614-1.077-1.22-2.162-1.836-3.242c1.937,2.345,3.854,4.7,5.841,6.996c2.986,3.456,6.941,5.628,9.928,9.126
		c0.035,0.046,0.061,0.092,0.101,0.127c0.044,0.054,0.079,0.089,0.122,0.132c0.078,0.097,0.162,0.181,0.238,0.276
		c0.152,0.195,0.314,0.343,0.484,0.475c5.939,6.205,11.086,11.442,18.148,16.695c7.361,5.476,14.419,12.274,22.633,16.399
		c8.732,5.498,16.071,12.678,24.153,19.04c8,6.295,16.224,12.265,24.103,18.719c0.165,0.213,0.37,0.416,0.639,0.586
		c0.224,0.149,0.439,0.316,0.665,0.464c0.05,0.043,0.104,0.083,0.159,0.127c0.168,0.144,0.343,0.258,0.515,0.35
		c4.812,3.28,9.197,7.121,13.517,11.042c0.307,0.675,0.857,1.225,1.617,1.466c2.51,2.284,5.015,4.562,7.605,6.73
		c8.903,7.445,15.991,14.934,22.734,24.341c6.662,9.301,14.188,17.205,19.367,27.604c4.893,9.815,7.788,20.468,12.883,30.212
		c1.506,2.877,6.054,1.037,4.908-1.797c-1.161-21.551-2.454-40.074-11.357-60.045c-8.129-18.239-15.993-36.259-27.481-52.695
		c-10.695-15.284-23.937-28.628-37.993-40.804c-8.348-7.223-16.525-14.858-25.446-21.36c-0.685-0.497-1.652-1.26-2.788-2.178
		c11.393,3.517,22.978,5.82,34.813,8.457c19.22,4.281,36.659,13.037,51.636,25.799c0.159,0.269,0.373,0.522,0.661,0.75
		c15.068,11.702,27.411,26.113,41.826,38.492c2.018,1.734,29.276,20.396,45.169,22.592c1.146,0.568,2.354,1.067,3.66,1.458
		C545.914,502.017,547.914,497.185,544.681,496.214z M298.961,234.442c-6.175,3.529-9.536,10.584-11.053,17.52
		c-4.248-1.979-8.036-4.84-11.24-8.609c6.252-12.461,21.773-19.957,35.506-15.523c0.273,0.999,0.562,2.001,0.877,2.997
		C308.316,230.043,302.904,232.193,298.961,234.442z M270.112,307.026c0.185,6.26,0.905,12.867,0.227,19.2
		c-1.551-2.914-3.041-5.849-4.399-8.862c-4.071-9.046-7.314-18.535-10.837-27.796c-0.051-0.146-0.094-0.297-0.153-0.444
		c0.72-2.199,1.095-4.359,1.408-6.888c0.81-6.605,3.638-12.693,6.144-18.788c1.084-2.623,1.932-5.321,2.653-8.059
		c0.731,8.941,2.226,17.697,4.435,26.232C270.623,290.034,269.86,298.535,270.112,307.026z M157.088,401.127
		c0.27,1.104,0.572,2.195,0.858,3.288c-0.092,7.131,0.225,14.28,0.947,21.389c-0.709,0.032-1.411,0.364-1.932,1.125
		c-4.954,7.316-8.579,15.216-11.241,23.64c-1.161,3.673-1.503,7.379-1.527,11.101c-2.697-9.061-3.687-18.08-4.391-28.037
		c0.083-0.157,0.171-0.305,0.221-0.492c3.69-14.13,10.745-26.603,18.336-38.872c-0.112,1.465-0.154,2.926-0.221,4.386
		C157.32,399.076,156.79,399.921,157.088,401.127z M158.315,384.478c-7.326,11.666-14.628,23.281-19.626,36.022
		c-1.104-11.636-2.239-23.19-1.379-34.961c7.944-12.252,18.167-22.36,29.354-31.548c-2.762,8.766-5.13,17.646-6.686,26.704
		c-0.152,0.907-0.244,1.817-0.383,2.728C159.12,383.585,158.665,383.92,158.315,384.478z M133.291,419.892
		c-12.007-20.082-31.892-52.058-32.771-51.92c-0.009-0.105-0.01-0.217-0.037-0.314c0.077,0.005,2.047-20.833,3.15-27.784
		c0.831-5.25,2.172-10.362,3.635-15.446c7.123,21.468,15.059,42.633,23.853,63.477c0.163,0.391,0.435,0.685,0.751,0.91
		C131.434,399.227,132.293,409.544,133.291,419.892z M132.261,376.883c-8.611-21.866-21.333-61.414-21.929-61.689
		c0.398-1.349-0.151-0.744,0.224-2.1c0.274-0.99,2.17-4.79,1.731-5.852c1.925-6.248,11.542-29.687,14.095-35.167
		c0.159,0.08,0.319,0.151,0.488,0.207c4.724,20.999,11.966,41.572,13.145,63.202c-1.47,5.799-3.212,11.541-4.567,17.369
		C133.638,360.629,133.021,368.848,132.261,376.883z M251.713,189.122c-7.596,3.114-14.399,8.197-19.082,14.671
		c-0.033-0.03-0.044-0.056-0.078-0.086c-3.565-3.701-6.832-7.657-10.616-11.148c-2.75-2.538-6.005-4.465-9.108-6.581
		c15.575-2.952,29.159-12.429,39.86-24.079l0.313,0.076C248.311,169.649,248.17,181.318,251.713,189.122z M241.9,254.343
		c0.342,9.259,2.758,18.617,5.294,27.573c-4.105-5.832-6.82-12.674-9.548-19.245c-3.387-8.162-6.921-16.084-8.432-24.667
		c0.523-1.057,0.246-1.977-0.411-2.589c-0.148-1.169-0.27-2.349-0.323-3.546c2.251-5.353,4.09-10.88,5.208-16.731
		c2.171,4.292,4.882,8.124,8.178,11.2c-0.029,0.185-0.046,0.374-0.033,0.582C242.288,236.067,241.547,245.197,241.9,254.343z
		 M247.094,230.279c4.821,2.918,10.446,4.51,16.821,4.26c-1.757,9.084-3.037,18.203-6.251,26.941
		c-1.62,4.383-3.531,8.61-4.998,13.054c-0.466,1.407-0.761,2.83-1.009,4.254c-1.926-7.135-3.251-14.45-4.293-21.733
		C246.109,248.266,247.127,239.199,247.094,230.279z M216.917,195.187c3.578,2.658,6.502,6.141,9.481,9.495
		c-1.285,4.338-3.461,7.741-6.244,10.419c-11.452-14.604-34.539-20.044-49.565-7.972c-2.84-2.528-5.981-4.683-9.336-6.379
		c3.853-9.594,14.234-12.656,23.625-14.193c0.947-0.149,1.526-0.681,1.809-1.336c5.555,1.3,11.127,1.854,17.244,1.723
		c0.53-0.009,1.057-0.06,1.584-0.086c0.14,0.203,0.302,0.399,0.521,0.582C209.492,190.278,213.339,192.528,216.917,195.187z
		 M188.292,230.154c-6.076,5.632-10.61,13.223-14.284,21.042c-3.322-8.986-5.099-18.473-8.542-27.426
		c4.068,1.905,8.135,3.87,12.505,5.014c0.44,0.114,2.521,0.833,3.168,0.686C183.486,229.885,185.883,230.093,188.292,230.154z
		 M159.6,193.293c0.046-7.29-3.62-15.052-7.334-20.708c-0.185-0.278-0.404-0.492-0.636-0.669c-0.003-0.168-0.024-0.337-0.073-0.507
		c2.833-0.884,5.542-1.928,8.008-3.175c6.154,4.273,10.242,11.199,17.46,13.982c0.378,0.141,0.752,0.264,1.127,0.408
		C170.908,184.429,164.073,187.564,159.6,193.293z M153.587,197.79c-4.733-1.245-9.724-1.619-14.848-0.87
		c-0.823,0.12-1.664,0.26-2.496,0.415c-11.438-22.564-38.049-21.074-54.346-5.371c-0.145,0.136-0.254,0.281-0.363,0.421
		c-3.065-2.061-6.354-3.624-9.788-4.781c0.421-14.053,16.877-19.532,28.781-20.408c0.81-0.061,1.356-0.411,1.68-0.896
		c11.546,8.151,28.747,9.771,43.526,6.634c0.286,0.361,0.689,0.656,1.249,0.82c0.036,0.015,0.053,0.018,0.083,0.021
		c0.014,0.022,0.016,0.037,0.043,0.068c0.042,0.044,0.085,0.072,0.122,0.115c0.044,0.323,0.146,0.659,0.379,1.015
		C151.64,181.092,156.292,190.368,153.587,197.79z M136.705,202.672c16.294-3.922,31.321,5.37,39.083,19.27
		c-5.777-2.154-11.271-4.997-17.393-6.847c-0.145-0.061-0.281-0.134-0.461-0.17c-0.115-0.023-0.223-0.033-0.336-0.055
		c-1.365-0.39-5.491-1.004-5.975-0.716c-14.572-0.606-27.074,7.202-34.833,19.982c-3.912-2.691-8.193-4.852-12.56-6.39
		c-0.108-0.038-0.208-0.071-0.316-0.097c-0.038-0.235-0.081-0.466-0.185-0.709c-0.032-0.079-0.06-0.164-0.095-0.242
		C108.356,212.374,122.83,206.022,136.705,202.672z M137.701,375.917c0.725-6.366,1.472-12.729,2.308-19.082
		c0.904-6.869,3.183-13.476,5.007-20.161c0.026-0.053,0.066-0.086,0.09-0.142c3.443-8.082,12.228-13.155,18.861-18.416
		c7.518-5.956,14.974-11.606,22.982-16.744c-3.525,7.616-6.834,15.338-9.832,23.244c-2.553,6.734-5.105,13.514-7.479,20.353
		C157.805,354.141,146.69,364.053,137.701,375.917z M143.748,322.192c-2.76-17.925-8.391-35.289-12.23-53.053
		c-0.083-0.38-0.228-0.696-0.412-0.963v-0.447c0-0.538-0.122-0.995-0.315-1.387c0.061-0.703-0.076-1.425-0.427-2.027
		c0.832-1.587,1.659-3.171,2.54-4.767c0.127-0.229,0.193-0.455,0.24-0.681c0.26-0.234,0.488-0.524,0.609-0.943
		c0.038-0.129,0.097-0.251,0.145-0.377c3.344-1.754,6.326-4.326,8.938-6.884c1.145-1.123,2.214-2.381,3.217-3.726
		c4.724,12.787,8.585,25.819,12.258,38.943c-1.925,3.716-3.785,7.473-5.348,11.378C149.674,305.476,146.146,313.675,143.748,322.192
		z M149.866,242.213c-0.108-0.288-0.251-0.511-0.408-0.706c3.586-6.818,5.614-14.866,5.542-21.817
		c0.203,0.033,0.4,0.045,0.601,0.083c0.975,0.286,1.934,0.626,2.882,0.982c5.818,11.837,7.292,25.062,12.608,37.06
		c-1.264,3.052-2.425,6.064-3.522,8.932c-1.634,4.269-3.657,8.362-5.761,12.423C158.248,266.711,154.469,254.343,149.866,242.213z
		 M168.304,277.811c2.933-5.357,5.293-11.566,7.803-17.794c6.352-3.92,13.331-5.539,20.279-8.158
		c7.29-2.754,14.167-6.406,21.331-9.432c-2.982,5.622-6.2,11.148-9.3,16.724c-0.07-0.005-0.13-0.021-0.204-0.021
		c-0.976,0-1.711,0.37-2.217,0.924c-0.219,0.062-0.446,0.161-0.675,0.3c-13.142,8.026-25.499,18.01-40.114,23.198
		C166.238,281.612,167.272,279.692,168.304,277.811z M197.026,246.06c-5.926,2.63-11.982,4.024-17.758,6.487
		c4.229-9.396,9.524-18.038,18.526-22.932c1.648-0.223,3.277-0.497,4.876-0.828c11.282-2.331,20.962-7.136,26.225-16.671
		c-1.366,8.446-4.275,16.276-7.896,23.827c-0.462-0.09-0.963-0.069-1.492,0.124C211.792,238.919,204.535,242.729,197.026,246.06z
		 M225.836,246.537c2.122,7.052,5.201,13.841,8.054,20.729c3.905,9.407,8.234,18.744,16.095,25.479
		c0.227,0.186,0.459,0.302,0.702,0.389c4.509,12.987,10.436,25.255,16.606,37.469c-15.708-14.318-29.927-29.33-38.724-49.153
		c-0.294-0.663-0.75-1.072-1.266-1.306c-0.082-0.242-0.218-0.469-0.395-0.681C224.118,268.353,223.003,256.943,225.836,246.537z
		 M247.916,224.562c-5.296-3.845-9.225-9.75-11.753-16.706c7.306-10.854,20.241-16.318,33.237-17.006
		c4.488-0.243,8.729,0.466,12.776,1.805c0.646,0.96,1.937,1.432,3.031,1.138c9.137,3.829,17.137,10.751,24.377,17.31
		c0.124,3.705,0.553,7.347,1.227,10.92c-4.74-1.061-9.552-0.99-14.152,0.023c-0.074-0.138-0.155-0.278-0.251-0.406
		C283.602,204.951,260.427,210.628,247.916,224.562z M258.443,163.327c12.802,3.036,25.947,4.795,38.159-2.395
		c8.003-4.712,14.071-13.557,15.309-22.832c1.855,9.703,6.19,19.656,12.581,27.425c-8.086-1.664-16.495-1.192-24.43,1.59
		c-9.091,3.187-14.239,11.956-17.289,20.635c-4.076-1.269-8.396-2.025-13.038-2.121c-4.34-0.091-8.783,0.553-13.085,1.791
		C253.52,180.43,253.541,169.545,258.443,163.327z M326.436,248.488c-6.672-12.181-10.386-23.313-11.331-37.424
		c0.264-0.597,0.278-1.26-0.097-1.891c-0.426-11.134,1.397-30.714,9.436-38.268c0.028-0.021,0.04-0.056,0.068-0.08
		c2.761,0.674,5.438,1.589,7.917,2.697c0.289,0.125,0.562,0.182,0.821,0.213c1.131,0.786,2.281,1.541,3.485,2.193
		c-5.354,3.887-6.844,10.96-6.791,17.559c0.092,11.442,9.061,21.869,15.92,30.211c0.229,0.275,0.479,0.46,0.732,0.616
		C342.032,233.656,335.076,242.677,326.436,248.488z M354.55,151.633c0.02,0.217,0.362,1.766,0.691,2.117
		c0.507,2.823,0.789,5.794,0.91,8.333c0.188,4.024,1.126,8.025,0.791,12.031c-22.655,4.149-38.499-20.572-40.646-40.849
		c4.279,0.246,8.459,0.047,12.686-0.865C330.629,143.959,342.985,153.149,354.55,151.633z M284.74,27.644
		c0.371,0.232,0.73,0.48,1.116,0.686c0.03,0.037,0.058,0.083,0.102,0.121c1.351,1.318,2.818,2.506,4.021,3.972
		c0.524,0.65,21.521,28.361,19.383,45.954c-0.776,6.45-6.176,8.033-11.831,7.69c-7.086-0.434-11.887-4.098-16.356-9.188
		c-6.663-7.603-11.972-17.144-16.458-26.212c1.862-1.568,3.646-3.171,5.336-4.807c0.033,0.15,0.053,0.293,0.114,0.436
		c2.583,6.259,6.872,12.168,11.062,17.426c3.696,4.628,9.739,11.273,16.303,8.558c7.858-3.252,3.774-13.491,0.096-18.003
		c-5.311-6.505-13.45-11.393-21.027-14.902C280.053,35.895,283.25,32.264,284.74,27.644z M146.158,89.396
		c1.713,7.291,10.4,8.245,15.693,4.345c9.102-6.71,13.224-17.423,16.066-27.968c0.119-0.45,0.123-0.858,0.045-1.231
		c0.021,0.005,0.041,0.018,0.06,0.029c1.735,0.83,3.501,1.54,5.275,2.185c-2.979,18.223-18.27,47.144-36.298,52.329
		c-15.022,4.316-16.262-22.698-13.661-30.955c2.488-7.901,7.876-14.691,13.917-20.847c0.03-0.023,0.057-0.048,0.083-0.074
		c0.031-0.031,0.053-0.061,0.085-0.091c4.253-4.32,8.81-8.328,12.915-12.175c3.063,2.061,6.368,3.986,8.243,4.264
		c-6.008,1.506-11.249,6.823-15.083,11.268C149.184,75.459,144.524,82.469,146.158,89.396z M167.095,53.246
		c-0.812-0.469-1.612-1.469-2.545-1.887c7.182-5.99,13.132-13.331,17.863-21.389c3.599,2.656,7.631,4.811,11.829,6.493
		c-1.322,4.212-2.368,8.423-4.061,12.531c-1.757,4.257-3.688,8.445-5.473,12.694C179.67,60.804,171.01,55.488,167.095,53.246z
		 M194.42,52.335c2.031-4.662,3.252-9.423,4.78-14.226c3.653,0.936,7.491,1.275,11.395,1.138c1.911,8.703,4.198,17.302,6.393,25.931
		c-9.186,0.991-18.551,0.467-27.298-1.897C191.225,59.617,192.837,55.984,194.42,52.335z M190.287,68.806
		c2.132,0.52,4.284,0.968,6.459,1.265c-9.021,10.914-12.254,41.156,6.136,42.481c8.931,0.641,10.513-8.796,9.758-19.099
		c0.012-0.029,0.017-0.056,0.02-0.091c0.099-0.966,0.029-1.941-0.092-2.907c0.095-3.862-0.986-7.799-2.118-11.651
		c-0.697-3.362-1.376-6.221-1.781-8.074c3.089-0.066,6.174-0.333,9.25-0.727c0.009,0.188,0.041,0.383,0.097,0.591
		c4.61,17.195,6.055,41.897-3.58,57.589c-9.408,15.32-22.418-1.844-26.6-11.568C181.13,101.035,185.162,84.01,190.287,68.806z
		 M215.852,38.8c4.79-0.632,9.574-1.823,14.119-3.293c2.606,8.391,4.808,16.467,8.666,24.452c-5.222,1.994-10.768,3.53-16.446,4.493
		C220.022,55.914,217.755,47.395,215.852,38.8z M234.883,33.782c1.768-0.666,3.478-1.361,5.118-2.054
		c0.261-0.116,3.265-2.053,6.918-4.738c0.065,0.074,0.115,0.15,0.194,0.223c2.459,2.267,4.345,5.127,6.611,7.592
		c1.399,1.531,2.325,3.677,3.492,5.386c1.327,1.939,2.89,3.659,4.007,5.743c0.096,0.18,0.197,0.334,0.312,0.474
		c-5.514,4.534-11.614,8.516-18.078,11.525C239.614,50.071,237.482,42.079,234.883,33.782z M228.539,68.669
		c0.027-0.19,0.025-0.365,0.014-0.535c1.991-0.458,3.97-0.958,5.933-1.52c-0.095,0.354-0.11,0.748-0.018,1.187l0.176,0.863
		c1.151,10.107,3.943,18.364,10.094,26.51c3.102,4.09,10.554,10.489,15.822,5.685c4.615-4.203,3.353-11.497,2.312-16.981
		c-1.724-9.104-7.089-16.347-13.238-22.989c3.762-1.958,7.415-4.32,10.878-6.911c0.724,1.467,1.483,3.001,2.277,4.564
		c0.02,0.068,0.021,0.132,0.037,0.204c4.538,16.28,11.306,40.216,3.504,56.233c-7.342,15.085-24.148-5.389-28.31-12.185
		C232.103,93.133,227.095,80.186,228.539,68.669z M259.34,15.685c0.361-0.503,0.503-1.015,0.491-1.485
		c2.022,0.89,4.014,1.824,5.951,2.766c0.148,0.124,0.326,0.234,0.521,0.334c3.782,1.867,7.586,3.666,11.339,5.618
		c0.888,0.466,1.719,1.006,2.53,1.566c-1.136,6.896-9.03,13.687-14.627,18.508c-1.959-3.475-4.573-6.621-6.716-9.987
		c-2.021-3.177-4.973-6.638-7.759-9.217C254.348,21.14,257.54,18.222,259.34,15.685z M191.685,8.252
		c0.028,0.122,0.036,0.25,0.081,0.366c0.151,0.429,0.438,0.842,0.771,1.147c0.04,0.035,0.087,0.059,0.124,0.094
		c0.106,0.246,0.243,0.49,0.441,0.72c8.892,10.329,30.221,8.429,39.268-0.77c0.236-0.236,0.374-0.498,0.489-0.763
		c0.435-0.421,0.796-0.909,1.091-1.462c0.246-0.266,0.497-0.521,0.729-0.803c0.002,0,0-0.005,0.006-0.013
		c5.248,0.224,10.471,2.53,15.5,3.878c1.725,0.468,3.458,1.067,5.179,1.718c-0.134,0.13-0.269,0.277-0.389,0.451
		c-4.643,6.536-11.458,10.688-18.386,14.465c-0.225,0.126-0.417,0.272-0.581,0.432c-10.447,4.256-21.441,6.64-32.788,5.746
		c-11.431-0.902-25.062-11.007-28.609-21.799C180.238,10.222,185.931,9.092,191.685,8.252z M173.615,21.013
		c1.393,2.017,2.992,3.874,4.768,5.572c-0.052,0.076-0.114,0.14-0.167,0.231c-4.715,8.099-10.619,15.38-17.92,21.3
		c-0.256,0.209-0.445,0.441-0.586,0.68c-0.291-0.209-0.535-0.45-0.793-0.681c-0.038-0.057-0.067-0.117-0.11-0.176
		c-0.421-0.529-0.88-1.009-1.333-1.5c-0.018-0.028-0.038-0.046-0.049-0.075c-0.242-0.413-0.542-0.707-0.876-0.922
		c-1.925-1.95-3.99-3.752-5.661-6.047c-0.001-0.004-0.001-0.001,0.001-0.012c7.716-5.42,13.86-13.24,22.083-17.865
		C173.229,21.375,173.425,21.202,173.615,21.013z M152.336,19.239c0.228-0.043,0.459-0.1,0.696-0.2
		c5.425-2.393,10.957-4.359,16.571-6.005c0.415,1.253,0.905,2.461,1.464,3.624c-0.155,0.055-0.314,0.118-0.474,0.21
		c-8.405,4.718-14.558,12.685-22.459,18.115c-1.939-3.587-3.356-7.471-4.325-11.413C146.659,22.139,149.516,20.723,152.336,19.239z
		 M111.085,43.287c5.695-3.814,11.575-7.392,17.399-11.34c3.433-2.165,6.989-4.113,10.595-5.97c0.883,3.239,2.048,6.36,3.461,9.388
		c-5.559,1.551-11.02,3.863-16.137,6.389c-5.649,2.788-13.243,7.041-14.045,13.991c-0.871,7.585,8.312,9.837,13.806,7.851
		c9.475-3.418,17.863-10.182,22.039-19.318c1.646,1.791,3.414,3.453,5.071,5.257c0.171,0.246,1.236,1.146,2.737,2.302
		c-3.823,3.584-7.8,7.247-11.56,11.116c-0.242,0.11-0.476,0.251-0.699,0.455c-11.688,10.6-25.972,27.979-43.129,17.941
		c-14.797-8.654,4.356-29.212,10.249-37.68C110.96,43.541,111.024,43.414,111.085,43.287z M81.885,71.148
		c3.333-4.327,6.842-8.53,10.59-12.575c1.483-1.598,3.017-3.086,4.582-4.516c-6.506,9.995-11.136,21.359-1.312,30.157
		c11.534,10.329,23.902,5.524,34.721-2.387c-1.779,3.669-3.113,7.567-3.792,11.767c-1.682,10.343,3.141,28.826,15.573,30.765
		c11.476,1.791,20.981-9.29,27.33-17.26c3.628-4.55,7.09-9.807,10.1-15.378c-0.852,9.075-0.038,18.213,3.538,27.347
		c3.937,10.027,13.663,24.558,26.479,19.396c15.568-6.26,18.356-28.247,16.96-47.251c6.304,19.25,20.512,39.373,38.047,32.523
		c9.917-3.866,9.868-19.688,9.637-28.131c-0.202-7.147-1.128-14.348-2.495-21.456c3.174,4.576,6.704,8.688,10.648,11.609
		c6.556,4.857,19.646,8.859,27.102,3.562c7.821-5.553,4.943-17.927,3.62-25.953c-0.912-5.522-4.567-12.766-8.456-19.194
		c10.9,9.634,19.707,20.485,27.286,33.231c-0.151,0.323-0.235,0.695-0.218,1.147c0.857,24.975-23.018,37.087-44.74,27.956
		c-1.938-0.811-3.682,1.191-3.393,3.007c1.539,9.792,2.071,19.142-7.399,24.989c-9.719,5.999-24.984,5.528-34.652-0.019
		c-1.57-0.897-3.201-0.233-3.912,1.353c-11.248,24.771-53.232,25.318-64.904,0.73c-0.634-1.347-2.241-1.686-3.519-1.134
		c-13.442,5.81-27.862,10.779-42.495,6.55c-16.413-4.739-18.962-22.767-15.779-37.005c0.459-2.028-1.487-4.448-3.668-3.16
		c-7.207,4.286-16.26,2.035-21.804-3.866c-5.926-6.311-4.831-17.338-3.316-25.02C82.395,72.175,82.229,71.584,81.885,71.148z
		 M67.602,92.052c0.047-0.098,0.074-0.19,0.11-0.287c2.712-4.348,5.503-8.618,8.426-12.784c-0.748,8.87,0.545,19.031,7.613,24.568
		c6.099,4.78,14.102,7.028,21.407,4.904c-1.952,13.867,1.159,27.159,13.719,35.573c14.917,9.995,35.167,3.49,50.432-2.924
		c14.574,25.867,57.725,24.444,72.015-0.928c11.667,5.509,25.842,4.6,37.354-1.019c10.546-5.136,11.768-15.979,10.718-26.26
		c21.518,6.676,44.125-4.893,47.284-27.17c0.091,0.17,0.188,0.337,0.276,0.515c4.134,7.956,7.384,16.354,9.965,24.973
		c-0.046,0.06-0.102,0.104-0.14,0.166c-3.722,5.355-7.395,10.382-13.035,13.886c-7.182,4.472-16.652,3.147-24.582,2.023
		c-2.129-0.304-3.021,1.71-2.53,3.332c-0.035,0.257-0.037,0.531,0.016,0.829c2.149,11.718-7.306,24.145-18.318,27.545
		c-12.359,3.819-23.061,0.754-34.887-2.279c-0.838-0.222-1.568-0.046-2.136,0.336c-0.645-0.096-1.325,0.105-1.931,0.772
		c-11.526,12.61-25.227,21.544-42.416,23.711c-10.297,1.299-21.053-0.711-30.32-5.292c-5.642-2.793-9.351-9.217-14.664-12.716
		c-0.944-0.622-1.89-0.538-2.63-0.087c-0.607-0.264-1.33-0.278-2.098,0.109c-12.805,6.483-30.039,6.765-43.789,2.784
		c-9.262-2.684-14.618-10.698-19.13-18.619c-2.753-4.831-7.822-17.935-3.554-23.387c2.678-0.985,1.716-5.334-1.222-5.011
		c-0.434-0.073-0.882-0.014-1.323,0.231c-6.157,1.192-12.078,1.745-17.762-1.692c-5.085-3.075-5.713-11.072-7.622-16.168
		c-0.052-0.144-0.128-0.266-0.193-0.388C64.305,98.251,65.969,95.192,67.602,92.052z M59.363,107.484
		c1.966,6.097,3.489,11.871,9.585,15.559c4.753,2.87,10.251,3.053,15.605,2.394c-1.298,4.145-0.962,9.065,0.392,14.067
		c-10.605-6.794-22.257-10.699-35.214-8.924C52.052,122.244,55.538,114.807,59.363,107.484z M45.112,153.356
		c0.724-5.836,1.811-11.63,3.198-17.35c0.209,0.012,0.422,0.004,0.644-0.042c14.933-2.634,27.737,3.396,39.306,12.258
		c2.595,5.386,5.999,10.385,9.4,14.034c-6.144,0.681-12.816,2.56-18.412,5.784C71.962,156.28,58.663,151.039,45.112,153.356z
		 M48.352,207.405c-1.26-5.582-2.186-11.237-2.858-16.823c0.037-0.001,0.067,0.001,0.094,0c12.795-1.53,24.156,0.448,35.058,7.594
		c8.614,5.641,13.39,18.228,17.218,28.062c-5.828-0.757-11.629,0.118-17.13,2.072c-4.164-13.172-18.203-21.392-31.771-20.982
		C48.749,207.326,48.547,207.361,48.352,207.405z M71.378,251.609c-2.468-2.231-4.708-4.673-6.761-7.278
		c9.84-8.922,20.204-13.387,33.91-12.498c11.509,0.751,24.183,11.452,28.486,22.289c-3.221,0.829-6.692,0.944-10.362,0.157
		c-1.22-0.262-2.254,0.33-2.888,1.337c-0.564,0.895-1.63,1.693-2.99,2.411C103.702,244.952,81.77,239.364,71.378,251.609z
		 M101.509,485.701c0.828,5.754,2.155,11.417,3.26,17.134c-14.442,5.062-9.567,26.806,3.917,29.835
		c0.999,0.223,1.896,0.157,2.701-0.084c0.837,10.1,2.839,37.346,2.117,48.473c-1.028-0.589-2.298-0.827-3.773-0.451
		c-0.364,0.094-0.711,0.223-1.066,0.334c-0.056,0.005-0.103-0.005-0.158,0.005c-8.66,1.01-15.092,6.587-16.605,15.345
		c-1.46,8.439,2.203,17.383,9.946,21.378c0.291,0.243,0.578,0.487,0.886,0.72c1.023,0.781,2.306,0.897,3.532,0.621
		c0.154,0.031,0.307,0.062,0.464,0.074c-1.349,5.252-3.047,10.389-5.368,15.321c-0.962-1.131-2.329-1.889-3.832-1.711
		c-2.043,0.24-4.058,0.54-6.035,0.956c-3.38,0.232-6.472,1.317-9.381,3.272c-0.096,0.051-0.195,0.094-0.291,0.145
		c0.01,0.015,0.021,0.025,0.031,0.04c-0.364,0.254-0.73,0.497-1.089,0.776c-0.489,0.383-0.842,0.887-1.09,1.449
		c-1.351,1.101-2.574,2.424-3.621,4.016c-3.795,5.775-3.023,13.842-0.813,20.007c0.367,1.029,0.995,1.86,1.753,2.505
		c0.091,0.304,0.18,0.61,0.275,0.915c-1.134,0.605-2.35,1.098-3.615,1.508c-0.125,0.036-0.249,0.051-0.374,0.094
		c-2.973,1.065-5.874,2.287-8.799,3.43c-0.013-0.253-0.023-0.509-0.068-0.775c-1.343-7.823-8.516-12.325-16.018-12.726
		c-2.24-0.117-4.176,0.393-5.884,1.295c-6.301,1.085-10.472,5.732-11.566,11.441c-0.826,1.73-1.433,3.498-1.704,5.217
		c-0.124,0.773-0.115,1.541,0.006,2.273c-6.875-0.408-12.227-3.511-17.699-6.902c3.667-0.594,6.906-2.444,9.79-6.14
		c6.538-8.387,16.588-30.472,30.58-20.636c1.937,1.374,4.399-1.131,3.702-3.112c-3.536-10.12,0.004-28.083,11.771-31.212
		c2.109-0.567,2.483-3.919,0.41-4.804c-12.481-5.359-2.147-26.387,3.817-39.123c13.013,12.619,31.892-7.461,24.831-21.983
		c-2.643-5.436-9.95-10.064-15.876-8.733c1.101-7.938-0.16-14.822-0.277-20.846c-0.047-2.127-0.323-3.884-0.732-5.258
		c-0.881-14.611-3.168-30.298-6.953-44.362c-2.564-12.939-3.605-26.032-4.21-39.161c0.951,0.388,2.055,0.504,3.338,0.299
		c7.135-1.15,12.82-7.304,12.239-14.729c-0.625-8.006-7.503-12.888-15.198-12.792c-0.28,0.006-0.533,0.051-0.79,0.089
		c-0.025-1.706-0.079-3.412-0.189-5.123c-0.632-9.734,0.903-18.997,0.765-28.684c0.004-0.004,0.002-0.01,0.002-0.01
		c0.005-0.103,0.025-0.19,0.021-0.292c-0.314-10.471,1.103-21.204,3.158-31.759c0.275,0.099,0.555,0.191,0.871,0.252
		C92.863,337.45,98.04,308.125,79.578,302c-0.117-0.038-0.241-0.052-0.36-0.08c3.688-12.575,8.881-25.445,17.057-35.175
		c8.647-0.32,17.806-2.858,21.208-7.35c0.109,0.017,0.195,0.063,0.313,0.063c0.037,0,0.061-0.018,0.096-0.019
		c0.801,0.917,5.933,0.566,9.013,0.227c-3.743,6.854-7.354,13.767-10.6,20.835c-1.275-0.138-2.538-0.156-3.808-0.068
		c-0.114-0.015-0.217-0.044-0.333-0.052c-5.314-0.323-8.877,1.817-11.036,5.14c-1.049,1.063-1.773,2.496-2.349,3.858
		c-1.018,2.407-1.933,4.986-1.525,7.626c0.025,0.168,0.083,0.322,0.142,0.474c-0.053,3.863,1.427,7.799,4.799,11.164
		c0.319,0.321,0.655,0.57,0.999,0.783c0.479,0.788,1.314,1.355,2.515,1.367c-1.974,7.298-4.569,14.453-5.985,21.875
		c-1.806,9.447-2.329,19.063-3.932,28.498c-0.569-0.195-1.199-0.313-1.922-0.285c-8.093,0.294-14.225,5.502-15.259,13.616
		c-0.928,7.283,3.237,14.686,10.007,17.555c1.695,0.72,3.52,0.837,5.028,0.111c0.038,0.019,0.076,0.036,0.117,0.049
		c0.073,0.497,0.184,0.986,0.296,1.482v0.019c-0.04,1.204-0.017,2.405,0.106,3.612c0.15,8.046-0.147,18.349,0.299,26.729
		c0.569,10.622,1.566,20.884,2.852,31.409c-0.536-0.015-1.095,0.033-1.701,0.216c-16.655,4.999-10.394,27.761,4.705,29.946
		C100.719,485.681,101.116,485.701,101.509,485.701z M101.652,419.471c-1.091-1.495-1.894-14.711-1.782-25.68
		c0.264,0.056,0.558-5.202-0.158-5.328c0.104-0.959,0.666-9.391,0.771-12.655c9.91,19.605,23.174,37.229,33.962,56.349
		c0.038,0.451,0.086,0.902,0.123,1.356c1.033,12.231,2.202,23.106,6.148,34.215C128.224,453.511,111.82,433.444,101.652,419.471z
		 M108.461,445.668c-0.948-3.955-1.957-8.082-2.937-12.29c11.996,16.244,25.361,31.358,38.886,46.33
		c1.496,5.849,3.373,11.555,5.61,17.23c1.558,3.955,3.396,7.445,5.363,10.843c-12.788-10.876-30.339-22.255-34.744-22.169
		C115.842,471.94,111.849,459.796,108.461,445.668z M154.138,545.254c-2.419-3.286-28.314-49.585-29.304-52.328
		c15.882,8.114,28.332,18.49,40.293,31.637c0.078,0.152,0.164,0.3,0.278,0.446c5.85,7.577,9.946,16.858,14.734,25.143
		c1.928,3.341,3.253,6.761,4.557,10.322c-1.978-2.192-4.017-4.324-6.339-6.152c-6.86-5.39-15.732-7.684-24.173-8.997
		C153.963,545.289,154.043,545.259,154.138,545.254z M231.406,659.594c6.391,4.796,11.622,10.789,15.271,18.262
		c0.252,0.518,0.623,0.852,1.035,1.077c1.498,10.166,2.649,20.412-1.516,30.157c-2.493,5.83-5.167,11.646-8.615,16.898
		c3.736-11.169,3.459-24.782,2.072-35.765C238.329,679.752,235.33,669.485,231.406,659.594z M255.056,639.896
		c2.39,4.162,4.769,8.314,6.845,12.64c5.078,10.568,6.543,20.034,5.499,31.429c-0.043,0.135-0.09,0.269-0.115,0.421
		c-2.508,14.503-6.292,28.369-16.015,39.798c-3.706,4.35-8.715,8.033-13.941,10.783c5.961-7.004,9.487-15.356,13.724-23.94
		c5.877-11.899,2.817-25.986,0.979-38.636C253.089,661.565,253.989,650.721,255.056,639.896z M231.86,598.221
		c6.43,11.836,11.462,20.523,17.401,31.216c0.025,0.046,0.055,0.079,0.08,0.119c0.715,1.374,1.44,2.746,2.189,4.1
		c-0.497,0.264-2.023,12.71-3.218,23.697c-1.355-4.305-3.034-8.508-5.07-12.589c-2.002-4.011-3.554-8.198-5.558-12.206
		c-1.723-3.453-4.866-5.988-5.115-10.11c-0.018-0.276-0.077-0.515-0.156-0.732c-1.48-8.74-2.04-17.491-1.981-26.298
		C230.701,596.056,231.529,597.614,231.86,598.221z M236.102,642.018c3.186,8.085,6.977,15.238,8.979,23.604
		c-4.711-5.963-10.59-10.865-17.348-14.688c-2.224-7.202-20.04-31.776-27.68-41.265c10.942,1.733,22.444,6.332,27.86,16.437
		C229.463,631.617,234.081,636.882,236.102,642.018z M198.178,539.276c0.698,1.161,1.399,2.321,2.09,3.478
		c3.476,5.808,20.648,34.4,25.226,42.621c-0.393,8.242-0.396,16.428,0.226,24.588c-4.208-5.48-9.065-10.47-12.845-16.366
		c-2.388-3.731-5.711-6.931-8.521-10.348c-2.758-3.352-4.523-7.367-6.549-11.197C197.803,561.064,197.04,550.174,198.178,539.276z
		 M207.085,594.515c3.138,3.64,5.214,8.135,8.232,11.894c0.823,1.024,1.677,1.998,2.54,2.956c-6.55-3.544-14.107-5.473-21.596-5.982
		c-5.24-6.551-31.68-42.335-38.943-52.209c8.069,1.681,15.381,4.802,21.694,10.457c5.293,4.74,8.572,10.837,14.756,14.66
		c0.255,0.154,0.538,0.248,0.827,0.312C198.375,582.876,202.026,588.653,207.085,594.515z M173.163,485.544
		c4.522,14.033,11.664,26.97,17.745,40.367c0.963,2.122,2.057,4.208,3.193,6.274c-0.16,0.271-0.288,0.575-0.346,0.936
		c-1.787,10.195-1.463,20.356-1.249,30.577c-0.891-1.349-1.8-2.687-2.584-4.122c-2.447-4.486-3.833-9.514-6.446-14.041
		c-4.165-7.215-7.756-15.065-12.603-21.888c-0.001-0.008,0.001-0.018-0.001-0.027c-3.117-13.479-5.254-29.67,0.459-42.83
		C171.82,482.397,172.442,483.982,173.163,485.544z M167.412,464.989c0.877,2.794,1.474,5.61,2.075,8.401
		c-0.225,0.186-0.438,0.411-0.615,0.715c-6.458,10.981-7.143,24.235-5.576,36.936c-2.723-4.31-5.424-8.528-7.4-13.421
		c-2.425-6.003-4.52-12.046-6.167-18.244c0.02-0.109,0.064-0.21,0.069-0.329c0.446-9.053-1.487-17.896,0.878-26.818
		c1.856-7.022,5.098-13.732,8.985-19.88c0.458,3.473,0.971,6.946,1.58,10.386c0.053,0.307,0.157,0.576,0.285,0.821
		C162.522,450.981,165.169,457.866,167.412,464.989z M179.509,368.088c-0.018,20.794,4.208,40.928,10.475,60.686
		c7.661,24.169,17.233,47.704,26.908,71.117c7.513,18.202,21.44,39.798,17.786,60.242c-6.045-12.249-8.634-26.02-14.598-38.359
		c-6.334-13.096-14.403-25.314-21.236-38.147c-13.555-25.438-27.92-51.156-35.512-79.138c0.144-8.817,0.894-17.645,2.412-26.486
		c1.696-9.915,4.543-19.797,7.879-29.544c0.828-0.643,8.943-23.756,12.386-32.372c0.634-1.588,1.308-3.162,1.975-4.737
		c0.036,4.014,0.236,8.04,0.444,12.084c0.077,1.485,0.079,2.97,0.114,4.455C180.321,338.827,179.519,355.032,179.509,368.088z
		 M189.76,293.473c-11.171,6.582-21.048,14.221-31.182,22.26c-3.354,2.666-6.86,5.226-10.015,8.089
		c2.89-11.538,7.836-22.982,13.262-33.744c0.06-0.011,0.117-0.009,0.178-0.028c15.633-4.353,28.499-14.128,41.999-22.722
		c-4.497,8.562-8.926,17.122-13.129,25.787C190.517,293.135,190.145,293.247,189.76,293.473z M240.062,409.919
		c2.914,8.67,6.307,17.142,9.981,25.5c-0.266,0.007-0.54,0.058-0.824,0.154c-7.114,2.624-10.216,9.218-7.855,16.482
		c2.75,8.478,12.09,12.27,20.446,10.635c0.311-0.054,0.568-0.165,0.809-0.302c2.294,4.786,4.592,9.567,6.835,14.394
		c0.072,0.138,0.148,0.251,0.226,0.376c2.819,6.241,5.989,12.292,9.352,18.252c-8.939,1.344-14.729,13.024-7.079,19.742
		c5.307,4.67,12.722,0.548,15.969-4.861c7.188,12.959,14.366,25.9,20.301,39.503c0.662,1.6,1.306,3.229,1.949,4.877
		c-0.562-0.053-1.156,0.084-1.724,0.5c-11.012,8.036-4.087,29.335,10.112,26.798c1.407,6.568,2.319,13.21,2.518,19.796
		c-4.062-1.047-8.457-0.743-12.523,0.269c-0.51,0.127-0.918,0.375-1.237,0.685c-1.794-6.193-3.884-12.303-6.165-18.328
		c-3.721-9.856-8.264-19.4-13.39-28.621c0.03-0.015,0.065-0.025,0.099-0.045c6.437-4.036,9.367-11.89,4.85-18.569
		c-4.513-6.657-12.781-8.257-19.937-5.215c-0.782-1.12-1.557-2.256-2.352-3.366c-0.261-0.362-0.556-0.613-0.871-0.781
		c-5.652-9.516-11.842-18.692-17.983-27.9c6.468-4.175,11.699-12.457,6.884-19.882c-5.098-7.876-14.009-5.975-20.946-2.051
		c-0.181-0.302-0.37-0.599-0.547-0.897c-5.708-9.615-10.304-19.826-14.671-30.146c6.439-3.466,9.255-10.602,6.76-17.897
		c-2.636-7.687-10.632-10.059-17.542-7.433c-0.448-0.999-0.88-2.003-1.34-2.994c-0.038-0.078-0.087-0.146-0.128-0.22
		c-4.22-9.639-7.772-19.465-10.544-29.501c8.277-3.516,15.938-7.673,15.66-17.841c-0.178-6.259-4.707-9.402-9.78-9.805
		c-3.662-1.261-7.576-0.623-11.114,0.782c-0.113-1.043-0.257-2.078-0.346-3.125c-0.771-9.064,0.135-18.245,0.007-27.345
		c5.675,1.798,10.496-2.092,12.026-8.254c2.098-8.414-4.336-15.271-12.447-15.852c-0.099-0.006-0.186,0.008-0.277,0.009
		c0.086-3.201,0.333-6.396,0.848-9.58c6.046-12.655,12.792-25.037,19.45-37.279c2.137-3.923,4.331-7.798,6.467-11.681
		c-1.701,9.355-0.689,19.228,1.487,28.79c-4.333-0.434-8.447,1.005-11.371,4.865c-3.516,4.659-3.264,12.144-0.216,16.944
		c4.738,7.446,13.716,5.174,17.875-0.788c2.116,6.024,4.448,11.978,6.968,17.869c-0.763,4.205-2.014,8.285-3.156,12.4
		c-0.156-0.103-0.332-0.195-0.52-0.275c-4.335-1.739-9.397-2.371-13.242,0.809c-3.242,2.668-4.154,7.167-3.847,11.163
		c0.295,3.808,2.141,7.785,5.317,10.006c3.38,2.376,7.306,1.8,10.747,0.141c0.075,1.279,0.148,2.535,0.204,3.757
		c0.47,10.708,1.118,21.527,3.345,32.03c-7.772-0.561-14.698,4.804-12.802,13.39C222.797,409.148,231.699,413.22,240.062,409.919z
		 M257.053,350.319c-5.962-11.452-11.613-23.059-16.821-34.866c0.005-0.018,0.006-0.035,0.012-0.052
		c0.162-1.142-0.35-1.967-1.102-2.431c-0.551-1.28-1.132-2.548-1.676-3.829c-0.87-2.044-1.755-4.182-2.643-6.36
		c9.467,13.458,21.353,24.938,33.918,36.142c0.833,0.743,1.97,0.664,2.846,0.133c1.251,2.451,2.494,4.912,3.735,7.382
		c0.192,0.38,0.439,0.677,0.725,0.909c0.033,0.225,0.101,0.461,0.202,0.697c5.251,11.612,14.354,20.981,21.32,31.556
		c-5.11-2.626-9.498-6.886-14.654-9.624C273.168,364.803,265.044,357.759,257.053,350.319z M275.506,311.517
		c-0.161-3.908-0.107-7.856-0.056-11.804c5.604,14.49,13.198,28.232,22.294,41.084c1.423,5.882,2.104,11.87,2.94,18.007
		c0.898,6.592,2.287,13.072,2.287,19.668c-7.027-10.926-16.549-20.606-21.902-32.457c-0.186-0.408-0.429-0.717-0.705-0.949
		c-0.043-0.217-0.114-0.434-0.229-0.667c-1.86-3.714-3.869-7.345-5.878-10.983C276.2,326.363,275.798,318.801,275.506,311.517z
		 M302.693,407.614c-0.963-0.966-1.926-1.924-2.89-2.933c-5.509-6.891-12.69-12.379-18.404-19.264
		c-4.456-5.372-7.582-11.235-11.122-16.985c2.478,1.758,5.035,3.392,7.726,4.82c8.563,4.551,15.702,12.568,25.608,13.713
		c11.192,11.783,22.595,23.302,34.925,33.883c-3.878-1.287-7.69-2.859-11.625-4.01c-7.852-2.302-15.446-5.156-22.693-8.954
		C303.667,407.597,303.144,407.525,302.693,407.614z M306.265,360.827c-0.573-3.587-1.031-7.142-1.547-10.671
		c2.594,3.284,5.321,6.468,8.105,9.613c7.136,8.651,15.091,16.541,23.102,24.379c3.688,11.605,6.294,23.5,9.042,35.374
		c-13.23-10.916-25.271-23.181-37.074-35.627C308.821,376.124,307.5,368.52,306.265,360.827z M361.275,453.39
		c-0.397-0.137-0.773-0.183-1.123-0.157c-6.601-5.359-12.71-11.226-19.98-15.775c-0.092-0.063-0.183-0.094-0.271-0.137
		c-0.109-0.074-0.216-0.15-0.342-0.211c-7.674-3.731-15.23-10.584-21.893-15.971c-1.359-1.098-2.649-2.188-3.932-3.28
		c4.532,1.734,9.158,3.22,13.858,4.594c6.756,1.982,12.843,5.131,19.875,5.76c14.929,11.737,30.899,21.983,44.562,35.262
		c-4.393-0.791-9.088-3.204-12.791-4.386C373.248,457.159,367.205,455.491,361.275,453.39z M450.704,515.726
		c4.106,8.842,7.982,17.649,10.733,27.014c2.365,8.056,2.783,16.827,2.991,25.481c-2.452-6.041-4.705-12.165-7.402-18.115
		c-4.376-9.638-11.185-18.193-17.979-26.212c-6.896-8.143-12.062-16.093-20.225-23.165c-2.479-2.16-4.946-4.394-7.423-6.646
		c6.521,1.085,12.093,4.076,17.289,9.253c1.646,1.627,4.132,1.054,4.646-1.288c1.062-4.812-0.499-9.598-1.563-14.275
		c-1.065-4.761-2.046-9.514-3.118-14.251C437.494,486.793,443.924,501.134,450.704,515.726z M421.414,463.623
		c-0.218,0.434-0.289,0.966-0.116,1.607c1.719,6.376,3.32,12.769,4.578,19.259c0.71,3.647,2.058,7.752,2.459,11.707
		c-6.799-5.288-14.191-7.793-23.193-7.768c-4.907-4.37-9.95-8.566-15.313-12.11c-5.78-4.806-11.677-9.453-17.664-13.99
		c4.081,1.242,8.154,2.505,12.157,3.997c5.11,1.909,9.866,3.521,15.235,1.841c1.083-0.342,1.719-1.676,1.572-2.745
		c-1.703-12.604-7.372-23.748-12.482-35.171C400.35,440.613,411.527,451.271,421.414,463.623z M379.66,422.756
		c0.007,0.3,0.369,0.508,0.499,0.834c4.57,11.755,11.01,22.793,14.247,34.951c-12.954-12.328-27.744-22.331-42.003-33.118
		c-0.297-0.228-0.575-0.461-0.872-0.689c-2.654-11.078-5.042-22.201-8.039-33.158c0.462,0.454,0.923,0.91,1.385,1.369
		C347.877,396.417,378.75,421.971,379.66,422.756z M503.518,477.541c-4.259-2.974-8.305-6.193-12.014-9.661
		c-6.979-6.522-13.615-13.228-20.48-19.713c6.642-3.873,6.692-12.7,2.408-19.524c-5.798-9.212-20.676-9.369-27.748-1.866
		c-6.312-4.484-13.01-8.365-20.026-11.612c1.373-6.776-2.287-14.752-8.311-17.991c-7.498-4.041-16.49,2.448-20.857,8.389
		c-13.71-3.161-27.404-5.514-40.678-10.779c-0.486-0.19-0.933-0.226-1.344-0.165c-2.547-2.226-4.689-4.157-5.604-5.075
		c-0.68-0.907-3.647-3.295-4.079-4.025c-0.583-0.58-1.168-1.156-1.759-1.729c1.511-2.695,2.246-5.512,2.391-8.355
		c0.443-1.361,0.694-2.82,0.753-4.183c0.294-6.941-3.712-12.783-9.124-15.629c-3.134-2.206-6.878-2.33-10.635-1.434
		c-0.278,0.063-0.558,0.126-0.836,0.21c-2.651,0.73-5.288,1.922-7.694,3.199c-0.494-0.546-0.971-1.112-1.463-1.666
		c-1.637-1.994-3.234-4.024-4.775-6.112c-0.34-0.454-0.73-0.717-1.131-0.852c-2.771-3.41-5.44-6.888-7.99-10.442
		c-0.702-2.849-1.577-5.676-2.732-8.468c-0.71-1.715-2.482-1.864-3.722-1.145c-0.826-1.321-1.658-2.639-2.459-3.974
		c7.177-6.287,10.327-14.806,6.378-23.952c-3.668-8.483-13.481-12.456-21.859-9.226c-1.22-3.568-2.357-7.17-3.317-10.822
		c-0.191-1.456-0.427-2.901-0.729-4.342c-0.102-0.484-0.307-0.877-0.578-1.194c-2.348-10.492-3.592-21.308-3.579-32.396
		c0.243,0.366,0.485,0.732,0.737,1.087c-0.469,1.698,0.906,2.886,2.388,2.993c2.291,2.63,4.841,4.889,7.61,6.765
		c-3.257,5.484-2.748,12.453,0.766,17.812c3.701,5.643,9.301,7.44,15.667,7.265c5.312,13.171,13.278,25.255,21.405,37.03
		c-5.704,5.467-8.489,13.106-3.468,20.123c4.986,6.953,14.881,6.904,21.966,3.784c9.226,10.163,19.783,19.366,31.29,25.967
		c-2.343,7.271-3.085,16.095,5.077,19.766c8.855,3.982,17.119-2.986,21.602-10.063c18.104,1.11,41.646,8.391,44.132,10.025
		c0.367,0.19,0.725,0.391,1.085,0.578c-3.557,5.542-4.317,13.018-0.372,18.445c7.787,10.7,24.822,3.843,25.01,3.851
		c6.128,0.302,11.971,2.905,17.36,5.643c8.351,4.238,11.042,12.427,13.04,21.063c0.03,0.14,0.086,0.264,0.137,0.383
		c-8.16,2.378-11.126,14.989-3.975,21.203c5.973,5.187,17.461,2.203,22.301-4.152c2.664,6.799,4.367,14.394,6.36,19.221
		c0.577,1.396,1.15,2.824,1.744,4.259C516.523,471.646,508.619,472.574,503.518,477.541z"/>
</g>
</svg>
