<?xml version="1.0" encoding="utf-8"?>
<!-- Generator: Adobe Illustrator 25.2.0, SVG Export Plug-In . SVG Version: 6.00 Build 0)  -->
<svg version="1.1" id="Layer_1" xmlns="http://www.w3.org/2000/svg" xmlns:xlink="http://www.w3.org/1999/xlink" x="0px" y="0px"
	 width="422.5px" height="815px" viewBox="0 0 422.5 815" style="enable-background:new 0 0 422.5 815;" xml:space="preserve">
<style type="text/css">
	.st0{fill:#00BAD6;}
</style>
<path class="st0" d="M138.2,809.2c11.7,0.2,22.6,4.1,34.1,5.2c7.2,0.7,13.2,1.1,20.1-1.3c6.6-2.3,12.7-4.6,19.6-5.9
	c11.8-2.2,27.2-2.5,32.9-14.8c1.5-3.3,2.1-7,3.3-10.4c1.6-4.6,6.4-8.3,10.4-10.7c7.9-4.7,15.8-7.2,21.9-14.5
	c11.4-13.5,10.2-34.3,12-50.7c1.1-9.6,5.2-18.1,7.3-27.5c2.3-9.9,0.3-16.6-1.8-26.2c-1.9-8.5,9.2-10.9,10.1-18.7
	c0.8-7-0.2-13.3-4.4-19.2c-1.8-2.5-3.7-4.8-5.2-7.5c-1-1.7-1.4-3.5-1.8-5.4c-0.4-1.9-0.2-3-0.2-3.4c1.7-1.2,4.9-1.8,6.6-2.7
	c2.4-1.3,4.1-3.5,4.6-6.1c1.6-7.4-3.6-14.2-4.9-21.1c-1.5-7.9-3.7-15.9-2.5-24c1.2-8.5,5.4-16.1,9-23.8c3.4-7.4,3.4-14.3,1.2-22
	c0-0.2-0.1-0.3-0.2-0.5c11.5,10.7,22.8,22,38.3,26.2c8.1,2.2,17.5-0.8,24.6-4.8c6.4-3.6,8.7-10.6,9.7-17.4
	c1.5-9.9,1.3-17.3,8.9-24.2c1.3-0.1,2.5-0.8,2.9-2.2c3.2-2.2,6.7-4,9.9-6.1c3.5-2.4,6-5.9,8.7-9.1c4.9-5.8,11.1-14,8.4-21.7
	c-4.1-11.5-12-18.9-12.8-24.3c-0.3-1.9,9.3-22.1,10.8-25.4c4.7-10.4-1.7-21.6-11.1-26.1c-7.9-3.9-11.6-6.9-10.5-16.2
	c0.8-6.6,2.8-12.7,1-19.3c-3.7-13.7-23.5-19.1-35.6-19.8c-0.9,0-1.6,0.2-2.2,0.5c-3-4.7-7.1-9.1-9.9-13.5c-2.8-4.3-2.6-7.7-0.8-10.6
	c1-0.5,1.7-1.3,2-2.4c5.1-4.8,14.8-7.8,19.9-10.7c9.5-5.4,14.6-18.5,8.1-28.2c-2.6-4-6.9-6.3-11-8.4c-4.2-2.1-10.3-4-8.4-9.8
	c3.7-11.3,20.2-17,19.3-29.8c-0.5-6.7-9.2-10.9-13.7-14.3c-6.1-4.7-3.6-9.4,0.4-14.4c5.9-7.3,15.8-16.8,11-27.3
	c-2.6-5.7-7.2-6.7-13-7.1c-8.4-0.6-18.6-6.4-23.8-13.4c0,0,0-0.1,0-0.1c0.2-8.7,7.6-13.8,11.4-21c3.8-7.2,2.6-15.2-0.1-22.5
	c-2.5-6.7-8.4-10.6-15.5-11c-1.5-0.1-2.9,0-4.3,0.1c-0.8-0.2-1.6-0.2-2.4,0.1c-1.9,0.1-3.9,0-5.9-0.5c-3.5-1-0.7-7,0-9.1
	c2-6.1,4.6-11.8,5.4-18.3c0.6-5-1.8-13.5-7.5-15c-3.6-1-8.4,0.6-12.3,0.3c-0.8-0.5-1.8-0.8-2.8-0.7c-1.2-0.6-2.3-1.5-3.1-3.1
	c-1.8-3.6-1.2-7.7-6.6-7.7c-3,0-6.1,1.6-8.8,2.8c-1.4,0.6-2.8,1.4-4.2,2.2c-0.5,0.3-0.9,0.4-1.3,0.4c-0.5-0.7-1.2-1.2-2.1-1.4
	c-1.1-1.6-1.6-4.1-1.9-5c-3.2-8.1-11.3-9.8-19.2-8.8c-7.8,1-12.9,6.2-17.2,12.2c-2.8,3.9-5.8,8.4-11.2,8.6
	c-4.5,0.2-9.4-7.5-12.2-10.3c-11.8-11.6-24.5-9-33.3,4.2c-4.2,6.3-6.7,13.7-9.8,20.6c-2.1,4.7-5.8,10.2-11.7,7.2
	c-3.4-1.7-5.7-5.2-8.6-7.6c-1.6-1.2-3.1-2.2-4.6-2.8c-0.9-1.1-2.1-1.4-3.2-1c-12.1-2.5-21.8,12.2-26.3,23.1
	c-4.2,10.3-7.7,20.8-12.1,30.9c-6,13.9-14.4,26.4-20.8,40.1c-2.2,4.6-4.3,9.2-6.6,13.6c-0.7,0.6-1.3,1.4-1.4,2.6
	c-4.3,7.8-9.4,15.1-16.4,21.4c-2.5,2.3-5.2,4.5-7.8,6.6c-1.1,0.3-2.1,1-2.6,2.1c-6.1,4.9-12.4,9.6-18.5,14.5
	c-9.8,7.9-35.4,17-31.4,33.5c-6.2,5.8-5.4,15.1-1.4,22.6c2.1,4,5.6,6.7,9.7,8.2c1.5,0.6,3.9,0.4,5.3-0.4c3.5-2.1,6.1-2.9,10.4-1.8
	c5.3,1.3,10.2-0.2,14.4-3.5c7.2-5.5,14.5-9.8,22.3-14.4c5.7-3.4,10.7-7.9,16.2-11.5c7.5-4.8,22.7-5.1,22.9-5.2
	c19,1.2,37.8,2.1,56.9,0.6c1.5-0.1,2.9-0.2,4.4-0.4c-1.4,0.5-2.7,1.1-4.1,1.6c-5.7,2.5-12,6.6-16.1,11.4c-4.4,5.2-6.5,10.8-6.9,17.5
	c-0.3,3.6-0.1,7.3-0.5,11c-0.2,2-1,3.6-2.1,5c-0.9,0.4-1.7,1.2-2,2.1c-1.1,1-2.3,1.8-3.6,2.7c-4.3,3-9.1,5.9-11.2,11
	c-2.8,6.6-1.8,13.6-0.9,20.5c1.4,10.1-1.6,16.4-7.6,24.1c-2.9,3.7-5.1,7.5-6.4,11.7c-0.5,0.6-0.9,1.3-0.9,2.4c0,0.5,0,1,0,1.6
	c0,0.2-0.1,0.5-0.1,0.7c-0.1,0.7,0,1.4,0.2,1.9c0.5,10,3.5,19.9,2.2,29.9c-1.4,11.1-7.9,20.9-4,32.3c2.6,7.6,10.2,11.5,13.9,18.4
	c4.9,9.3-1.2,23.8-0.3,33.9c0.8,9,6.1,16.1,12.2,22.3c3.8,3.9,8,7.5,12.1,11.1c4.5,3.9,12.8,6.2,12.6,13.1
	c-0.4,10.2,3.9,14.2,12.1,20c9.6,6.7,16.5,17.3,25.6,24.7c1.2,1,2.6,1,3.6,0.4c0.2,1,0.4,2.1,0.6,3.1c-0.1,0.5-0.1,1.2,0.2,1.8
	c0.1,0.2,0.1,0.3,0.2,0.5c0.1,0.5,0.2,1.1,0.3,1.6c0.2,1.1,0.7,1.9,1.4,2.4c3.9,9,9,17.5,12.6,26.7c5,12.7,8.9,26.1,13.1,39.1
	c8.3,25.1,6.1,51.5,1,77c-4.8,24.1-19.1,43.5-42,53.3c-11.6,5-24.4,4.2-36.4,1.2c-7.7-1.9-21.6-11.9-26.3-22.1
	c-6.6-16-5.7-37.1,10.2-47.4c10.1-6.5,21.2,0.3,21.8,11.5c0.5,9.3-4.1,15.3-7.5,23.3c-2.4,2.5,0.8,7.5,4.9,6.1
	c10-3.6,20.7-9.6,27.8-18c0.1-0.1,0.3-0.3,0.4-0.5c3-3.7,5.4-7.8,6.8-12.5c4.3-14.3-6.7-26.4-18.2-32.9c-12-6.8-27.7-12.4-41.7-11.3
	c-5.8,0.5-11.1,2.6-14.9,7.3c-5.9,7.3-7.6,15.8-16.5,20.4c-10.8,5.6-18.2,12.1-18.6,24.9c-0.5,12.9,0.5,26,1.5,38.9
	c0.8,11,0.5,22.3,10.2,29.5c2.5,1.9,5.9,2.5,8.8,3.3c5.1,1.3,9,4.5,11.7,9c4.3,7.5,3.6,15.3,10.2,21.8
	C121.1,809.3,130.3,809.1,138.2,809.2z M167.4,702.5c-3.9,3.7-8.7,6.9-13.4,9.4c1.3-2.5,2.4-5.2,3-8.4c0.5-3.2,0.9-6.4,0.9-9.7
	C161.4,696.1,164.6,699.2,167.4,702.5z M140.6,658.1c4.9,1.2,10,2.9,14.9,5.2c-4.8,1.2-10,3.8-13.2,4.3c-0.3-1.9-0.4-3.8-0.7-5.6
	C141.5,660.6,141.1,659.3,140.6,658.1z M159.1,669.1c0.1,3.7-2.6,8.1-5.1,11.8c-2-2.8-4.5-4.9-7.5-6.3c1.2-0.4,2.4-0.8,3.6-1.2
	c1.6-0.6,3.3-1.2,4.9-1.7C157,671,159.1,671.5,159.1,669.1z M109.9,666.9c1.4-2.8,3-5.5,5.1-7.7c2.2-2.2,5.1-3.1,8.2-3.4
	c-1.4,5.1-1.7,10.3-2.5,15.5C117.2,669.3,113.7,667.7,109.9,666.9z M131.1,656.6c0.1,0.2,0.2,0.3,0.3,0.5c3.3,4.1,3.2,10.1,4.2,15.4
	c-2.1,0.1-4.2,0.4-6.3,1c-0.4,0.1-0.9,0.3-1.3,0.4C128.9,668.2,129.2,662.3,131.1,656.6z M167,670.5c2.4,2.1,4.5,4.4,6.1,7
	c4.3,6.8,3.2,13.3-0.6,19c-3.7-4.1-7.9-7.8-12.6-10.5C162.9,681.5,166.6,675.5,167,670.5z M185.3,807.1c-3.2,0.7-6.6,0.7-10.1,0.3
	c2.2-2.8,4.3-5.8,6.4-8.9c1.7,2.5,2.8,5.6,3.6,8.3C185.2,806.9,185.2,807,185.3,807.1z M196.2,802.8c-0.1,0.2-0.1,0.5-0.1,0.7
	c-1.2,0.5-2.3,0.9-3.5,1.4c-1.5-4.8-3.5-9.4-6.8-13c3-5.1,5.6-10.4,7.4-15.9C198.5,783,198.1,794.9,196.2,802.8z M218.6,798.1
	c-4.5,0.9-9,1.6-13.5,2.5c-0.2,0-0.3,0.1-0.5,0.1c1.9-11.9,0.2-25.7-9.1-33.8c0.2-1.6,0.4-3.2,0.5-4.8
	C208.6,770.6,216.2,782.5,218.6,798.1z M220.8,776.5c2.1-2.8,5.2-5.4,8.8-4.4c-1.2,5.5-3.1,10.8-5.3,16c-1.1-3.8-2.5-7.4-4.3-10.8
	C220.3,777,220.6,776.8,220.8,776.5z M242.9,775.7c-1.3,2.2-2.4,4.6-3.2,7.2c-1.2,3.9-1.8,8.7-5.6,11.1c-1.4,0.9-3.1,1.4-4.8,1.8
	c3.4-7.5,6.3-15.2,7.9-23.2C239.1,773.6,241,774.6,242.9,775.7z M263.6,759.9c-3.8,1.9-7.7,3.6-11.3,6.1c-1.6,1.1-3.1,2.3-4.5,3.6
	c-3.1-1.8-6.3-3.6-9.7-4.9c0.2-2.4,0.2-4.9,0-7.4c3.4-5.2,10.7-11.9,16.7-9.9c0.3,0.1,0.5,0.1,0.7,0.2
	C257.2,752.5,259.8,756.9,263.6,759.9z M283.6,718.3L283.6,718.3c-0.1,1-0.1,2-0.2,2.9c-0.8,9.6-2.1,19.2-6.9,27.7
	c-1.5,2.7-3.4,4.7-5.5,6.4c-11.6-6.1-11.7-27.7-5.4-37.6c0,0,0-0.1,0.1-0.1C271.5,716.5,277.5,716.1,283.6,718.3z M246.9,714.2
	c3.9-8.5,5.4-18.1,2.4-26.6c1.8,1.3,3.6,2.6,5.3,3.9c0,0,0,0.1,0,0.1c3.1,7.8,1.3,15.1-3.6,21.5c-0.1,0-0.2,0.1-0.3,0.1
	C249.4,713.6,248.1,713.9,246.9,714.2z M261.5,710.7c1.6-3.7,2.4-7.6,2.3-11.6c3.3,2.9,6.3,6.1,8.5,10
	C268.7,709.3,265.1,709.9,261.5,710.7z M286.8,694.2c-1.5,5.2-2.1,10.7-2.6,16.2c-1.1-0.3-2.1-0.6-3.2-0.8c0-0.2-0.1-0.4-0.2-0.6
	c-1.5-3.8-3.7-7.1-6.2-10.1c5.6-4.2,7.7-12.8,9-19.2c1-4.7,1.4-10,0-14.5c3.1,0.2,6.1,0.8,8.8,1.8c0.5,0.2,0.9,0.2,1.3,0.2
	C294.4,676.2,289,686.1,286.8,694.2z M259,660.3c-1.4-4,2.4-11.2,3.2-14.8c1-4.7,0.5-9.3-0.9-13.9c-0.1-0.5-0.3-0.9-0.6-1.2
	c0.1-0.2,0.3-0.3,0.4-0.5c5-6.5,10.5-12.9,17-18.1c7.7,6.8-1.6,19.4-5.4,26.1c-3.5,6.2-6.8,13.6-4.8,20.6
	C264.8,658.9,261.9,659.5,259,660.3z M252.3,628.6c-0.1-3.3-0.6-6.6-2.1-10c-1.7-3.8-4-6.9-7-9.3c3.3-1.8,6.6-3.5,10.1-4.9
	c2,2,3.6,4.1,4.3,7.1c1.1,4.4-1.2,9.2-2.5,13.4C254.1,626.2,253.2,627.4,252.3,628.6z M298.9,621.3c1.8,3.1,3.1,9.1,1.2,12.5
	c-1.6,2.9-5.2,5.2-7.3,7.8c-4.2,4.9-2.8,11.2-1.1,17.1c-4.6-1.2-9.5-1.3-14.3-1c-0.6-0.3-1.2-0.4-1.8-0.4c-3.7-8.7,8-21.7,11.2-29.5
	c3-7.3,2.6-14.8-2.4-20.4c1.6-1,3.2-1.9,4.8-2.7C291.5,610.9,296.8,617.8,298.9,621.3z M265.4,613c0-1-0.1-2.1-0.3-3.2
	c-0.5-3-1.9-5.6-3.8-8c6.2-1.5,13.7-2.5,20.4-2.1C275.7,603.2,270.3,607.9,265.4,613z M288.2,592.6c-9.6-1.6-20.6,0-29.8,1.9
	c-1.7,0.3-3.3,0.8-4.9,1.3c0,0,0,0,0,0c0.2-0.9,0.4-1.8,0.6-2.7c1-4.1,2.5-8,4.6-11.7c3-5.3,10-12.4,16.6-10.5
	c0.5,0.1,1,0.2,1.4,0.1C281.9,577.4,286.6,584.6,288.2,592.6z M242.6,536c2.5,2.1,5,4.2,7.5,6.4c7.1,6.4,13.5,13.5,19.9,20.7
	c-1.2,0.2-2.4,0.6-3.5,1.1c-0.1-0.2-0.3-0.4-0.5-0.6c-10-9.9-25-8.3-36.1-1c-0.1-0.2-0.3-0.5-0.5-0.7c-5.2-5.8-1.1-26.2,8.6-26.1
	c0.6,0,1.1-0.1,1.5-0.3C240.4,536.1,241.5,536.3,242.6,536z M295.8,572.4c0.8,4.1,3.1,7.9,4.2,11.9c1,4-1.4,5.2-4.2,6.2
	c-1.8-8.4-6.6-15.7-11.7-22.6c3.3-1.3,7-1.4,10.4-1.6c0,0,0,0,0.1,0C295,568.5,295.4,570.5,295.8,572.4z M292.2,548.7
	c-0.1,3.3,0.2,6.7,0.8,10.1c-4.7,0.3-9.6,0.7-13.9,2.9c-0.8-0.9-1.5-1.8-2.3-2.8c6.2-2.2,11.1-6.6,15.5-11.5
	C292.3,547.8,292.2,548.2,292.2,548.7z M289.6,538.7C289.5,538.7,289.5,538.8,289.6,538.7c-4.6,5.7-9.8,11.7-17.2,13.5
	c-0.4,0.1-0.8,0.3-1.1,0.4c-3.1-3.4-6.3-6.6-9.5-9.8c6.6-2.4,12.4-7.4,17.8-11.9C282.9,533.5,286.3,536.1,289.6,538.7z M255,536.5
	C255,536.5,255,536.5,255,536.5c-0.4-0.3-0.8-0.7-1.2-1c-7.4-6.7-15.2-12.8-23.4-18c4.7-1.9,9.2-4.7,13.5-7.2
	c10.1,4.1,19.8,9.7,29,16C267.8,530.8,261.7,536.3,255,536.5z M180.8,467.9c0.3,0,0.5,0,0.7,0c0,3.8-0.2,7.6,0.1,11.3
	c0.2,2.3,0.6,4.7,1.1,7c-2.3-2.4-4.4-5.8-5.7-7.7c-2.4-3.6-4.7-7.5-6.4-11.6c-0.3-1.3-0.6-2.5-1-3.8
	C172.5,465.9,176.2,467.7,180.8,467.9z M190.4,485.3c-1.4-6.6-0.9-13.1-1-19.7c0-1.6-0.1-3.2-0.1-4.8c8.7-0.7,17.5,3.1,22.4,10.5
	c-2.4,4.3-4.3,8.8-5.7,13.5c-0.2,0.6-0.2,1.1-0.1,1.6c-5,2.2-9.7,4.9-13.9,8.1C191.6,491.4,191,488.4,190.4,485.3z M189,452.9
	c-0.1-2.9-0.1-5.9-0.2-8.8c10.3,0.4,18.6-5.7,25.9-12.5c1.9,8.4,5.9,16.1,12,21.6c-4,3.2-7.5,7-10.6,11.1
	C209.5,456.5,199.3,452.2,189,452.9z M185.4,315.7c-1.5-8.3-2.7-17.1-6-25c2.4,0.7,4.9,1,7.5,1.2c-0.5,8.7-0.8,17.5-1,26.3
	C185.7,317.4,185.5,316.5,185.4,315.7z M194.7,292.1c3.5-0.1,7-0.3,10.3-0.5c-0.9,3.1-1.8,6.2-2.5,9.3c-0.2,0.3-0.4,0.6-0.5,1
	c-3.5,9.9-6.3,20.1-8.8,30.4C193.6,319,193.9,305.5,194.7,292.1z M160.5,160.2c-0.2-0.1-0.3-0.2-0.5-0.2c-0.2-4.2-1.1-8.4-2.5-12.4
	c12.6,2,23.6,10.5,24.6,23.8c0,0.2,0.1,0.5,0.1,0.7c-0.7,1.1-1.3,2.2-1.8,3.3c-4,8.6-3.4,20.9,4.6,25.5c-1,0.5-2.1,1-3.1,1.5
	c-0.5,0.1-1,0.3-1.5,0.7c-0.1,0-0.1,0.1-0.2,0.1c-4.8,2.2-10.2,3-15.7,3.4C175.4,192.5,177.5,170.7,160.5,160.2z M153.2,207.2
	c-1.5,0.1-3,0.2-4.6,0.2c1.2-4.6,1.2-9.8,0.6-14.8c4.4,0.5,8.6,2.1,12.8,3.5C159.9,200.4,156.8,204.3,153.2,207.2z M150.5,184.9
	c5.4-2.9,7.7-10,8.9-15.8c5.6,5.2,6.8,12.4,5.3,19.4c-0.1,0-0.3,0.1-0.4,0.2C159.8,187.2,155.3,185.6,150.5,184.9z M182.1,113.9
	c-0.1-4.4-0.5-8.9-1.4-13.3c2.5-0.2,5.1-0.5,7.6-0.3c3.3,0.3,6.4,1.8,9.3,3.4c1.2,6.5,6,12.3,11.8,16.9c-2.1,0.1-4.1,0.4-6.1,0.9
	C197.3,115.8,190.5,114.5,182.1,113.9z M257.4,86.3c1.3-4.2,2.6-8.4,4.7-12.3c0.6-1.1,1.3-2,2-2.8c0.6,0.5,1.3,1,1.8,1.5
	c7.3,7.7,10.1,21.6,8.3,31.9c-9.6,0.9-19.2,0.6-28.7-2.4c-4.6-6.9-4-15.8-3.4-23.8c3.8,1.8,6.8,4.6,8.2,8.3
	C251.4,90,256.4,89.3,257.4,86.3z M219.5,50c0.6-1,1.2-2,1.8-3c3.1-6.3,3.5-13,5.4-19.5c0.7,0.3,1.5,0.6,2.2,0.8
	c0.4,0.9,1,1.6,2.1,2.1c9,3.7,17.4,19,10.4,27.9c-2.3-2.6-5-4.9-8.3-6.2C228.5,50.3,224,49.6,219.5,50z M271.1,67.1
	c1.4-0.4,2.9-0.7,4.5-0.9c5.8-0.9,11-0.3,14.9,3.8c-4.9,3.5-8.3,7.7-10.7,12.5C278,76.7,275.1,71.4,271.1,67.1z M298.7,88.7
	c3-1.2,5.8-2.8,8.5-4.4c-1,4.2-2.7,8.1-5.4,11.8c-0.5,0.2-0.9,0.4-1.4,0.6c-3.6,1.3-6.4,4.1-9.8,5.4c-2.8,0.6-5.6,1.1-8.5,1.6
	c0.1-1.1,0.2-2.3,0.2-3.4c0-0.1,0-0.1,0.1-0.2c1.9-9,4.4-16.7,11.2-22.5c0.1,2.7-0.2,5.6-0.5,7.4C292.5,88.1,296.2,89.6,298.7,88.7z
	 M315.9,79.5c0.9-0.4,1.9-0.8,2.9-1.1c0.9-0.3,1.8-0.6,2.8-0.9c-1.9,3.2-4.3,6.2-7,8.9C315.2,84.2,315.6,81.9,315.9,79.5z M234,84.7
	c-2-2.9-4-5.7-5.6-8.8c2-0.1,4,0,6,0.3C234.2,79,234,81.8,234,84.7z M227.5,88.9c-2.6-1.7-5.4-3.2-8.6-4c-2.3-0.6-4.8-0.8-7.3-0.5
	c0.1-0.5,0.1-1.1,0.2-1.6c2-2.5,5-4.4,8.5-5.5C222.2,81.4,225,85.1,227.5,88.9z M203.4,87.4c-1.7,1.2-3.1,2.8-4,4.7
	c-0.5,1.1-0.9,2.2-1.3,3.3c-0.9-0.4-1.9-0.8-2.9-1.2c2.7-5.6,2.5-12.3,0.1-18.2c-3.1-7.8-10.9-10.7-18.5-10.8
	c0.2-5.3-0.8-10.7-2.9-15.1c0.1,0,0.2-0.1,0.3-0.2c0.1,0,0.1,0,0.2,0c10,0.7,18.9,4.1,25.6,11.8C205.9,68.8,205.1,78.8,203.4,87.4z
	 M165.6,51.4c4.4,6.1,4.8,19.1-0.1,25.1c-3.9-3-8.3-5.3-13.1-6.8c4.9-6.1,6.3-14.7,5-22.8C159.9,49,162.6,50.8,165.6,51.4z
	 M175.6,73c4.2-0.3,8.1,0.6,10.8,3.6c-4.4,2.5-8.7,5.1-12.4,8.5c-0.9-1.2-1.8-2.4-2.8-3.5C173.2,79.3,174.7,76.3,175.6,73z
	 M189.5,83.9c0.2,3.1-0.7,6.2-2.4,8.7c-2.9,0-5.7,0.3-8.6,0.5c-0.1-0.3-0.3-0.6-0.4-1C181.4,88.7,185.4,86.3,189.5,83.9z
	 M226.3,103.8c-1.5-2.1-2.7-4.5-3.7-6.9c-0.4-0.9-0.7-1.9-1.1-2.8c0.1,0,0.1,0,0.2,0.1c5.4,2.9,9.3,7.8,13.6,12c0,0,0,0.1,0,0.1
	c2.5,6.2,2.9,12.6,2.1,18.9c-3.8-1.3-7.7-2.4-11.7-3.3c-0.2-0.1-0.4-0.3-0.6-0.4c-5.7-2.8-12.6-6.9-16.6-12.4
	c4.9-0.3,9.8,0.1,14.6,1.1C226.8,111,228,106.2,226.3,103.8z M313.7,218.8c-1.9,0.4-3.9,0.8-5.8,1.1c-0.5-0.4-1.2-0.7-2.1-0.8
	c-5.7-0.5-15.2-2.1-19.7-7.1c2.4-1.5,4.9-3,7.3-4.4c0.3-0.2,0.6-0.3,0.9-0.5C298.1,213.1,305.7,216.7,313.7,218.8z M322,151.4
	c-2.2,1.3-4.4,2.6-6.6,3.9c-3.7,2.3-7.3,4.7-10.9,7.1c-22.2-2.6-40.1-19.8-51.6-38c-0.4-1.7-1-3.4-1.5-5
	C270.4,137.7,296.1,146.8,322,151.4z M304.5,137.6c-0.5,0.1-0.9,0.3-1.2,0.6c-0.9-0.3-1.7-0.6-2.6-1
	C301.9,137.4,303.2,137.5,304.5,137.6z M266,152c-0.8,10.1-2.1,20.2-5.4,29.8c-1.2,3.5-2.7,6.9-4.2,10.2c0.7-10.6,0.2-21.3,0.1-31.7
	c-0.1-6.2-0.2-12.7-0.8-19.1C258.8,145.1,262.3,148.7,266,152z M268.8,181.8c2.5-7.6,3.7-15.9,4.5-24c6.8,4.9,14.3,8.7,22.5,10.8
	c-11.1,8.4-21.4,17.7-31,27.7c-1.4,1.5-2.9,3.1-4.3,4.6C263.5,194.6,266.6,188.4,268.8,181.8z M272.6,199.4c1.4-1.5,2.9-2.9,4.4-4.4
	c-1.4,5.1-2,10.2-0.9,14.5c-1.5,1-3,2.1-4.5,3.1C271.6,208.2,272.2,203.8,272.6,199.4z M283.7,204.5c0.1-7.1,3-14.8,6-21
	c2.3-2,4.8-3.9,7.2-5.8c-3.3,7.1-5.4,14.7-4.8,21.8C289.2,201.1,286.4,202.8,283.7,204.5z M313.4,165.9c0.1-0.1,0.1-0.2,0.2-0.3
	c0.2-0.2,0.5-0.3,0.7-0.5c4.8-3.2,9.7-6.2,14.8-9c-2.3,3.7-4.6,7.5-6.8,11.3c-3.5,6.1-8.4,13.4-8.6,20.8c-4.7,2.3-9.4,4.7-14.1,7.2
	C300.4,185,307.4,173.4,313.4,165.9z M331.1,167.7c3.4-6.2,7.3-12.1,11.1-18c3.8-1.6,7.7-2.9,11.7-4c-10.1,8.3-18.9,19.9-20.3,31.6
	c-0.1,0.6-0.1,1.1-0.1,1.7c-0.7,0.3-1.4,0.6-2.1,0.9c-2.9,1.3-5.8,2.6-8.7,3.9C324.5,178.1,328.2,172.9,331.1,167.7z M245,125.5
	c0,0.1,0,0.1,0.1,0.2c0,0.4,0.1,0.9,0.3,1.4c2.7,10.6,3.1,22.1,3.2,32.8c0.3,16.3,1.6,33.9-3.1,49.8c-2.6-13.2-7.7-25.4-18.4-34.1
	c3.9-6.5,6.1-14.1,9.1-20.9C240.4,145.3,244,135.5,245,125.5z M213.9,195.3c0.7-1.6,1.5-3.1,2.5-4.6c0.5-0.9,0.7-1.8,0.6-2.6
	c1.9-2.1,3.8-4.2,5.6-6.3c8.9,7.3,13,17.5,15.2,28.4C231.5,203,222.6,197.5,213.9,195.3z M194.5,196.5c-0.1-0.2-0.2-0.3-0.3-0.4
	c1.5-3.9,4.9-6.6,6.9-10.2c1-1.9,0.8-4.1-1-5.4c-2.6-1.8-5.9-2.6-8.1-4.8c-0.6-0.6-1.2-0.9-1.9-1.1c0.2-0.3,0.4-0.5,0.6-0.8
	c7.2-9.2,21-7.8,32.5-7.9c-1.5,3.3-3.1,6.6-5.3,9.6c-4.3,6.1-11.1,14.3-17.5,18C198.5,194.5,196.5,195.5,194.5,196.5z M235.9,132.9
	c-1.9,7.4-5,14.6-8,21.3c-0.6,1.3-1.1,2.5-1.6,3.8c-5.9,0.5-12.5,0-18.8,0.3c-6.2-6.1,1.4-10.2,6.3-14.3c1.9-1.6,1.7-4.8-0.4-6.2
	c-2.3-1.5-4.7-5.8-7.3-9.2c9.6-1.8,20.8,1.1,29.7,4.2C235.8,132.9,235.9,132.9,235.9,132.9z M194.6,124.7c-1.5,0.8-3,1.7-4.4,2.8
	c-6.2,4.7-6.1,14.2-4.2,21c1.5,5.4,4.9,9.3,9.1,12.2c-2.3,0.9-4.4,2.2-6.3,3.8c-1.9-7-6.2-12.7-11.9-17c3.9-8.2,5-16.7,5.2-25.7
	C186.9,122.1,191,122.5,194.6,124.7z M263.6,209.3c-0.3,3.1-0.4,6.2,0,9.1c-0.2,0.2-0.4,0.3-0.6,0.5c-5.3,4-10.5,8.2-15.8,12.2
	c-1.4,1-2.7,2.2-4,3.5C249.6,225.7,256.5,217.3,263.6,209.3z M225.1,401.9c6.5,3.7,12.7,8,18.5,12.6c0,0.1-0.1,0.2-0.1,0.4
	c-1,8.1-1.6,19.7,1.5,28.7c-4.2,1.2-8.1,3-11.7,5.1c-0.1-0.1-0.1-0.2-0.2-0.2C220.4,438.7,217.8,415.8,225.1,401.9z M212.5,423
	c-6.4,6.2-14,13.9-23.6,13.3c0,0,0,0,0,0c0.1-3,0.2-6,0.3-9c0,0,0-0.1,0-0.1c0.5-12.2,1.3-24.5,2.5-36.9c9,0.9,18,3.8,26.5,7.9
	c-3.6,7.1-5.2,15.6-4.7,24.1C213.1,422.5,212.8,422.7,212.5,423z M342.1,449.6c-2.5,1.6-5.3,2.4-8.9,2.2c-1.3-0.1-2.3,0.4-3,1.2
	c-2.7-0.8-5.5-1.5-8.2-2.1c0.3-0.9,0.7-1.8,0.9-2.8c0.3-1.2,0.4-2.4,0.4-3.5C329,447.6,335.6,449.4,342.1,449.6z M289,456.3
	c-1.7-3.1-3.3-6.2-5-9.1c9.7-3.1,18.6-8.9,26.4-15.5c0.8,1.4,1.6,2.7,2.4,4c-0.3,0.2-0.5,0.4-0.8,0.7
	C305.3,444,297.6,450.8,289,456.3z M279.6,440.4c-3.8-5.3-7.9-10.3-12.4-15c8.1-2.6,15.2-7.6,22.2-12.4c5.8-3.9,12.6-7.4,17.1-12.9
	c1.8,1.1,3.5,2.4,5.1,3.8c-1.2,1.8-2.2,3.7-3.1,6c-1.7,4.4-1.8,9.3-0.8,14C299.5,431,290,437.6,279.6,440.4z M250.7,420.5
	c2.2,1.9,4.4,3.9,6.4,5.9c5.1,4.9,9.9,10.2,14.1,15.8c-0.6,0.4-1,1-1.2,1.7c-1.4,0.9-3,1.7-4.3,2.8c-1.3,1.1-2.5,2.1-3.6,3.2
	c-0.2-0.1-0.5-0.2-0.8-0.3C249.9,447,249.7,431.4,250.7,420.5z M270.9,452.4c1.6-1.3,3.5-2.1,5.2-3.4c1.4,2.2,2.8,4.4,4.1,6.7
	c3.8,6.9,7.7,14.4,13.5,19.8c-13-0.6-26-0.3-39,0.7c2.2-5.6,4.5-10.8,8.1-15.7C264.9,457.4,267.9,454.9,270.9,452.4z M337.9,485
	c2.9,0.1,5.1-2.9,3.7-5.6c-4.5-8.6-16.9-18.4-26.9-17.4c1.2-1.4,2.3-2.8,3.4-4.2c14.2,2.9,34.8,7.8,35.1,24.6
	c0.3,20.1-22.2,14.8-35.1,10.8C324.9,491.1,330.5,484.8,337.9,485z M299.5,470.4c-2.5-2.1-4.5-4.7-6.4-7.5
	c8.3-5.3,15.8-11.7,22.5-18.9c0,0.3,0,0.5,0,0.8c-0.1,1.9-0.6,3.6-1.4,5.3c-1.5,0.8-2.5,2.5-2.4,4c-0.1,0.2-0.2,0.3-0.4,0.5
	C307.2,460.4,302.4,465,299.5,470.4z M343,457.9c4.3-1.8,7.9-5,10.9-9.5c0.2-0.2,0.3-0.5,0.4-0.7c2.3-0.9,4.5-2.1,6.4-3.6
	c1,7.4-2.5,17.1-9.1,19.4C349.1,461.3,346.2,459.4,343,457.9z M322.2,434.5c-0.5-0.4-1.1-0.6-1.6-0.8c-0.2-0.5-0.5-0.9-0.8-1.4
	c0.2,0,0.3,0,0.5,0c2.2,0.4,4.7,0.3,7.2-0.2c8.5-0.5,16.8-2.3,24.8-5.7c2.4-1,2.7-4.2,1.2-6.1c-5.2-6.4-14.2-17.3-22.6-21.1
	c0.1,0,0.1-0.1,0.2-0.1c1.2-0.6,2.3-1.3,3.3-2c0.1,0,0.3,0.1,0.4,0.1c17.3,1.6,35.4,17.3,25.1,35.8
	C352.2,447,332.3,442.5,322.2,434.5z M252.3,341.9c-2.1,0.8-4.3,1.6-6.4,2.5c-1.2-0.8-2.5-0.8-3.5-0.3c-12-5.5-25-12.5-31.5-24.3
	c3.8-2.2,7.9-3.9,12.1-5.2C226.7,327.2,239.5,336.6,252.3,341.9z M230.6,312.6c6.2-1.1,12.7-1.4,19.1-1.2c2.5,5.8,7.4,9.7,12.6,13.4
	c4.4,3.2,8.4,7,12.8,10c-0.7,0.2-1.3,0.6-1.8,1.1c-1.6,0.3-3.2,0.6-4.8,1c-1.1,0.3-2.3,0.5-3.4,0.8
	C252.2,334.7,234.7,326.2,230.6,312.6z M262.3,346.7c4.2-1.3,8.4-2.3,12.7-3.1c5.4,6.4,10.5,13,14.5,20.4
	c4.2,7.7,10.7,13.8,12.9,22.5c0.2,0.8,0.3,1.6,0.3,2.4c-5.9-3.1-12.3-5.6-18.8-7.7c-0.2-5.1-5.5-10-9.1-13.1
	c-7.1-6.2-14.1-12.5-21.5-18.3C256.3,348.6,259.3,347.6,262.3,346.7z M310.1,393.1c2.6-9.2-4.2-19-9.2-26.1
	c-5.9-8.4-11.1-17-17.3-25c7.1-1,14.2-1.7,21.2-2.3c1-0.1,2-0.2,3-0.2c5.1,6.4,8.5,13.6,11.5,21.3c3.8,9.6,7.6,19.8,6.6,30.2
	c-0.1,0.8,0.1,1.4,0.3,2c-0.8,0.4-1.5,0.8-2.3,1.1c-2.8,1.3-5.1,2.6-7.2,4.2C314.8,396.4,312.5,394.7,310.1,393.1z M223.2,371.6
	c-5.4-0.1-10.9,0.1-16.3,0.8c-0.9,0.1-1.7,0.3-2.5,0.5c4.4-3.7,10.2-6.1,15.1-8.4c2.1-1,4.3-2,6.5-3.1c5.8,2.7,11.1,6.6,15.8,10.9
	C235.6,371.9,229.3,371.8,223.2,371.6z M356,386.1C356,386.2,356,386.2,356,386.1c3.6,4.3,8.4,10.4,5.8,15.8
	c-5.5-5.7-13.2-9.8-21.3-11.5c1.3-2.4,2.1-5.1,2.6-8c0.1-0.9,0.2-1.7,0.2-2.5C346.9,383,351.3,385.1,356,386.1z M370.6,423.6
	c0.1,0,0.2-0.1,0.2-0.1c3.2-1.7,5.7-4,7.7-6.8c1.6,7.3-2.1,14.8-9.8,15.8C369.9,429.5,370.5,426.5,370.6,423.6z M369.6,415.1
	c-0.7-2.4-1.6-4.6-2.9-6.7c5.5-7,3.6-14.8-0.7-21.7c3.3-0.3,6.5-1.2,9.5-2.4C377.9,394.2,377.7,408.6,369.6,415.1z M335.3,381.8
	c-0.1,1.8-0.6,3.4-1.4,4.8c-0.2-8.6-2.9-16.8-5.8-24.9c-2.9-8-6.3-15.8-11-22.8c7.8-0.2,15.8,0.5,21.7,4.8
	c-6.7,7.1-9.8,14.9-6.1,25.5C334.1,373.4,335.5,377.3,335.3,381.8z M299.4,332.4c-3.2,0.3-6.3,0.6-9.5,1c-0.4-0.3-0.9-0.5-1.5-0.7
	c-7.1-1.6-11.9-6.6-17.4-11c-3.7-3-8.7-5.6-11.9-9.3c2.7,0.4,5.4,0.8,8,1.3c4.4,0.9,8.8,1.8,13.2,2.8
	C285.6,323.2,292.7,327.3,299.4,332.4z M310.4,330.6c-0.8-0.8-1.7-1.1-2.6-1.2c-4.1-3.3-8.8-6.2-13-9.4c2.3,0.6,4.6,1.3,6.9,2
	c7.4,2.3,14,5.8,20.6,9.3c-3.4-0.1-6.8,0-9.9,0.1c-0.4,0-0.7,0-1.1,0.1C311,331.2,310.7,330.9,310.4,330.6z M325,309.3
	c-1-1.1-2-2.2-2.9-3.3c4.7-1.2,10.3-0.1,14.9,0.5c8.2,1.1,14,5.8,20.1,10.8c0.3,1.3,0.5,2.6,0.5,4c-0.3,6.1-5.9,11.2-10.8,15.3
	C341,326.3,333.1,318,325,309.3z M291.4,311c7.5-2.3,15.3-2.1,23.2-1.7c1.5,1.7,3,3.3,4.5,5.1c3.5,4,7,7.8,10.4,11.7
	c-2.9-1.8-5.8-3.6-8.9-5c-6.1-2.9-12.3-5.2-18.8-7.2C298.4,312.8,294.9,311.9,291.4,311z M282.2,306.4c-1,0.5-1.5,1.2-1.8,2
	c-5.4-1.1-10.8-2.2-16.1-3.3c-2-0.4-4.1-0.7-6.1-1c10.2-9.9,28.1-9.6,41.2-8.8c0.5,0,0.9,0,1.2-0.1c2.3,1.9,4.4,3.9,6.5,6
	C298.4,301.2,290.1,302.3,282.2,306.4z M248.6,303.3C248.6,303.4,248.6,303.4,248.6,303.3c-5.6-0.1-11.1,0.2-16.6,1.1
	c7.8-13.4,23.3-27,38.4-26.9c0.9,0,1.6-0.2,2.2-0.6c6,2.9,11.5,6.6,17.2,10.4C274.4,287.3,257.7,290.2,248.6,303.3z M311.9,294.3
	c-4.6-4.8-10.4-8.4-15.8-12.1c-6.5-4.5-12.8-8.6-19.4-11.9c0.1-3.4-0.3-7-1.1-10.5c10.4,1.2,20.8,4.8,28.5,12
	c6.7,6.3,8.2,14.2,8,22.7C312,294.4,312,294.3,311.9,294.3z M284.3,233.4c3-0.8,6-1.6,9-2.3c4.1,6.5,4.9,17.7-1.3,22.9
	c-0.4,0.4-0.7,0.7-0.9,1.1c-6-2-12.4-3.2-18.5-3.6c-2.2-4.5-5.3-8.5-9.2-11.4C270.2,237.6,277.3,235.4,284.3,233.4z M253.9,235.6
	c1.7-1.3,3.5-2.7,5.1-4.1c2.4-2,4.9-4,7.4-6c1.2,1.2,2.8,2,4.4,2.8c0.4,0.2,0.7,0.4,1.1,0.6C265.9,230.9,259.8,233,253.9,235.6z
	 M268.8,266.8c-2.6-0.9-5.3-1.8-8.2-2.4c-10.8-2.4-21-4.4-31.7-4c7.5-6.9,16.1-12.2,25.3-16.5C263.1,247.1,268.1,257.5,268.8,266.8z
	 M309.9,266.6c-3.2-3.3-7-6-11.2-8.2c7.1-7.5,6.8-19.9,2.4-29.1c0.9-0.2,1.9-0.4,2.8-0.6c7.3,4.8,13.5,10.2,16.1,19.1
	c2.6,9,0.7,19.7-3.4,28.4C315,272.9,312.9,269.7,309.9,266.6z M283.1,225.7c-0.1,0-0.1,0-0.2-0.1c-2.9-0.5-5.2-2.3-7.7-3.8
	c-0.9-0.6-1.7-0.8-2.2-1.1c2.2-1.6,4.4-3.1,6.7-4.6c2.9,3.5,6.8,5.9,11.1,7.6C288.2,224.4,285.7,225.1,283.1,225.7z M225.2,247.2
	c-6.8,11.3-12.7,23.1-17.2,35.2c-5.5-13.6-4.3-29-2.8-43.3c0.9-8.2,1.5-16.9,3-25.4C211.3,225.9,217.4,237,225.2,247.2z M234,268.2
	c-6.7,5.3-13.5,11.2-19,18c2.1-5.9,4.6-11.6,7.3-17.2C226.3,268.3,230.2,268.1,234,268.2z M197.5,238.6c-1.7,15.1-2.5,31.4,3,45.8
	c-3.5,0.3-7.2,0.6-10.7,0.4c0-0.2,0.1-0.3,0.1-0.5c0.8-15.2-0.7-30.3,2.9-45.2c1.8-7.6,4.6-14.9,7.3-22.2
	C198.9,224.1,198.2,231.5,197.5,238.6z M182.1,283.8c-4.4-1.2-7.9-3.7-9.3-8.4c0,0,0,0,0,0c2.7-9.3,6-18.4,9.8-27.3
	c0.3-0.6,0.6-1.3,0.8-1.9C181.6,258.6,182.7,271.2,182.1,283.8z M245.2,269.4c0,0,0.1-0.1,0.1-0.1c4.2,0.7,8.5,1.6,12.8,2.5
	c0.2,0,0.3,0.1,0.5,0.1c-15.9,5.4-30.1,20.3-36.4,34.7c-3.9,1.1-7.7,2.5-11.3,4.3C213.8,293.3,231.8,279.4,245.2,269.4z
	 M203.1,324.9c0.4-0.1,0.9-0.4,1.3-0.7c0,0,0.1,0,0.1-0.1c6.6,11.6,18.4,19,30.4,24.9c-2.9,1.3-5.8,2.6-8.7,3.9
	c-1.3-0.5-2.5-0.3-3.3,0.4c-0.2-0.1-0.5-0.2-0.7-0.3c-7.5-1.7-18.8-7.4-20.6-15.7c-0.2-0.8-0.5-1.4-1-1.9
	C201.3,331.9,202.1,328.4,203.1,324.9z M244.7,353c6.6,4.8,12.4,10.2,18.7,15.5c3.5,2.9,7,5.7,10.2,9c0.2,0.2,0.4,0.5,0.6,0.7
	c-4.3-1.2-8.5-2.2-12.5-3.1c-2.6-0.6-5.1-1.1-7.8-1.5c-5.5-6.3-12-12-19.2-16.3C238.1,355.8,241.4,354.4,244.7,353z M213.7,358.6
	c-3.8,1.9-7.6,3.9-11.2,6.2c-3.7,2.3-6.2,6.1-9,9.4c1.2-9,2.6-18,4.4-26.9C201.8,352.3,207.8,356.2,213.7,358.6z M219.8,379.4
	c5.3,0,10.7,0.1,16.1,0.4c-7.1,3.4-14.1,6.8-22,7.4c-0.5,0-1,0.2-1.4,0.4c-4.7-1.8-9.5-3.2-14.4-4.1c1.7-0.6,3.3-1.3,5-2.1
	C208,379,214.6,379.4,219.8,379.4z M252.6,381.3c0.6,0.1,1.1,0.1,1.7,0.2c5.9,0.9,11.7,2.4,17.5,4.2c-9,7-23.6,12.2-34.3,13.6
	c-0.5,0.1-1,0.2-1.4,0.4c-3.7-2.5-7.6-4.8-11.5-6.8C234.1,389.8,242.7,383.8,252.6,381.3z M261.7,399.7c6.3-2.6,13.7-5.9,18.6-11
	c2.5,0.9,5,1.8,7.4,2.7c3.9,1.5,8,3,11.8,4.9c-3.6,4-9.5,6.9-13.4,9.6c-7.5,5.1-15.4,11-24.5,12.9c-0.3,0.1-0.6,0.2-0.9,0.3
	c-1.4-1.3-2.9-2.6-4.4-3.9c-3.7-3.2-7.5-6.3-11.6-9.3C250.6,404.4,256.3,401.9,261.7,399.7z M182.1,413.5c-0.8,0-1.7,0.3-2.5,1
	c-5.3,4.4-10.6,9.2-14,14.9c3.3-15.8,7.9-33.1,18.8-44.9C183.4,394.1,182.7,403.8,182.1,413.5z M248.7,450.7
	c1.9,2.4,4.4,4.3,7.5,5.5c-4.2,5.4-6.9,12-9.3,18.4c-0.4,0.9-0.4,1.7-0.1,2.5c-3.7,0.4-7.4,0.8-11,1.3c-6.9,1-14.1,2.5-21,4.7
	C220.6,467.6,232.5,454.8,248.7,450.7z M245.9,502.7c-4-6.9-11.4-10.3-17.4-15.2c3.7-0.8,7.4-1.4,11-1.9c3-0.4,6-0.8,9-1.1
	c0.2,0.7,0.7,1.3,1.5,1.8c11,7.4,17.2,17.5,20.8,29.2C262.7,510.6,254.5,506.1,245.9,502.7z M205.4,495.2c4.5-2.3,9.2-4,14.1-5.4
	c0.1,0.2,0.2,0.3,0.4,0.5c2.8,2.8,6.3,5,9.8,7.3C221.8,495.8,213.7,494.9,205.4,495.2z M234.7,506.9c-4.1,2.5-8.5,4.7-12.7,4.9
	c-0.4,0-0.7,0.1-1,0.2c-6.9-3.6-14.2-6.5-21.9-8.5C211.5,502,223.3,503.5,234.7,506.9z M183.5,495.6c0,0.1,0,0.3,0.1,0.4
	c2,8.8,2.8,17.7,4.4,26.5c0.2,1,0.4,2.1,0.6,3.1c-4.9-11.2-8.4-22.9-11.6-34.8C178.8,492.9,181,494.6,183.5,495.6z M280.4,522
	c-3.2-15.2-9.4-28.5-21.2-38.4c5.3-0.3,10.5-0.5,15.8-0.6c11.3,13.3,16.1,30.4,16.9,47.5C288.1,527.7,284.3,524.8,280.4,522z
	 M302.8,499.7c0.1,0.4,0.2,0.8,0.3,1.1c2.5,9.2,0,15-4.1,23.1c-1.5-14.6-5.8-28.8-14.2-40.8c4,0.1,7.9,0.2,11.9,0.4
	c0,0.3,0,0.6,0.1,0.9c-0.1,0.6,0,1.3,0.3,1.9C299.2,490.8,302.1,494.7,302.8,499.7z M353,516.9c-2.6-0.2-5.1-0.8-7-1.6
	c-6.8-2.8-12.7-6.9-18.3-11.6c5.8,1,11.9,1.4,17.1,0.4c0.2,0,0.3,0.1,0.5,0.1C350.6,505,352.4,511.6,353,516.9z M370.7,512.4
	c-2.6,2.3-6.1,3.6-9.9,4.2c-0.8-6.1-2.7-12.5-7-16.4c1.3-1.1,2.5-2.3,3.5-3.9C365.9,498,367.3,505.5,370.7,512.4z M378.2,483.7
	c-0.7,1.7-1.2,3.5-1.6,5.3c-0.8,4.6-0.8,9.3-1.6,13.9c-0.9-2.2-1.9-4.3-3.3-6.3c-2.9-4.2-6.9-6.4-11.6-7.6c0.1-0.7,0.3-1.4,0.4-2.1
	c0-0.3,0-0.5,0.1-0.8c0.3-0.1,0.6-0.2,0.9-0.4C366.2,482.5,373.8,478.1,378.2,483.7z M386.9,472.2c-0.6,0.5-1.3,1-1.8,1.6
	c-1,1-2,2-2.9,3.1c-6.3-5.3-14.5-3.8-21.9,0.4c-0.6-3-1.8-5.7-3.4-8.1c3-1.8,5.5-4.5,7.5-7.6c2.3,0,4.7-0.3,7-0.8
	c0.4,0.1,0.8,0.2,1.2,0.3C379.6,461.4,385.5,465.3,386.9,472.2z M405.5,457.3c0,0.2,0.1,0.3,0.2,0.5c-0.6,0.7-1.2,1.4-1.8,2.1
	c-2.9,3.4-6.6,5.6-10.4,7.9c-1.9-5.4-5.7-9.6-10.8-12.1c1.5-1,3-2.1,4.5-3.3c0.7,0.1,1.5,0.1,2.3-0.2
	C394.9,449.9,403.7,450.7,405.5,457.3z M406,438.4c3.3,1.2,5.6,4,7.6,6.8c-0.6,2-1.6,3.9-2.7,5.7c-3.4-5.1-9.4-7.5-15.5-7.6
	c0.8-1.1,1.5-2.3,2.2-3.5c0.5-1,1-1.9,1.4-2.9C401.4,437.2,403.7,437.6,406,438.4z M392.7,430.4c-0.6,0.8-0.9,1.9-0.8,3
	c-0.4,1.2-1,2.5-1.6,3.7c-4.2,7.5-13.4,15.1-22.5,16.5c1.2-4.4,1.3-9,0.2-13.2c15.5-0.8,23.5-18.1,15.9-31.7
	c-0.1-0.1-0.2-0.3-0.3-0.4C390.2,414.1,394.1,422.1,392.7,430.4z M403.2,420.4c2,4.4,5.1,8.2,7.7,12.2c-3-1.6-6.4-2.6-10.1-3.1
	c0.6-6.3-1.2-12.4-4.5-17.9c2-1.1,4-2.6,6-3.6C400.8,412.5,400.1,417.7,403.2,420.4z M406.3,399c-2.6,0.2-5,0.8-7.3,2.1
	c-2.5,1.3-4.7,3-7.2,4.2c-0.1,0-0.1,0.1-0.1,0.1c-0.8-0.9-1.6-1.7-2.5-2.5c4.4-9.5,13.4-17,23.9-18.3
	C411.7,389.5,408.5,394.8,406.3,399z M393,361.5c4,5.3,10.1,7,15.5,10.5c2.1,1.4,3.4,3,4.2,4.8c-11.8,1.4-21.7,8.3-28,18.1
	c0-5.2-0.7-10.4-2.1-14.8c5-3.9,8.8-9.6,10-16.7c0.1-0.8,0.2-1.5,0.3-2.3C392.9,361.3,393,361.4,393,361.5z M385.2,359.7
	c-0.4,19.3-29.4,26.8-39.7,11.1c9.4-0.6,18.5-2.9,27.8-4.5c3.2-0.6,4.4-5.4,1.4-7c-5.3-3-13.5-10.9-21.3-14.4
	C367.5,341.5,385.6,341.4,385.2,359.7z M387.9,324.5c7,5.1,3.6,14.9,2.5,21.9c0,0.3-0.1,0.5-0.1,0.8c-2.6-5-7.1-8.9-13.4-10.7
	c-5.9-1.7-12.2-1.7-18.4-0.7c2.5-2.9,4.6-6.2,5.9-9.9c1.3-3.6,1.3-7,0.4-10.1C373.4,316.5,380.9,319.4,387.9,324.5z M346.6,301.3
	c-2.3-1-4.8-1.8-7.6-2.3c-5.9-1.1-13.2-2.1-19.3-0.4c0.1-2.4,0.2-4.8,0.1-7.1c0,0,0,0,0,0c6.5-6.8,14-7.6,22.2-7.2
	C340.6,289.9,343,295.9,346.6,301.3z M361.7,268.4c-5.6,2.5-11.5,4.7-14.8,7.9c-0.1,0.1-0.2,0.2-0.3,0.3c-8.2-0.5-15.9-0.5-22.9,2.6
	c4.2-9.3,5.6-19.6,4.4-29.8C341.9,250.8,354.5,256.2,361.7,268.4z M375.2,255.5c-0.4,4-3,6.9-6.6,9.3c-4.5-7.8-11-13.5-18.5-17.3
	c1.6-4.3,5.2-7.3,9.8-8c0.3-0.1,0.6-0.1,0.8-0.2C367.7,243.3,376.2,244.3,375.2,255.5z M354.3,233c-5.2,2-9.4,6.3-11.5,11.6
	c-5.3-1.8-11-2.8-16.8-3.1c-2.5-5.9-6.8-10.7-11.9-14.8c2.8-0.5,5.6-1.1,8.4-1.6c10.6-1.9,21.3-4.1,32-5.4
	C352.6,224,352,228.6,354.3,233z M345.2,213.2c-3.2,0.5-6.3,1-9.5,1.6c-0.5-0.3-1.1-0.6-1.9-0.6c-8.2-0.6-26.8-2.3-32.5-11
	c4.8-2.6,9.7-5.2,14.7-7.6c3.4,4.8,10.1,7.9,14.9,10.5C335.8,208.7,340.4,211.2,345.2,213.2z M342.9,191.9c8.4,4,17.9,8.3,27.2,9.5
	c-1.1,1.2-2.3,2.2-3.1,2.9c-1.5,1.5-3.2,3.1-4.8,4.9c-0.3-0.1-0.6-0.2-1-0.2c-9.2-0.5-16.2-4.3-24.1-8.6c-4-2.1-10.5-4.6-13.6-8.5
	c0.8-0.4,1.6-0.8,2.5-1.2c3.1-1.4,6.3-3,9.6-4.4C337.2,188.6,339.7,190.4,342.9,191.9z M360.9,185.9c3.2,2.8,6.9,4.8,9.9,7.8
	c-6.1-0.9-11.9-3.5-17.6-5.9c-2.6-1.1-5.2-2.1-7.8-3.3c-0.9-0.4-1.6-0.8-2.2-1.3c4.3-1.5,8.7-2.7,13.1-2.9
	C357.5,182.5,359.2,184.4,360.9,185.9z M371.3,145.3c-0.2,10.7-14,16.9-16.3,27.4c-4.4,0.4-8.8,1.6-13,3c0.1-0.3,0.2-0.6,0.3-0.9
	c4.5-13.3,16.4-25.1,28.9-30.9C371.3,144.3,371.4,144.8,371.3,145.3z M344.4,96.4c-3.6,5.8-13,13.1-11.5,23c0.1,0.4,0.2,0.7,0.5,1.1
	c0.5,0.8,1.1,1.6,1.6,2.4c-14,4.7-28.7,3.6-43.1,1.1c-7.6-1.3-14.7-2.8-22-5.5c-3.9-1.4-9.3-2.9-12.5-6c10.3,1,20.7-0.1,31.1-2.1
	c0.3,0,0.6,0,0.9,0c1.2-0.2,2.4-0.5,3.5-0.9c17.7-3.7,35.2-8,52.2-14.2C344.8,95.7,344.7,96.1,344.4,96.4z M345.7,78.5
	c1.2,2.5,1.7,5.1,1.7,7.7c-10.4,4.1-20.9,7.3-31.6,10.1c7.1-6.3,13.9-14.4,16.3-23.7c0.2-0.1,0.3-0.2,0.5-0.3c0.6,0,1.2-0.1,1.7-0.3
	C339.5,71.7,343.1,72.9,345.7,78.5z M281.7,58.1c-4.4-0.4-10,0.2-14.6,1.9c1.1-2.2,2.1-4.4,2.9-6.6c0.5-0.1,1-0.3,1.5-0.7
	c8.5-6.3,15.3-3.3,23.4,1.6c5,3,7.8,6.6,9.2,11c-2.5-0.1-4.9,0.3-6.7,1.1C294.1,61.8,289,58.7,281.7,58.1z M317.8,50.4
	c-1.9,5.1-3.6,10.5-1.4,15.8c0.6,1.6,1.7,2.7,3,3.6c-1.3,0.4-2.6,0.8-3.9,1.3c-0.7-1.4-1.8-2.6-3.1-3.4c-0.7-5.6-2.7-10.3-6.4-14.3
	c0-0.1-0.1-0.3-0.1-0.4c-3.7-8.5-1.3-16.4,3.5-23.5c2.9,0.1,5.8-0.3,8.8-0.8C326.9,26.9,318.8,47.8,317.8,50.4z M300.2,25.3
	c0.5,0.5,1,1,1.6,1.4c-3.8,6-5.8,12.6-5.4,19.4c-2.3-1.3-4.6-2.3-6.8-3.1c0-7.6-0.5-16.9,7-21.2c0.3-0.2,0.6-0.4,0.8-0.6
	C298.2,22.8,299.1,24.1,300.2,25.3z M262.3,7.9c1.1-0.2,2.2-0.3,3.4-0.3c5.9,0,6,3.7,7.3,7.2C268.4,14,263.3,11.3,262.3,7.9z
	 M269.5,30.1c-3.6-7.6-11.9-11.5-20-13.2c0.4-0.5,0.7-1,1.1-1.5c1.3-1.8,2.8-3.3,4.4-4.4c3,8.7,17.1,13.9,25.7,11.2
	c1.5,0.6,3.1,0.9,4.8,0.6c-3,5.4-3.5,12.1-3.5,18.8c-3.2-0.1-6.4,0.4-9.7,1.9C272.4,39.1,271.7,34.7,269.5,30.1z M243.8,23.7
	c7.2,0.8,14.7,3.3,18.8,9.8c5.3,8.5,0.5,18.3-4.1,26.2c-3.1-0.5-6.3-0.3-9.3,0.6c5.9-11,0.4-25.8-9.3-33.6
	C241.3,25.9,242.6,24.9,243.8,23.7z M195.1,16.2c0.6-0.8,1.2-1.5,1.8-2.1c5.7,9.6,4.4,27.1-7.8,30.3c-0.4,0.1-0.8,0.3-1.1,0.5
	c-2.1-0.7-4.2-1.3-6.4-1.7C187.2,35.1,190,23.1,195.1,16.2z M197.1,49.2c11.7-7.7,13.5-25.8,7-38.1c5,0.3,9.9,4.8,14,9.3
	c0.7,0.7,1.3,1.4,2,2.1c0,0.1-0.1,0.1-0.1,0.2c-2,5.7-2.3,11.8-4.2,17.6c-2.1,6.1-6.7,10.8-11.7,14.7
	C202,52.8,199.6,50.8,197.1,49.2z M231.5,59.9c2.9,1.6,5.1,4.3,7.1,7.1c-0.5,0.5-0.9,1.1-1.3,1.7c-8.6-1.6-18.2-0.2-25.2,3.9
	c-0.4-4-1.4-7.8-3.4-11.4c0.8-0.6,1.5-1.2,2.2-1.8c0.5,0.1,1,0,1.6-0.2C218.9,57.3,225.4,56.6,231.5,59.9z M135.3,45.8
	c3.2-4.9,7.5-7.1,11.9-6.2c4.1,7.8,4.8,22.6-3.4,27.6c-0.5,0.3-0.9,0.7-1.3,1.2c-1.8,0-3.6,0.1-5.3,0.1c-5.3,0.2-9.2,2.6-14,3.8
	C126.6,63.1,130.1,53.8,135.3,45.8z M127.2,79.2c2.1-0.8,4.1-1.8,6.3-2.4c3.8-1,8.4-0.6,12.3-0.3c8.9,0.5,16.5,6.3,21.8,13
	c5.9,7.5,6.6,18.1,6.8,27.2c0.2,9.2-0.2,18.5-4.1,26.8c-3.6-1.7-7.5-2.9-11.5-3.6c7.4-8.2,8.2-20.8,4.5-31.1
	c-4.6-13.1-17-19.8-30.4-19.8C131.6,85.4,129.8,82,127.2,79.2z M135.3,104c-0.1,0-0.1,0-0.2,0c0-2.4-0.1-4.8-0.4-7.2
	c8.3,0.5,16.3,3.9,20.2,11.8c4.2,8.6,4.1,20.6-3.3,27.3c-0.2-0.3-0.4-0.6-0.6-0.8c-1.7-2.3-3.8-4.2-6.1-5.9c0.1-0.2,0.2-0.3,0.3-0.5
	C149.7,119,147.3,106.1,135.3,104z M114.3,94.9c0.3-0.6,0.6-1.1,0.8-1.7c1.7-3.5,3.1-7.1,4.5-10.8c6.3,4.9,8.2,14.4,7.8,22.7
	c-1.2,0.6-2.2,1.3-3.1,2.3C122.7,102.1,119.7,97.5,114.3,94.9z M97.9,125.6c3.8-8.2,8.5-15.9,12.9-23.8c7.4,3.5,7.9,13.2,7.6,21
	c-4.1,0.6-8.1,1.8-12.1,2.8c-3.6,0.9-6.8,1.7-9.9,3.2C96.9,127.8,97.4,126.7,97.9,125.6z M98.9,136.2c5.2-3.1,12.2-4.1,17.9-5.3
	c8.9-2,17.4,0.2,24.6,5.5c6.8,5,8.9,13.4,10.4,21.2c0.8,4.3,0.7,19.4-5.8,20.7c-0.2,0-0.4,0.1-0.5,0.2c-0.2-0.4-0.3-0.9-0.5-1.3
	c-0.8-1.8-1.7-3.5-2.7-5.2c0.2-0.5,0.4-1,0.4-1.6c0.6-10-0.6-19.9-8-27.3c-6.9-6.9-16.6-5.5-25-2.5
	C106.5,138.4,102.8,137.1,98.9,136.2z M135.1,164.1c-2.9-2.3-6.2-4.1-9.8-5.3c2.2-2.1,4.5-4.2,7.4-5.5c0,0,0.1,0,0.1-0.1
	C134.5,156.4,135.1,160.3,135.1,164.1z M116,146.8c4-1.1,7.7-1.2,11.1,0.6c-2.9,1.7-5.3,4-7.7,6.3C118.6,151.3,117.5,149,116,146.8z
	 M87.5,151.5c0.5-2.3,1-4.6,1.3-7c0.3-0.5,0.6-1.1,0.8-1.6c7.3,0.4,13,1.6,18.8,6.8c3.6,3.3,4.4,8.1,4.6,12.7
	c0.4,7.3-1,19.1-8.7,22.4c0,0,0,0,0,0c-1.9-2.3-4.1-4.2-6.5-5.6C104.3,169.1,98.6,155.9,87.5,151.5
	C87.6,151.6,87.6,151.6,87.5,151.5z M116.4,183.5c2.7,1.5,3.9,4.7,4.1,7.8c-3.3-0.8-6.8-1.2-10.2-1
	C112.8,188.6,114.8,186.2,116.4,183.5z M85.2,174.7c2-2,4.7-3.5,7.3-3.8c-0.2,1.7-0.9,3.5-2,5C88.8,175.4,87,175,85.2,174.7z
	 M90.7,163.4c-2.7,0.5-5.5,1.6-7.8,3.2c0.9-2.5,1.8-5,2.6-7.5C87.7,160.1,89.5,161.6,90.7,163.4z M62.4,175.1
	c5.1-3.9,9.9-8,14.1-12.6c-4.1,12.2-9.6,23.9-11.9,36.5c-2.9-7.4-3.6-16.5-3.1-23.2C61.9,175.6,62.2,175.4,62.4,175.1z M77.7,195
	c-0.1,0.1-0.1,0.1-0.2,0.2c-2,2.1-3.9,4.3-5.7,6.6c0.4-2.8,0.9-5.6,1.7-8.4C75.2,193.6,76.6,194.2,77.7,195z M45.7,189.2
	c0-0.1-0.1-0.3-0.1-0.4c2.7-2.2,5.4-4.4,8.1-6.6c0.2,7.5,1.8,15.6,5.2,22.3C52.6,201.3,47.4,196.7,45.7,189.2z M36.7,239.8
	c-4.5,3-11.1-0.4-16.3,0.6c-3.7,0.7-5.8,3-8.4,0.9c9-3.2,18.3-5.1,27.5-7.3c2.2-0.5,4.5-1.2,6.7-1.8C42.8,234.4,40,237.6,36.7,239.8
	z M35.1,227c-9.1,2.2-18.2,4.3-27,7.4c-0.9-3.5-0.8-7.4,2.2-9.3c0.2,0,0.4,0.1,0.7,0.1c9.1,0.4,17.5-3,26.5-3.5
	c5.5-0.3,11-0.3,16.5-0.2C47.8,223.4,41.5,225.4,35.1,227z M38,213.8c-8.7,0.3-17.1,3.8-25.8,3.6c-0.1-2.7,1.2-5.3,3.4-7.8
	c8.5,2.2,17.2,3.3,25.9,4.2C40.3,213.8,39.1,213.8,38,213.8z M22.9,203.3c5.5-3.8,11.9-7.1,16-9.7c1.9,5.4,5.1,9.6,9.2,13
	C39.7,205.9,31.2,205.1,22.9,203.3z M79.1,211.4c-0.1,0.1-0.2,0.1-0.3,0.1c0,0,0,0,0,0c-1.1-0.1-2.1-0.3-3.1-0.7
	c-0.2-0.2-0.5-0.4-0.7-0.5c1.9-2.6,3.9-5.2,6.1-7.6C81,205.7,80.2,208.7,79.1,211.4z M99.4,205.7l-0.4,0c-1.4-0.1-7.7,1.3-9.9,1.8
	c-0.3,0.1-0.5,0.1-0.8,0.2c1.7-9.8-2-19.2-12.7-21.7c0.5-1.5,1-2.9,1.5-4.4c7.3,0.6,14.8,1.7,20.2,7.1
	C101.8,193.1,101.4,200.1,99.4,205.7z M108,206.3l-0.6,0c0.7-2.5,1.1-5.2,1.1-7.9c3.1-0.6,6.6-0.3,9.7,0.4c-2.2,2.6-5.7,4.4-8.4,5.7
	C108.9,204.9,108.3,205.5,108,206.3z M140.5,207.6c-6.7,0-13.4-0.2-20-0.6c3.9-3.2,6.7-7.2,7.7-12.7c1.3-6.8-2.6-15.3-9-18.1
	c0.9-3.5,1.3-7.2,1.4-10.7c8,1.9,13.7,7.5,17.4,15.2C141.2,187.2,143.8,200.1,140.5,207.6z M175.6,217.6c0.5-0.3,0.9-0.6,1.4-0.9
	c2.9-2.1,5-4.9,7.7-7.2c0.8-0.3,1.5-0.7,2.3-1.1c2.6-1.4,5.3-2.6,7.9-3.8c-2.7,5.6-5.8,11.1-8.7,16.6c-1.9,3.6-3.6,7.3-5.3,11
	C177.6,228.1,175.7,223,175.6,217.6z M160,225.2c2.5-1.4,5-2.6,7.3-3.6c0.2-0.1,0.5-0.2,0.7-0.3c0.9,7.1,4.3,13.5,9.5,18.6
	c-0.8,1.9-1.6,3.7-2.4,5.6c-0.1,0.2-0.2,0.4-0.2,0.6C167.5,241,161.5,234.3,160,225.2z M148.8,240.7c-0.3-0.8-0.7-1.5-1.3-1.9
	c0.4-1.4,1-2.7,1.7-3.9c1-1.7,2.3-3.3,3.9-4.7c2.7,9.9,10.2,17.8,18.9,23.3c-0.9,2.3-1.7,4.7-2.6,7
	C159.5,258.7,151.7,250,148.8,240.7z M142.9,264.3c2.2-3.6,2.7-7.7,3-12c4.9,7.6,12.1,13.4,21.1,15.5c-0.6,1.9-1.2,3.9-1.8,5.9
	c-0.6-0.1-1.2,0-1.8,0.2C156.7,276.4,147.5,269.9,142.9,264.3z M130.4,277.4c-0.3-0.8-0.8-1.3-1.4-1.6c2.5-2.3,5.8-4.2,8.4-5.9
	c6.2,7.3,16.2,13.3,25.6,12c-0.6,2.6-1.2,5.2-1.7,7.8C150.2,289,135.6,288.9,130.4,277.4z M127.6,296.6c-0.4-0.8-1-1.3-1.7-1.6
	c-0.5-3.6-1.1-7.3-0.8-10.9c7.3,11.2,22,12.5,34.7,13.3c0,0.2-0.1,0.4-0.1,0.7c-0.1,0.7,0,1.2,0.1,1.7c-0.6,2.8-1,5.6-1.4,8.4
	C147.1,307.7,133.8,307.6,127.6,296.6z M123.6,315.9c1.3-2.8,2.2-5.7,2.7-8.7c8.2,7.3,19.8,8.1,31.2,8.7c-0.4,2.6-0.7,5.2-1.1,7.8
	C145.7,325.2,130,326.4,123.6,315.9z M114,329.8c1.4-2.4,3.2-4.7,5-7c8.4,9.9,23.4,10.4,36,8.9c-0.5,3.1-1.1,6.2-1.5,9.4
	C139.9,341.8,120.4,344.1,114,329.8z M160.6,345c8.3,4.2,13.7,13.7,16.8,22.9c-5.4-2.3-11.6-2.9-17.6-2c0-2.7,0-5.3,0-7.4
	C159.9,353.9,160.1,349.5,160.6,345z M114.6,352.4c-0.6-0.6-1.2-1-1.8-1.1c-0.6-3.8-1.2-7.5-1.5-11.3c9.6,10.5,27.2,9.6,41.2,8.9
	c-0.2,2.1-0.3,4.1-0.4,6.2c-0.1,1.8-0.1,3.6-0.1,5.5C139.4,360.2,123.8,362.1,114.6,352.4z M179.4,378.3
	c-9.1,9.4-14.3,22.1-17.9,35.1c-0.4-8.4-1.1-25.4-1.5-39.7C167.1,372.4,174.2,373.7,179.4,378.3z M115,369.5c-0.5-0.4-1-0.7-1.5-0.9
	c0.4-2.2,0.5-4.5,0.4-6.8c10.9,7.1,25.1,6,37.9,6.5c0,3.2,0,6.5,0.1,9.7C139.6,381.1,124.5,378,115,369.5z M109.8,385.9
	c-0.3-0.3-0.5-0.4-0.8-0.6c0.7-2.9,1.7-5.9,2.5-8.7c11.1,8.7,26.9,12.5,40.7,9.5c0.1,3.1,0.2,6.1,0.4,9.2
	C138.9,397.2,120.1,395.6,109.8,385.9z M111,402.4c-2-2.4-2.9-5.2-3-8.2c12.4,8.8,30.2,10.7,45,8.8c0.1,2.7,0.3,5.3,0.5,8
	c-11.5,0.7-22.9,2.2-34-1.9c-0.9-0.3-1.7-0.3-2.3-0.1C115.1,406.8,112.8,404.7,111,402.4z M125.5,424.7c-0.4-0.3-0.7-0.4-1.1-0.5
	c-0.1-1.7-0.4-3.5-0.9-5.3c-0.1-0.2-0.1-0.4-0.2-0.7c10.1,2.2,20.3,1,30.8,0.5c0.2,2.3,0.4,4.6,0.7,6.9
	C144.8,428.6,134.6,431.2,125.5,424.7z M126.4,440.2c-0.9-0.9-2-1.2-3.1-1.1c0.3-2,0.6-4.1,0.8-6.1c10,5.4,20.8,3.5,31.6,0.4
	c0.4,2.7,0.8,5.4,1.3,8.1C148.9,446.2,133.1,446.6,126.4,440.2z M125.7,456.1c-0.7-0.6-1.5-0.9-2.2-1c-0.5-2.1-0.8-4.3-0.9-6.6
	c0-0.5,0-0.9,0-1.4c9.4,7,24.9,7.1,35.8,2.2c0.1,0.6,0.3,1.2,0.4,1.8c-0.2,0.3-0.4,0.5-0.5,0.9C152.8,463.6,134.5,464,125.7,456.1z
	 M129.8,467.1c10.7,3.8,23.4,2.1,31.2-5.9c0.5,2.2,1.1,4.3,1.6,6.5c0,0.2,0.1,0.4,0.1,0.5c0,0.1,0.1,0.3,0.1,0.4
	c-7.9,6.7-16.9,7.7-26.7,4.6c-0.2-0.1-0.4-0.1-0.6-0.1C133.5,471.2,131.5,469.2,129.8,467.1z M151.7,486c-1.7-1-3.3-2.2-4.9-3.3
	c6.5-0.1,12.6-1.9,18.2-5.8c0.2,0.7,0.4,1.4,0.6,2.1c0.5,1.9,1.1,3.8,1.6,5.6c-0.2,0.1-0.4,0.3-0.6,0.5c-3.6,3.7-7.2,3.4-11.8,3
	C153.8,487.3,152.7,486.6,151.7,486z M159.4,502.7c0-2.4,0.2-4.5-0.1-6.7c3.7-0.1,7.1-0.8,10.2-3.1c0.6,2.1,1.1,4.1,1.7,6.1
	c0,0,0,0,0,0C168.4,503.1,163.8,505.6,159.4,502.7z M172,516.4c-1.7-1.4-4.4-3-6.9-4.8c3.1-0.4,6.1-1.8,8.7-3.9
	c1.6,5.2,3.3,10.4,5.3,15.5C176.8,520.7,174.5,518.4,172,516.4z M196.1,523.6c-1.1-4.4-1.8-9-2.4-13.5c14.7,3.3,27.7,10.1,39.7,18.8
	c-3.2,1.1-5.9,3.4-8.1,6.2c-5.7-6.5-19.3-5.6-26.5-0.9C197.9,530.7,197,527.2,196.1,523.6z M202,549c-0.4-2.2-0.8-4.4-1.3-6.6
	c0.4-0.2,0.8-0.4,1.2-0.8c3.3-3.2,17.1-5.9,18.2,0.6c0.1,0.7,0.4,1.2,0.7,1.7c-1.7,5.3-2.1,11.2-0.9,16.1c-5-2.3-10.5-3.7-15.2-4.4
	c0,0,0,0,0,0C203.8,553.4,202.9,551.2,202,549z M259.7,568.5c-2.9,2.6-5.5,5.7-7.6,8.7c-1,1.4-3,5.3-4.6,9.7
	c-3.9-3.5-8.4-5.3-13.2-5.9c0.1-0.3,0.2-0.7,0.2-1.1c0.2-3.7-0.6-6.8-2.2-9.6C240,564.4,252,561.5,259.7,568.5z M208.8,564.1
	c8.3,2,18.6,6.6,18,15.6c0,0.5,0,0.9,0.1,1.3c-3.1,0.3-6.3,1-9.6,1.9C214.9,576.5,211.8,570.3,208.8,564.1z M220,590.2
	c9.7-2.7,18.4-3,25.2,5.6c-0.1,1.2-0.2,2.3,0,3.4c-3.9,1.9-7.7,4.1-11.5,6.4c-0.4,0.1-0.7,0.3-1,0.6c-2,1.2-4,2.5-6,3.7
	C224.5,603.3,222.1,596.8,220,590.2z M232.7,631.4c-0.9-4.7-2.1-9.3-3.5-13.9c2.1-1.3,4.3-2.5,6.4-3.8c4.4,2,6.9,5.8,8.4,10.6
	c1.7,5.5,0.3,11.1,0,16.7c-3.3,5.4-6.2,11-8.7,16.9C235.1,648.8,234.3,639.9,232.7,631.4z M250.1,646.1c0.8-0.5,1.4-1.4,1.5-2.6
	c1-1.6,2-3.1,3-4.7c0.2,4.8-1.1,9.2-2.8,14.2c-1.1,3.1-1.2,6.4-0.3,9.4c-0.5,0.2-1,0.3-1.6,0.5c-3.5,1.1-6.7,2.8-10,4.2
	C242.7,659.7,246.1,652.8,250.1,646.1z M250.2,679.1c-2.9-1.7-6-2.8-9.1-3.9c5.2-1.9,10.3-4.1,15.6-6c1.8,3.3,2,11-0.2,14.1
	C254.5,681.9,252.4,680.5,250.2,679.1z M262.5,687.9c3.8-5.5,4.4-14.6,1.8-20.9c0.3-0.1,0.6-0.2,0.9-0.2c3-0.6,6.2-1.1,9.5-1.4
	c5.2,5.8,0.4,24.4-5.7,27.9c-1.9-1.7-4-3.4-6-5C262.8,688.1,262.7,688,262.5,687.9z M227,712c3.3-9.7,5.6-20.1,6.9-30.7
	c0.2-0.1,0.5-0.2,0.7-0.3c0.6,0.2,1.1,0.4,1.7,0.6c0.1,0.6,0.5,1.2,1,1.7c9.7,9.6,5.7,23.8-1.2,33.8c0,0,0,0.1-0.1,0.1
	c-5.4,1.9-10.5,4.3-15.1,7.8C223.5,720.9,225.5,716.5,227,712z M252.4,720.9c1.2-0.3,2.4-0.6,3.5-0.9c-2,5.8-2.8,12.7-2.1,19.4
	c-6.2-0.5-12.7,3.1-17.5,7.8c-1.9-6.2-5.2-12.2-9.8-16.5C234.2,725.1,243.3,723,252.4,720.9z M195.2,752.7c0-0.1,0-0.3-0.1-0.4
	c8.1-5,15.2-11.8,20.8-19.5c0.1,0,0.1,0.1,0.2,0.1c6.3,2.3,10.1,8.5,12.3,15.2c-9.7-2.1-21.6-0.1-27.5,8
	C199.1,754.9,197.2,753.8,195.2,752.7z M230.2,756.8c0,0.4,0.1,0.9,0.2,1.2c0.1,1.5,0.2,2.9,0.2,4.3c0,0.7,0,1.3-0.1,1.9
	c-5.7-1.1-11,1.9-14.9,6.2c-2.5-3.4-5.4-6.6-8.6-9.4C212.2,754.3,222.9,754.1,230.2,756.8z M183.8,758c1.4-0.5,2.8-1.1,4.1-1.8
	c0.5,3.5,0.3,7.1-0.3,10.6C186.7,763.8,185.5,760.8,183.8,758z M176.1,760.4c4.7,6.6,5.7,14.3,5.6,22.3c0,0.2,0,0.4,0,0.5
	c-1.7,3.2-3.6,6.3-5.5,9.4c0.9-10.6-0.8-21.8-5.9-31.1C172.3,761.2,174.2,760.8,176.1,760.4z M168.7,784.5
	c-4.7-8.4-11.6-16.2-17.3-23.3c3.4,0.5,6.8,0.7,10.2,0.8C165.9,768.4,168.3,776.5,168.7,784.5z M129,753.3c-0.7,0.1-1.5,0.2-2.3,0.2
	c-5.6,0.5-11.1,1.3-16.6,2.5c-1.3,0.3-2.5,0.7-3.5,1.2c2.8-6.7,4.6-13.8,5.9-21C114.5,739.1,120.8,747.5,129,753.3z M119.1,679.6
	c-2.4,2.3-4.5,5-6.2,7.9c-1.7-4.2-3.6-8.5-4.2-12.9C112.5,675.5,115.9,677.4,119.1,679.6z M94,682.9c2.7-1.3,5.3-2.5,7.5-4.1
	c0.1,0,0.1-0.1,0.2-0.1c0.6,2.7,1.5,5.3,2.6,7.9C101.1,684.8,97.6,683.7,94,682.9z M81.3,695.1c0.5-1.7,1.3-3.3,2.6-5.1
	c0.2-0.3,0.5-0.6,0.7-0.9c7.8,1.2,17.1,2.1,21.4,9.7c0.4,0.7,0.9,1.2,1.5,1.5c-0.4,1.4-0.7,2.8-0.9,4.3
	C99,699.1,90.8,694.7,81.3,695.1z M80.4,703c9.8-1.3,18.3,5.2,25.7,10.9c0.1,0.1,0.2,0.1,0.2,0.1c0.1,1.1,0.2,2.2,0.3,3.2
	c-7.7-4.1-17.9-4.2-26.1-1.5C80.4,711.5,80.3,707.2,80.4,703z M82.1,741.4c-0.4-4.9-0.8-9.8-1.1-14.7c3.8,3.2,8.4,5,13.1,6.6
	c-1.7,5.5-6.6,12.2-11.2,16.9C82.6,747.3,82.3,744.4,82.1,741.4z M84.9,759c4-3.3,6.9-7.9,10-12c3.6-4.8,6.8-10,7.5-16
	c0.2-1.8-1.2-3.3-2.8-3.8c-4.3-1.5-8.6-2.7-12.2-5.2c6.4-1,13.9,0,18.1,4c0.3,0.2,0.5,0.4,0.8,0.6c-2.3,13.3-4.7,26.9-12.7,37.9
	C90.2,763.4,86.8,762.3,84.9,759z M103.4,768.7c1.3-1,2.6-2,3.8-3c1.9-1.6,4.8-2.4,7.8-3c-1.5,4.6-2.6,8.9-2.2,14.1
	c0.1,1.5,0.2,3,0.4,4.4C111.2,776.1,107.8,771.8,103.4,768.7z M120.8,779.4c-0.5-6.7,0.7-11.5,2.8-17.8c2.9-0.3,5.8-0.5,8.6-0.9
	c1.4-0.2,2.6-0.3,3.7-0.3c-6.9,6.3-11.4,15.8-14.5,25.1C121.1,783.5,120.9,781.5,120.8,779.4z M143.6,764.2c0.4,0.5,0.8,1.1,1.3,1.8
	c2.2,3.5,5,6.9,7.8,10.3c-7.2,8-15.8,16.1-26.3,19.3C129.4,784.2,134.3,770.5,143.6,764.2z M157.7,782.3c5.3,6.9,9.6,14.3,8.6,23.6
	c-2.8-0.6-5.4-1.3-7.9-1.8c-8.5-1.9-16.7-2.2-25.2-2.8C142.7,797.2,150.8,789.9,157.7,782.3z"/>
</svg>
